M48
;DRILL file {KiCad 4.0.4-stable} date 10/12/16 22:20:02
;FORMAT={3:3/ absolute / metric / suppress leading zeros}
FMAT,2
METRIC,TZ
T1C0.350
T2C1.016
%
G90
G05
M71
T1
X32766Y-55118
X33807Y-26594
X33807Y-46228
X34214Y-28804
X34341Y-50140
X34897Y-30381
X35052Y-51664
X35306Y-25933
X35606Y-49034
X37211Y-28270
X37363Y-51257
X37690Y-25488
X37770Y-46850
X38267Y-35763
X38456Y-27026
X38524Y-48393
X38862Y-50546
X39475Y-30401
X40335Y-38913
X40792Y-53289
X40894Y-35814
X42672Y-46304
X42672Y-56642
X42926Y-35814
X42951Y-26619
X43205Y-50140
X43295Y-28812
X43986Y-51764
X44094Y-30328
X44450Y-25883
X44501Y-48946
X44598Y-53294
X45898Y-42672
X45898Y-45415
X46253Y-51257
X46279Y-35992
X46355Y-28321
X46616Y-46833
X46863Y-25527
X47396Y-48362
X47625Y-27051
X47752Y-50521
X48717Y-30328
T2
X35814Y-58166
X35814Y-60706
X38354Y-58166
X38354Y-60706
X40894Y-58166
X40894Y-60706
X43434Y-58166
X43434Y-60706
X45974Y-58166
X45974Y-60706
T0
M30
