G04 #@! TF.FileFunction,Copper,L4,Bot,Signal*
%FSLAX46Y46*%
G04 Gerber Fmt 4.6, Leading zero omitted, Abs format (unit mm)*
G04 Created by KiCad (PCBNEW 4.0.4-stable) date 10/12/16 22:12:16*
%MOMM*%
%LPD*%
G01*
G04 APERTURE LIST*
%ADD10C,0.100000*%
%ADD11R,1.727200X1.727200*%
%ADD12O,1.727200X1.727200*%
%ADD13C,0.620000*%
%ADD14C,0.200000*%
%ADD15C,0.254000*%
G04 APERTURE END LIST*
D10*
D11*
X45974000Y-58166000D03*
D12*
X45974000Y-60706000D03*
X43434000Y-58166000D03*
X43434000Y-60706000D03*
X40894000Y-58166000D03*
X40894000Y-60706000D03*
X38354000Y-58166000D03*
X38354000Y-60706000D03*
X35814000Y-58166000D03*
X35814000Y-60706000D03*
D13*
X40894000Y-35814000D03*
X46863000Y-25527000D03*
X47625000Y-27051000D03*
X34213800Y-28803600D03*
X34897412Y-30380564D03*
X43986403Y-51764283D03*
X43205400Y-50139600D03*
X38523911Y-48393207D03*
X37769800Y-46849600D03*
X42672000Y-56642000D03*
X32766000Y-55118000D03*
X46278800Y-35991800D03*
X38267200Y-35763200D03*
X40335200Y-38912800D03*
X39474757Y-30400643D03*
X48717200Y-30327600D03*
X46355000Y-28321000D03*
X42951400Y-26619200D03*
X44450000Y-25882600D03*
X37211000Y-28270200D03*
X33807400Y-26593800D03*
X35306000Y-25933400D03*
X42672000Y-46304200D03*
X44500800Y-48945800D03*
X46253400Y-51257200D03*
X47752000Y-50520600D03*
X33807400Y-46228000D03*
X35606409Y-49033630D03*
X37363400Y-51257200D03*
X38862000Y-50546000D03*
X42926000Y-35814000D03*
X44094400Y-30327600D03*
X43295256Y-28811554D03*
X37689722Y-25487593D03*
X38455600Y-27025600D03*
X46616022Y-46833415D03*
X47396400Y-48361600D03*
X35052000Y-51663600D03*
X34340800Y-50139600D03*
X45897800Y-45415200D03*
X45897800Y-42672000D03*
X40792400Y-53289200D03*
X44597601Y-53293999D03*
D14*
X42672000Y-46304200D02*
X42672000Y-45720000D01*
D15*
G36*
X50165000Y-62865000D02*
X32385000Y-62865000D01*
X32385000Y-58525027D01*
X34359032Y-58525027D01*
X34607179Y-59054490D01*
X35039053Y-59448688D01*
X35361240Y-59582134D01*
X35358377Y-59582704D01*
X34972119Y-59840794D01*
X34714029Y-60227052D01*
X34623400Y-60682675D01*
X34623400Y-60729325D01*
X34714029Y-61184948D01*
X34972119Y-61571206D01*
X35358377Y-61829296D01*
X35814000Y-61919925D01*
X36269623Y-61829296D01*
X36655881Y-61571206D01*
X36913971Y-61184948D01*
X36926266Y-61123136D01*
X37147179Y-61594490D01*
X37579053Y-61988688D01*
X37994974Y-62160958D01*
X38227000Y-62039817D01*
X38227000Y-60833000D01*
X38207000Y-60833000D01*
X38207000Y-60579000D01*
X38227000Y-60579000D01*
X38227000Y-60559000D01*
X38481000Y-60559000D01*
X38481000Y-60579000D01*
X38501000Y-60579000D01*
X38501000Y-60833000D01*
X38481000Y-60833000D01*
X38481000Y-62039817D01*
X38713026Y-62160958D01*
X39128947Y-61988688D01*
X39560821Y-61594490D01*
X39781734Y-61123136D01*
X39794029Y-61184948D01*
X40052119Y-61571206D01*
X40438377Y-61829296D01*
X40894000Y-61919925D01*
X41349623Y-61829296D01*
X41735881Y-61571206D01*
X41993971Y-61184948D01*
X42084600Y-60729325D01*
X42084600Y-60682675D01*
X42243400Y-60682675D01*
X42243400Y-60729325D01*
X42334029Y-61184948D01*
X42592119Y-61571206D01*
X42978377Y-61829296D01*
X43434000Y-61919925D01*
X43889623Y-61829296D01*
X44275881Y-61571206D01*
X44533971Y-61184948D01*
X44624600Y-60729325D01*
X44624600Y-60682675D01*
X44783400Y-60682675D01*
X44783400Y-60729325D01*
X44874029Y-61184948D01*
X45132119Y-61571206D01*
X45518377Y-61829296D01*
X45974000Y-61919925D01*
X46429623Y-61829296D01*
X46815881Y-61571206D01*
X47073971Y-61184948D01*
X47164600Y-60729325D01*
X47164600Y-60682675D01*
X47073971Y-60227052D01*
X46815881Y-59840794D01*
X46429623Y-59582704D01*
X45974000Y-59492075D01*
X45518377Y-59582704D01*
X45132119Y-59840794D01*
X44874029Y-60227052D01*
X44783400Y-60682675D01*
X44624600Y-60682675D01*
X44533971Y-60227052D01*
X44275881Y-59840794D01*
X43889623Y-59582704D01*
X43434000Y-59492075D01*
X42978377Y-59582704D01*
X42592119Y-59840794D01*
X42334029Y-60227052D01*
X42243400Y-60682675D01*
X42084600Y-60682675D01*
X41993971Y-60227052D01*
X41735881Y-59840794D01*
X41349623Y-59582704D01*
X40894000Y-59492075D01*
X40438377Y-59582704D01*
X40052119Y-59840794D01*
X39794029Y-60227052D01*
X39781734Y-60288864D01*
X39560821Y-59817510D01*
X39128947Y-59423312D01*
X38806760Y-59289866D01*
X38809623Y-59289296D01*
X39195881Y-59031206D01*
X39453971Y-58644948D01*
X39544600Y-58189325D01*
X39544600Y-58142675D01*
X39703400Y-58142675D01*
X39703400Y-58189325D01*
X39794029Y-58644948D01*
X40052119Y-59031206D01*
X40438377Y-59289296D01*
X40894000Y-59379925D01*
X41349623Y-59289296D01*
X41735881Y-59031206D01*
X41993971Y-58644948D01*
X42084600Y-58189325D01*
X42084600Y-58142675D01*
X42243400Y-58142675D01*
X42243400Y-58189325D01*
X42334029Y-58644948D01*
X42592119Y-59031206D01*
X42978377Y-59289296D01*
X43434000Y-59379925D01*
X43889623Y-59289296D01*
X44275881Y-59031206D01*
X44533971Y-58644948D01*
X44624600Y-58189325D01*
X44624600Y-58142675D01*
X44533971Y-57687052D01*
X44276955Y-57302400D01*
X44776994Y-57302400D01*
X44776994Y-59029600D01*
X44799795Y-59150779D01*
X44871412Y-59262074D01*
X44980686Y-59336738D01*
X45110400Y-59363006D01*
X46837600Y-59363006D01*
X46958779Y-59340205D01*
X47070074Y-59268588D01*
X47144738Y-59159314D01*
X47171006Y-59029600D01*
X47171006Y-57302400D01*
X47148205Y-57181221D01*
X47076588Y-57069926D01*
X46967314Y-56995262D01*
X46837600Y-56968994D01*
X45110400Y-56968994D01*
X44989221Y-56991795D01*
X44877926Y-57063412D01*
X44803262Y-57172686D01*
X44776994Y-57302400D01*
X44276955Y-57302400D01*
X44275881Y-57300794D01*
X43889623Y-57042704D01*
X43434000Y-56952075D01*
X42978377Y-57042704D01*
X42592119Y-57300794D01*
X42334029Y-57687052D01*
X42243400Y-58142675D01*
X42084600Y-58142675D01*
X41993971Y-57687052D01*
X41735881Y-57300794D01*
X41349623Y-57042704D01*
X40894000Y-56952075D01*
X40438377Y-57042704D01*
X40052119Y-57300794D01*
X39794029Y-57687052D01*
X39703400Y-58142675D01*
X39544600Y-58142675D01*
X39453971Y-57687052D01*
X39195881Y-57300794D01*
X38809623Y-57042704D01*
X38354000Y-56952075D01*
X37898377Y-57042704D01*
X37512119Y-57300794D01*
X37254029Y-57687052D01*
X37241734Y-57748864D01*
X37020821Y-57277510D01*
X36588947Y-56883312D01*
X36173026Y-56711042D01*
X35941000Y-56832183D01*
X35941000Y-58039000D01*
X35961000Y-58039000D01*
X35961000Y-58293000D01*
X35941000Y-58293000D01*
X35941000Y-58313000D01*
X35687000Y-58313000D01*
X35687000Y-58293000D01*
X34479531Y-58293000D01*
X34359032Y-58525027D01*
X32385000Y-58525027D01*
X32385000Y-57806973D01*
X34359032Y-57806973D01*
X34479531Y-58039000D01*
X35687000Y-58039000D01*
X35687000Y-56832183D01*
X35454974Y-56711042D01*
X35039053Y-56883312D01*
X34607179Y-57277510D01*
X34359032Y-57806973D01*
X32385000Y-57806973D01*
X32385000Y-53415351D01*
X40155289Y-53415351D01*
X40252062Y-53649560D01*
X40431097Y-53828908D01*
X40665137Y-53926090D01*
X40918551Y-53926311D01*
X41152760Y-53829538D01*
X41332108Y-53650503D01*
X41427759Y-53420150D01*
X43960490Y-53420150D01*
X44057263Y-53654359D01*
X44236298Y-53833707D01*
X44470338Y-53930889D01*
X44723752Y-53931110D01*
X44957961Y-53834337D01*
X45137309Y-53655302D01*
X45234491Y-53421262D01*
X45234712Y-53167848D01*
X45137939Y-52933639D01*
X44958904Y-52754291D01*
X44724864Y-52657109D01*
X44471450Y-52656888D01*
X44237241Y-52753661D01*
X44057893Y-52932696D01*
X43960711Y-53166736D01*
X43960490Y-53420150D01*
X41427759Y-53420150D01*
X41429290Y-53416463D01*
X41429511Y-53163049D01*
X41332738Y-52928840D01*
X41153703Y-52749492D01*
X40919663Y-52652310D01*
X40666249Y-52652089D01*
X40432040Y-52748862D01*
X40252692Y-52927897D01*
X40155510Y-53161937D01*
X40155289Y-53415351D01*
X32385000Y-53415351D01*
X32385000Y-51789751D01*
X34414889Y-51789751D01*
X34511662Y-52023960D01*
X34690697Y-52203308D01*
X34924737Y-52300490D01*
X35178151Y-52300711D01*
X35412360Y-52203938D01*
X35591708Y-52024903D01*
X35647544Y-51890434D01*
X43349292Y-51890434D01*
X43446065Y-52124643D01*
X43625100Y-52303991D01*
X43859140Y-52401173D01*
X44112554Y-52401394D01*
X44346763Y-52304621D01*
X44526111Y-52125586D01*
X44623293Y-51891546D01*
X44623514Y-51638132D01*
X44526741Y-51403923D01*
X44347706Y-51224575D01*
X44113666Y-51127393D01*
X43860252Y-51127172D01*
X43626043Y-51223945D01*
X43446695Y-51402980D01*
X43349513Y-51637020D01*
X43349292Y-51890434D01*
X35647544Y-51890434D01*
X35688890Y-51790863D01*
X35689111Y-51537449D01*
X35592338Y-51303240D01*
X35413303Y-51123892D01*
X35179263Y-51026710D01*
X34925849Y-51026489D01*
X34691640Y-51123262D01*
X34512292Y-51302297D01*
X34415110Y-51536337D01*
X34414889Y-51789751D01*
X32385000Y-51789751D01*
X32385000Y-50265751D01*
X33703689Y-50265751D01*
X33800462Y-50499960D01*
X33979497Y-50679308D01*
X34213537Y-50776490D01*
X34466951Y-50776711D01*
X34701160Y-50679938D01*
X34880508Y-50500903D01*
X34977690Y-50266863D01*
X34977690Y-50265751D01*
X42568289Y-50265751D01*
X42665062Y-50499960D01*
X42844097Y-50679308D01*
X43078137Y-50776490D01*
X43331551Y-50776711D01*
X43565760Y-50679938D01*
X43745108Y-50500903D01*
X43842290Y-50266863D01*
X43842511Y-50013449D01*
X43745738Y-49779240D01*
X43566703Y-49599892D01*
X43332663Y-49502710D01*
X43079249Y-49502489D01*
X42845040Y-49599262D01*
X42665692Y-49778297D01*
X42568510Y-50012337D01*
X42568289Y-50265751D01*
X34977690Y-50265751D01*
X34977911Y-50013449D01*
X34881138Y-49779240D01*
X34702103Y-49599892D01*
X34468063Y-49502710D01*
X34214649Y-49502489D01*
X33980440Y-49599262D01*
X33801092Y-49778297D01*
X33703910Y-50012337D01*
X33703689Y-50265751D01*
X32385000Y-50265751D01*
X32385000Y-48519358D01*
X37886800Y-48519358D01*
X37983573Y-48753567D01*
X38162608Y-48932915D01*
X38396648Y-49030097D01*
X38650062Y-49030318D01*
X38884271Y-48933545D01*
X39063619Y-48754510D01*
X39160801Y-48520470D01*
X39160829Y-48487751D01*
X46759289Y-48487751D01*
X46856062Y-48721960D01*
X47035097Y-48901308D01*
X47269137Y-48998490D01*
X47522551Y-48998711D01*
X47756760Y-48901938D01*
X47936108Y-48722903D01*
X48033290Y-48488863D01*
X48033511Y-48235449D01*
X47936738Y-48001240D01*
X47757703Y-47821892D01*
X47523663Y-47724710D01*
X47270249Y-47724489D01*
X47036040Y-47821262D01*
X46856692Y-48000297D01*
X46759510Y-48234337D01*
X46759289Y-48487751D01*
X39160829Y-48487751D01*
X39161022Y-48267056D01*
X39064249Y-48032847D01*
X38885214Y-47853499D01*
X38651174Y-47756317D01*
X38397760Y-47756096D01*
X38163551Y-47852869D01*
X37984203Y-48031904D01*
X37887021Y-48265944D01*
X37886800Y-48519358D01*
X32385000Y-48519358D01*
X32385000Y-46975751D01*
X37132689Y-46975751D01*
X37229462Y-47209960D01*
X37408497Y-47389308D01*
X37642537Y-47486490D01*
X37895951Y-47486711D01*
X38130160Y-47389938D01*
X38309508Y-47210903D01*
X38406690Y-46976863D01*
X38406705Y-46959566D01*
X45978911Y-46959566D01*
X46075684Y-47193775D01*
X46254719Y-47373123D01*
X46488759Y-47470305D01*
X46742173Y-47470526D01*
X46976382Y-47373753D01*
X47155730Y-47194718D01*
X47252912Y-46960678D01*
X47253133Y-46707264D01*
X47156360Y-46473055D01*
X46977325Y-46293707D01*
X46743285Y-46196525D01*
X46489871Y-46196304D01*
X46255662Y-46293077D01*
X46076314Y-46472112D01*
X45979132Y-46706152D01*
X45978911Y-46959566D01*
X38406705Y-46959566D01*
X38406911Y-46723449D01*
X38310138Y-46489240D01*
X38131103Y-46309892D01*
X37897063Y-46212710D01*
X37643649Y-46212489D01*
X37409440Y-46309262D01*
X37230092Y-46488297D01*
X37132910Y-46722337D01*
X37132689Y-46975751D01*
X32385000Y-46975751D01*
X32385000Y-45541351D01*
X45260689Y-45541351D01*
X45357462Y-45775560D01*
X45536497Y-45954908D01*
X45770537Y-46052090D01*
X46023951Y-46052311D01*
X46258160Y-45955538D01*
X46437508Y-45776503D01*
X46534690Y-45542463D01*
X46534911Y-45289049D01*
X46438138Y-45054840D01*
X46259103Y-44875492D01*
X46025063Y-44778310D01*
X45771649Y-44778089D01*
X45537440Y-44874862D01*
X45358092Y-45053897D01*
X45260910Y-45287937D01*
X45260689Y-45541351D01*
X32385000Y-45541351D01*
X32385000Y-42798151D01*
X45260689Y-42798151D01*
X45357462Y-43032360D01*
X45536497Y-43211708D01*
X45770537Y-43308890D01*
X46023951Y-43309111D01*
X46258160Y-43212338D01*
X46437508Y-43033303D01*
X46534690Y-42799263D01*
X46534911Y-42545849D01*
X46438138Y-42311640D01*
X46259103Y-42132292D01*
X46025063Y-42035110D01*
X45771649Y-42034889D01*
X45537440Y-42131662D01*
X45358092Y-42310697D01*
X45260910Y-42544737D01*
X45260689Y-42798151D01*
X32385000Y-42798151D01*
X32385000Y-35940151D01*
X40256889Y-35940151D01*
X40353662Y-36174360D01*
X40532697Y-36353708D01*
X40766737Y-36450890D01*
X41020151Y-36451111D01*
X41254360Y-36354338D01*
X41433708Y-36175303D01*
X41530890Y-35941263D01*
X41530890Y-35940151D01*
X42288889Y-35940151D01*
X42385662Y-36174360D01*
X42564697Y-36353708D01*
X42798737Y-36450890D01*
X43052151Y-36451111D01*
X43286360Y-36354338D01*
X43465708Y-36175303D01*
X43562890Y-35941263D01*
X43563111Y-35687849D01*
X43466338Y-35453640D01*
X43287303Y-35274292D01*
X43053263Y-35177110D01*
X42799849Y-35176889D01*
X42565640Y-35273662D01*
X42386292Y-35452697D01*
X42289110Y-35686737D01*
X42288889Y-35940151D01*
X41530890Y-35940151D01*
X41531111Y-35687849D01*
X41434338Y-35453640D01*
X41255303Y-35274292D01*
X41021263Y-35177110D01*
X40767849Y-35176889D01*
X40533640Y-35273662D01*
X40354292Y-35452697D01*
X40257110Y-35686737D01*
X40256889Y-35940151D01*
X32385000Y-35940151D01*
X32385000Y-30506715D01*
X34260301Y-30506715D01*
X34357074Y-30740924D01*
X34536109Y-30920272D01*
X34770149Y-31017454D01*
X35023563Y-31017675D01*
X35257772Y-30920902D01*
X35437120Y-30741867D01*
X35534302Y-30507827D01*
X35534349Y-30453751D01*
X43457289Y-30453751D01*
X43554062Y-30687960D01*
X43733097Y-30867308D01*
X43967137Y-30964490D01*
X44220551Y-30964711D01*
X44454760Y-30867938D01*
X44634108Y-30688903D01*
X44731290Y-30454863D01*
X44731511Y-30201449D01*
X44634738Y-29967240D01*
X44455703Y-29787892D01*
X44221663Y-29690710D01*
X43968249Y-29690489D01*
X43734040Y-29787262D01*
X43554692Y-29966297D01*
X43457510Y-30200337D01*
X43457289Y-30453751D01*
X35534349Y-30453751D01*
X35534523Y-30254413D01*
X35437750Y-30020204D01*
X35258715Y-29840856D01*
X35024675Y-29743674D01*
X34771261Y-29743453D01*
X34537052Y-29840226D01*
X34357704Y-30019261D01*
X34260522Y-30253301D01*
X34260301Y-30506715D01*
X32385000Y-30506715D01*
X32385000Y-28929751D01*
X33576689Y-28929751D01*
X33673462Y-29163960D01*
X33852497Y-29343308D01*
X34086537Y-29440490D01*
X34339951Y-29440711D01*
X34574160Y-29343938D01*
X34753508Y-29164903D01*
X34847848Y-28937705D01*
X42658145Y-28937705D01*
X42754918Y-29171914D01*
X42933953Y-29351262D01*
X43167993Y-29448444D01*
X43421407Y-29448665D01*
X43655616Y-29351892D01*
X43834964Y-29172857D01*
X43932146Y-28938817D01*
X43932367Y-28685403D01*
X43835594Y-28451194D01*
X43656559Y-28271846D01*
X43422519Y-28174664D01*
X43169105Y-28174443D01*
X42934896Y-28271216D01*
X42755548Y-28450251D01*
X42658366Y-28684291D01*
X42658145Y-28937705D01*
X34847848Y-28937705D01*
X34850690Y-28930863D01*
X34850911Y-28677449D01*
X34754138Y-28443240D01*
X34575103Y-28263892D01*
X34341063Y-28166710D01*
X34087649Y-28166489D01*
X33853440Y-28263262D01*
X33674092Y-28442297D01*
X33576910Y-28676337D01*
X33576689Y-28929751D01*
X32385000Y-28929751D01*
X32385000Y-27151751D01*
X37818489Y-27151751D01*
X37915262Y-27385960D01*
X38094297Y-27565308D01*
X38328337Y-27662490D01*
X38581751Y-27662711D01*
X38815960Y-27565938D01*
X38995308Y-27386903D01*
X39082404Y-27177151D01*
X46987889Y-27177151D01*
X47084662Y-27411360D01*
X47263697Y-27590708D01*
X47497737Y-27687890D01*
X47751151Y-27688111D01*
X47985360Y-27591338D01*
X48164708Y-27412303D01*
X48261890Y-27178263D01*
X48262111Y-26924849D01*
X48165338Y-26690640D01*
X47986303Y-26511292D01*
X47752263Y-26414110D01*
X47498849Y-26413889D01*
X47264640Y-26510662D01*
X47085292Y-26689697D01*
X46988110Y-26923737D01*
X46987889Y-27177151D01*
X39082404Y-27177151D01*
X39092490Y-27152863D01*
X39092711Y-26899449D01*
X38995938Y-26665240D01*
X38816903Y-26485892D01*
X38582863Y-26388710D01*
X38329449Y-26388489D01*
X38095240Y-26485262D01*
X37915892Y-26664297D01*
X37818710Y-26898337D01*
X37818489Y-27151751D01*
X32385000Y-27151751D01*
X32385000Y-25613744D01*
X37052611Y-25613744D01*
X37149384Y-25847953D01*
X37328419Y-26027301D01*
X37562459Y-26124483D01*
X37815873Y-26124704D01*
X38050082Y-26027931D01*
X38229430Y-25848896D01*
X38310710Y-25653151D01*
X46225889Y-25653151D01*
X46322662Y-25887360D01*
X46501697Y-26066708D01*
X46735737Y-26163890D01*
X46989151Y-26164111D01*
X47223360Y-26067338D01*
X47402708Y-25888303D01*
X47499890Y-25654263D01*
X47500111Y-25400849D01*
X47403338Y-25166640D01*
X47224303Y-24987292D01*
X46990263Y-24890110D01*
X46736849Y-24889889D01*
X46502640Y-24986662D01*
X46323292Y-25165697D01*
X46226110Y-25399737D01*
X46225889Y-25653151D01*
X38310710Y-25653151D01*
X38326612Y-25614856D01*
X38326833Y-25361442D01*
X38230060Y-25127233D01*
X38051025Y-24947885D01*
X37816985Y-24850703D01*
X37563571Y-24850482D01*
X37329362Y-24947255D01*
X37150014Y-25126290D01*
X37052832Y-25360330D01*
X37052611Y-25613744D01*
X32385000Y-25613744D01*
X32385000Y-23241000D01*
X50165000Y-23241000D01*
X50165000Y-62865000D01*
X50165000Y-62865000D01*
G37*
X50165000Y-62865000D02*
X32385000Y-62865000D01*
X32385000Y-58525027D01*
X34359032Y-58525027D01*
X34607179Y-59054490D01*
X35039053Y-59448688D01*
X35361240Y-59582134D01*
X35358377Y-59582704D01*
X34972119Y-59840794D01*
X34714029Y-60227052D01*
X34623400Y-60682675D01*
X34623400Y-60729325D01*
X34714029Y-61184948D01*
X34972119Y-61571206D01*
X35358377Y-61829296D01*
X35814000Y-61919925D01*
X36269623Y-61829296D01*
X36655881Y-61571206D01*
X36913971Y-61184948D01*
X36926266Y-61123136D01*
X37147179Y-61594490D01*
X37579053Y-61988688D01*
X37994974Y-62160958D01*
X38227000Y-62039817D01*
X38227000Y-60833000D01*
X38207000Y-60833000D01*
X38207000Y-60579000D01*
X38227000Y-60579000D01*
X38227000Y-60559000D01*
X38481000Y-60559000D01*
X38481000Y-60579000D01*
X38501000Y-60579000D01*
X38501000Y-60833000D01*
X38481000Y-60833000D01*
X38481000Y-62039817D01*
X38713026Y-62160958D01*
X39128947Y-61988688D01*
X39560821Y-61594490D01*
X39781734Y-61123136D01*
X39794029Y-61184948D01*
X40052119Y-61571206D01*
X40438377Y-61829296D01*
X40894000Y-61919925D01*
X41349623Y-61829296D01*
X41735881Y-61571206D01*
X41993971Y-61184948D01*
X42084600Y-60729325D01*
X42084600Y-60682675D01*
X42243400Y-60682675D01*
X42243400Y-60729325D01*
X42334029Y-61184948D01*
X42592119Y-61571206D01*
X42978377Y-61829296D01*
X43434000Y-61919925D01*
X43889623Y-61829296D01*
X44275881Y-61571206D01*
X44533971Y-61184948D01*
X44624600Y-60729325D01*
X44624600Y-60682675D01*
X44783400Y-60682675D01*
X44783400Y-60729325D01*
X44874029Y-61184948D01*
X45132119Y-61571206D01*
X45518377Y-61829296D01*
X45974000Y-61919925D01*
X46429623Y-61829296D01*
X46815881Y-61571206D01*
X47073971Y-61184948D01*
X47164600Y-60729325D01*
X47164600Y-60682675D01*
X47073971Y-60227052D01*
X46815881Y-59840794D01*
X46429623Y-59582704D01*
X45974000Y-59492075D01*
X45518377Y-59582704D01*
X45132119Y-59840794D01*
X44874029Y-60227052D01*
X44783400Y-60682675D01*
X44624600Y-60682675D01*
X44533971Y-60227052D01*
X44275881Y-59840794D01*
X43889623Y-59582704D01*
X43434000Y-59492075D01*
X42978377Y-59582704D01*
X42592119Y-59840794D01*
X42334029Y-60227052D01*
X42243400Y-60682675D01*
X42084600Y-60682675D01*
X41993971Y-60227052D01*
X41735881Y-59840794D01*
X41349623Y-59582704D01*
X40894000Y-59492075D01*
X40438377Y-59582704D01*
X40052119Y-59840794D01*
X39794029Y-60227052D01*
X39781734Y-60288864D01*
X39560821Y-59817510D01*
X39128947Y-59423312D01*
X38806760Y-59289866D01*
X38809623Y-59289296D01*
X39195881Y-59031206D01*
X39453971Y-58644948D01*
X39544600Y-58189325D01*
X39544600Y-58142675D01*
X39703400Y-58142675D01*
X39703400Y-58189325D01*
X39794029Y-58644948D01*
X40052119Y-59031206D01*
X40438377Y-59289296D01*
X40894000Y-59379925D01*
X41349623Y-59289296D01*
X41735881Y-59031206D01*
X41993971Y-58644948D01*
X42084600Y-58189325D01*
X42084600Y-58142675D01*
X42243400Y-58142675D01*
X42243400Y-58189325D01*
X42334029Y-58644948D01*
X42592119Y-59031206D01*
X42978377Y-59289296D01*
X43434000Y-59379925D01*
X43889623Y-59289296D01*
X44275881Y-59031206D01*
X44533971Y-58644948D01*
X44624600Y-58189325D01*
X44624600Y-58142675D01*
X44533971Y-57687052D01*
X44276955Y-57302400D01*
X44776994Y-57302400D01*
X44776994Y-59029600D01*
X44799795Y-59150779D01*
X44871412Y-59262074D01*
X44980686Y-59336738D01*
X45110400Y-59363006D01*
X46837600Y-59363006D01*
X46958779Y-59340205D01*
X47070074Y-59268588D01*
X47144738Y-59159314D01*
X47171006Y-59029600D01*
X47171006Y-57302400D01*
X47148205Y-57181221D01*
X47076588Y-57069926D01*
X46967314Y-56995262D01*
X46837600Y-56968994D01*
X45110400Y-56968994D01*
X44989221Y-56991795D01*
X44877926Y-57063412D01*
X44803262Y-57172686D01*
X44776994Y-57302400D01*
X44276955Y-57302400D01*
X44275881Y-57300794D01*
X43889623Y-57042704D01*
X43434000Y-56952075D01*
X42978377Y-57042704D01*
X42592119Y-57300794D01*
X42334029Y-57687052D01*
X42243400Y-58142675D01*
X42084600Y-58142675D01*
X41993971Y-57687052D01*
X41735881Y-57300794D01*
X41349623Y-57042704D01*
X40894000Y-56952075D01*
X40438377Y-57042704D01*
X40052119Y-57300794D01*
X39794029Y-57687052D01*
X39703400Y-58142675D01*
X39544600Y-58142675D01*
X39453971Y-57687052D01*
X39195881Y-57300794D01*
X38809623Y-57042704D01*
X38354000Y-56952075D01*
X37898377Y-57042704D01*
X37512119Y-57300794D01*
X37254029Y-57687052D01*
X37241734Y-57748864D01*
X37020821Y-57277510D01*
X36588947Y-56883312D01*
X36173026Y-56711042D01*
X35941000Y-56832183D01*
X35941000Y-58039000D01*
X35961000Y-58039000D01*
X35961000Y-58293000D01*
X35941000Y-58293000D01*
X35941000Y-58313000D01*
X35687000Y-58313000D01*
X35687000Y-58293000D01*
X34479531Y-58293000D01*
X34359032Y-58525027D01*
X32385000Y-58525027D01*
X32385000Y-57806973D01*
X34359032Y-57806973D01*
X34479531Y-58039000D01*
X35687000Y-58039000D01*
X35687000Y-56832183D01*
X35454974Y-56711042D01*
X35039053Y-56883312D01*
X34607179Y-57277510D01*
X34359032Y-57806973D01*
X32385000Y-57806973D01*
X32385000Y-53415351D01*
X40155289Y-53415351D01*
X40252062Y-53649560D01*
X40431097Y-53828908D01*
X40665137Y-53926090D01*
X40918551Y-53926311D01*
X41152760Y-53829538D01*
X41332108Y-53650503D01*
X41427759Y-53420150D01*
X43960490Y-53420150D01*
X44057263Y-53654359D01*
X44236298Y-53833707D01*
X44470338Y-53930889D01*
X44723752Y-53931110D01*
X44957961Y-53834337D01*
X45137309Y-53655302D01*
X45234491Y-53421262D01*
X45234712Y-53167848D01*
X45137939Y-52933639D01*
X44958904Y-52754291D01*
X44724864Y-52657109D01*
X44471450Y-52656888D01*
X44237241Y-52753661D01*
X44057893Y-52932696D01*
X43960711Y-53166736D01*
X43960490Y-53420150D01*
X41427759Y-53420150D01*
X41429290Y-53416463D01*
X41429511Y-53163049D01*
X41332738Y-52928840D01*
X41153703Y-52749492D01*
X40919663Y-52652310D01*
X40666249Y-52652089D01*
X40432040Y-52748862D01*
X40252692Y-52927897D01*
X40155510Y-53161937D01*
X40155289Y-53415351D01*
X32385000Y-53415351D01*
X32385000Y-51789751D01*
X34414889Y-51789751D01*
X34511662Y-52023960D01*
X34690697Y-52203308D01*
X34924737Y-52300490D01*
X35178151Y-52300711D01*
X35412360Y-52203938D01*
X35591708Y-52024903D01*
X35647544Y-51890434D01*
X43349292Y-51890434D01*
X43446065Y-52124643D01*
X43625100Y-52303991D01*
X43859140Y-52401173D01*
X44112554Y-52401394D01*
X44346763Y-52304621D01*
X44526111Y-52125586D01*
X44623293Y-51891546D01*
X44623514Y-51638132D01*
X44526741Y-51403923D01*
X44347706Y-51224575D01*
X44113666Y-51127393D01*
X43860252Y-51127172D01*
X43626043Y-51223945D01*
X43446695Y-51402980D01*
X43349513Y-51637020D01*
X43349292Y-51890434D01*
X35647544Y-51890434D01*
X35688890Y-51790863D01*
X35689111Y-51537449D01*
X35592338Y-51303240D01*
X35413303Y-51123892D01*
X35179263Y-51026710D01*
X34925849Y-51026489D01*
X34691640Y-51123262D01*
X34512292Y-51302297D01*
X34415110Y-51536337D01*
X34414889Y-51789751D01*
X32385000Y-51789751D01*
X32385000Y-50265751D01*
X33703689Y-50265751D01*
X33800462Y-50499960D01*
X33979497Y-50679308D01*
X34213537Y-50776490D01*
X34466951Y-50776711D01*
X34701160Y-50679938D01*
X34880508Y-50500903D01*
X34977690Y-50266863D01*
X34977690Y-50265751D01*
X42568289Y-50265751D01*
X42665062Y-50499960D01*
X42844097Y-50679308D01*
X43078137Y-50776490D01*
X43331551Y-50776711D01*
X43565760Y-50679938D01*
X43745108Y-50500903D01*
X43842290Y-50266863D01*
X43842511Y-50013449D01*
X43745738Y-49779240D01*
X43566703Y-49599892D01*
X43332663Y-49502710D01*
X43079249Y-49502489D01*
X42845040Y-49599262D01*
X42665692Y-49778297D01*
X42568510Y-50012337D01*
X42568289Y-50265751D01*
X34977690Y-50265751D01*
X34977911Y-50013449D01*
X34881138Y-49779240D01*
X34702103Y-49599892D01*
X34468063Y-49502710D01*
X34214649Y-49502489D01*
X33980440Y-49599262D01*
X33801092Y-49778297D01*
X33703910Y-50012337D01*
X33703689Y-50265751D01*
X32385000Y-50265751D01*
X32385000Y-48519358D01*
X37886800Y-48519358D01*
X37983573Y-48753567D01*
X38162608Y-48932915D01*
X38396648Y-49030097D01*
X38650062Y-49030318D01*
X38884271Y-48933545D01*
X39063619Y-48754510D01*
X39160801Y-48520470D01*
X39160829Y-48487751D01*
X46759289Y-48487751D01*
X46856062Y-48721960D01*
X47035097Y-48901308D01*
X47269137Y-48998490D01*
X47522551Y-48998711D01*
X47756760Y-48901938D01*
X47936108Y-48722903D01*
X48033290Y-48488863D01*
X48033511Y-48235449D01*
X47936738Y-48001240D01*
X47757703Y-47821892D01*
X47523663Y-47724710D01*
X47270249Y-47724489D01*
X47036040Y-47821262D01*
X46856692Y-48000297D01*
X46759510Y-48234337D01*
X46759289Y-48487751D01*
X39160829Y-48487751D01*
X39161022Y-48267056D01*
X39064249Y-48032847D01*
X38885214Y-47853499D01*
X38651174Y-47756317D01*
X38397760Y-47756096D01*
X38163551Y-47852869D01*
X37984203Y-48031904D01*
X37887021Y-48265944D01*
X37886800Y-48519358D01*
X32385000Y-48519358D01*
X32385000Y-46975751D01*
X37132689Y-46975751D01*
X37229462Y-47209960D01*
X37408497Y-47389308D01*
X37642537Y-47486490D01*
X37895951Y-47486711D01*
X38130160Y-47389938D01*
X38309508Y-47210903D01*
X38406690Y-46976863D01*
X38406705Y-46959566D01*
X45978911Y-46959566D01*
X46075684Y-47193775D01*
X46254719Y-47373123D01*
X46488759Y-47470305D01*
X46742173Y-47470526D01*
X46976382Y-47373753D01*
X47155730Y-47194718D01*
X47252912Y-46960678D01*
X47253133Y-46707264D01*
X47156360Y-46473055D01*
X46977325Y-46293707D01*
X46743285Y-46196525D01*
X46489871Y-46196304D01*
X46255662Y-46293077D01*
X46076314Y-46472112D01*
X45979132Y-46706152D01*
X45978911Y-46959566D01*
X38406705Y-46959566D01*
X38406911Y-46723449D01*
X38310138Y-46489240D01*
X38131103Y-46309892D01*
X37897063Y-46212710D01*
X37643649Y-46212489D01*
X37409440Y-46309262D01*
X37230092Y-46488297D01*
X37132910Y-46722337D01*
X37132689Y-46975751D01*
X32385000Y-46975751D01*
X32385000Y-45541351D01*
X45260689Y-45541351D01*
X45357462Y-45775560D01*
X45536497Y-45954908D01*
X45770537Y-46052090D01*
X46023951Y-46052311D01*
X46258160Y-45955538D01*
X46437508Y-45776503D01*
X46534690Y-45542463D01*
X46534911Y-45289049D01*
X46438138Y-45054840D01*
X46259103Y-44875492D01*
X46025063Y-44778310D01*
X45771649Y-44778089D01*
X45537440Y-44874862D01*
X45358092Y-45053897D01*
X45260910Y-45287937D01*
X45260689Y-45541351D01*
X32385000Y-45541351D01*
X32385000Y-42798151D01*
X45260689Y-42798151D01*
X45357462Y-43032360D01*
X45536497Y-43211708D01*
X45770537Y-43308890D01*
X46023951Y-43309111D01*
X46258160Y-43212338D01*
X46437508Y-43033303D01*
X46534690Y-42799263D01*
X46534911Y-42545849D01*
X46438138Y-42311640D01*
X46259103Y-42132292D01*
X46025063Y-42035110D01*
X45771649Y-42034889D01*
X45537440Y-42131662D01*
X45358092Y-42310697D01*
X45260910Y-42544737D01*
X45260689Y-42798151D01*
X32385000Y-42798151D01*
X32385000Y-35940151D01*
X40256889Y-35940151D01*
X40353662Y-36174360D01*
X40532697Y-36353708D01*
X40766737Y-36450890D01*
X41020151Y-36451111D01*
X41254360Y-36354338D01*
X41433708Y-36175303D01*
X41530890Y-35941263D01*
X41530890Y-35940151D01*
X42288889Y-35940151D01*
X42385662Y-36174360D01*
X42564697Y-36353708D01*
X42798737Y-36450890D01*
X43052151Y-36451111D01*
X43286360Y-36354338D01*
X43465708Y-36175303D01*
X43562890Y-35941263D01*
X43563111Y-35687849D01*
X43466338Y-35453640D01*
X43287303Y-35274292D01*
X43053263Y-35177110D01*
X42799849Y-35176889D01*
X42565640Y-35273662D01*
X42386292Y-35452697D01*
X42289110Y-35686737D01*
X42288889Y-35940151D01*
X41530890Y-35940151D01*
X41531111Y-35687849D01*
X41434338Y-35453640D01*
X41255303Y-35274292D01*
X41021263Y-35177110D01*
X40767849Y-35176889D01*
X40533640Y-35273662D01*
X40354292Y-35452697D01*
X40257110Y-35686737D01*
X40256889Y-35940151D01*
X32385000Y-35940151D01*
X32385000Y-30506715D01*
X34260301Y-30506715D01*
X34357074Y-30740924D01*
X34536109Y-30920272D01*
X34770149Y-31017454D01*
X35023563Y-31017675D01*
X35257772Y-30920902D01*
X35437120Y-30741867D01*
X35534302Y-30507827D01*
X35534349Y-30453751D01*
X43457289Y-30453751D01*
X43554062Y-30687960D01*
X43733097Y-30867308D01*
X43967137Y-30964490D01*
X44220551Y-30964711D01*
X44454760Y-30867938D01*
X44634108Y-30688903D01*
X44731290Y-30454863D01*
X44731511Y-30201449D01*
X44634738Y-29967240D01*
X44455703Y-29787892D01*
X44221663Y-29690710D01*
X43968249Y-29690489D01*
X43734040Y-29787262D01*
X43554692Y-29966297D01*
X43457510Y-30200337D01*
X43457289Y-30453751D01*
X35534349Y-30453751D01*
X35534523Y-30254413D01*
X35437750Y-30020204D01*
X35258715Y-29840856D01*
X35024675Y-29743674D01*
X34771261Y-29743453D01*
X34537052Y-29840226D01*
X34357704Y-30019261D01*
X34260522Y-30253301D01*
X34260301Y-30506715D01*
X32385000Y-30506715D01*
X32385000Y-28929751D01*
X33576689Y-28929751D01*
X33673462Y-29163960D01*
X33852497Y-29343308D01*
X34086537Y-29440490D01*
X34339951Y-29440711D01*
X34574160Y-29343938D01*
X34753508Y-29164903D01*
X34847848Y-28937705D01*
X42658145Y-28937705D01*
X42754918Y-29171914D01*
X42933953Y-29351262D01*
X43167993Y-29448444D01*
X43421407Y-29448665D01*
X43655616Y-29351892D01*
X43834964Y-29172857D01*
X43932146Y-28938817D01*
X43932367Y-28685403D01*
X43835594Y-28451194D01*
X43656559Y-28271846D01*
X43422519Y-28174664D01*
X43169105Y-28174443D01*
X42934896Y-28271216D01*
X42755548Y-28450251D01*
X42658366Y-28684291D01*
X42658145Y-28937705D01*
X34847848Y-28937705D01*
X34850690Y-28930863D01*
X34850911Y-28677449D01*
X34754138Y-28443240D01*
X34575103Y-28263892D01*
X34341063Y-28166710D01*
X34087649Y-28166489D01*
X33853440Y-28263262D01*
X33674092Y-28442297D01*
X33576910Y-28676337D01*
X33576689Y-28929751D01*
X32385000Y-28929751D01*
X32385000Y-27151751D01*
X37818489Y-27151751D01*
X37915262Y-27385960D01*
X38094297Y-27565308D01*
X38328337Y-27662490D01*
X38581751Y-27662711D01*
X38815960Y-27565938D01*
X38995308Y-27386903D01*
X39082404Y-27177151D01*
X46987889Y-27177151D01*
X47084662Y-27411360D01*
X47263697Y-27590708D01*
X47497737Y-27687890D01*
X47751151Y-27688111D01*
X47985360Y-27591338D01*
X48164708Y-27412303D01*
X48261890Y-27178263D01*
X48262111Y-26924849D01*
X48165338Y-26690640D01*
X47986303Y-26511292D01*
X47752263Y-26414110D01*
X47498849Y-26413889D01*
X47264640Y-26510662D01*
X47085292Y-26689697D01*
X46988110Y-26923737D01*
X46987889Y-27177151D01*
X39082404Y-27177151D01*
X39092490Y-27152863D01*
X39092711Y-26899449D01*
X38995938Y-26665240D01*
X38816903Y-26485892D01*
X38582863Y-26388710D01*
X38329449Y-26388489D01*
X38095240Y-26485262D01*
X37915892Y-26664297D01*
X37818710Y-26898337D01*
X37818489Y-27151751D01*
X32385000Y-27151751D01*
X32385000Y-25613744D01*
X37052611Y-25613744D01*
X37149384Y-25847953D01*
X37328419Y-26027301D01*
X37562459Y-26124483D01*
X37815873Y-26124704D01*
X38050082Y-26027931D01*
X38229430Y-25848896D01*
X38310710Y-25653151D01*
X46225889Y-25653151D01*
X46322662Y-25887360D01*
X46501697Y-26066708D01*
X46735737Y-26163890D01*
X46989151Y-26164111D01*
X47223360Y-26067338D01*
X47402708Y-25888303D01*
X47499890Y-25654263D01*
X47500111Y-25400849D01*
X47403338Y-25166640D01*
X47224303Y-24987292D01*
X46990263Y-24890110D01*
X46736849Y-24889889D01*
X46502640Y-24986662D01*
X46323292Y-25165697D01*
X46226110Y-25399737D01*
X46225889Y-25653151D01*
X38310710Y-25653151D01*
X38326612Y-25614856D01*
X38326833Y-25361442D01*
X38230060Y-25127233D01*
X38051025Y-24947885D01*
X37816985Y-24850703D01*
X37563571Y-24850482D01*
X37329362Y-24947255D01*
X37150014Y-25126290D01*
X37052832Y-25360330D01*
X37052611Y-25613744D01*
X32385000Y-25613744D01*
X32385000Y-23241000D01*
X50165000Y-23241000D01*
X50165000Y-62865000D01*
M02*
