G04 #@! TF.FileFunction,Legend,Bot*
%FSLAX46Y46*%
G04 Gerber Fmt 4.6, Leading zero omitted, Abs format (unit mm)*
G04 Created by KiCad (PCBNEW 4.0.4-stable) date 10/12/16 22:12:16*
%MOMM*%
%LPD*%
G01*
G04 APERTURE LIST*
%ADD10C,0.100000*%
%ADD11C,0.250000*%
%ADD12C,0.153000*%
%ADD13C,0.200000*%
G04 APERTURE END LIST*
D10*
D11*
X48314667Y-26614381D02*
X48648001Y-26138190D01*
X48886096Y-26614381D02*
X48886096Y-25614381D01*
X48505143Y-25614381D01*
X48409905Y-25662000D01*
X48362286Y-25709619D01*
X48314667Y-25804857D01*
X48314667Y-25947714D01*
X48362286Y-26042952D01*
X48409905Y-26090571D01*
X48505143Y-26138190D01*
X48886096Y-26138190D01*
X47886096Y-26090571D02*
X47552762Y-26090571D01*
X47409905Y-26614381D02*
X47886096Y-26614381D01*
X47886096Y-25614381D01*
X47409905Y-25614381D01*
X47124191Y-25614381D02*
X46790858Y-26614381D01*
X46457524Y-25614381D01*
X45409905Y-26328667D02*
X44933714Y-26328667D01*
X45505143Y-26614381D02*
X45171810Y-25614381D01*
X44838476Y-26614381D01*
X42457523Y-26614381D02*
X43028952Y-26614381D01*
X42743238Y-26614381D02*
X42743238Y-25614381D01*
X42838476Y-25757238D01*
X42933714Y-25852476D01*
X43028952Y-25900095D01*
X42076571Y-25709619D02*
X42028952Y-25662000D01*
X41933714Y-25614381D01*
X41695618Y-25614381D01*
X41600380Y-25662000D01*
X41552761Y-25709619D01*
X41505142Y-25804857D01*
X41505142Y-25900095D01*
X41552761Y-26042952D01*
X42124190Y-26614381D01*
X41505142Y-26614381D01*
X40124190Y-25614381D02*
X39933713Y-25614381D01*
X39838475Y-25662000D01*
X39743237Y-25757238D01*
X39695618Y-25947714D01*
X39695618Y-26281048D01*
X39743237Y-26471524D01*
X39838475Y-26566762D01*
X39933713Y-26614381D01*
X40124190Y-26614381D01*
X40219428Y-26566762D01*
X40314666Y-26471524D01*
X40362285Y-26281048D01*
X40362285Y-25947714D01*
X40314666Y-25757238D01*
X40219428Y-25662000D01*
X40124190Y-25614381D01*
X38695618Y-26519143D02*
X38743237Y-26566762D01*
X38886094Y-26614381D01*
X38981332Y-26614381D01*
X39124190Y-26566762D01*
X39219428Y-26471524D01*
X39267047Y-26376286D01*
X39314666Y-26185810D01*
X39314666Y-26042952D01*
X39267047Y-25852476D01*
X39219428Y-25757238D01*
X39124190Y-25662000D01*
X38981332Y-25614381D01*
X38886094Y-25614381D01*
X38743237Y-25662000D01*
X38695618Y-25709619D01*
X38409904Y-25614381D02*
X37838475Y-25614381D01*
X38124190Y-26614381D02*
X38124190Y-25614381D01*
X36790856Y-25709619D02*
X36743237Y-25662000D01*
X36647999Y-25614381D01*
X36409903Y-25614381D01*
X36314665Y-25662000D01*
X36267046Y-25709619D01*
X36219427Y-25804857D01*
X36219427Y-25900095D01*
X36267046Y-26042952D01*
X36838475Y-26614381D01*
X36219427Y-26614381D01*
X35600380Y-25614381D02*
X35505141Y-25614381D01*
X35409903Y-25662000D01*
X35362284Y-25709619D01*
X35314665Y-25804857D01*
X35267046Y-25995333D01*
X35267046Y-26233429D01*
X35314665Y-26423905D01*
X35362284Y-26519143D01*
X35409903Y-26566762D01*
X35505141Y-26614381D01*
X35600380Y-26614381D01*
X35695618Y-26566762D01*
X35743237Y-26519143D01*
X35790856Y-26423905D01*
X35838475Y-26233429D01*
X35838475Y-25995333D01*
X35790856Y-25804857D01*
X35743237Y-25709619D01*
X35695618Y-25662000D01*
X35600380Y-25614381D01*
X34314665Y-26614381D02*
X34886094Y-26614381D01*
X34600380Y-26614381D02*
X34600380Y-25614381D01*
X34695618Y-25757238D01*
X34790856Y-25852476D01*
X34886094Y-25900095D01*
X33457522Y-25614381D02*
X33647999Y-25614381D01*
X33743237Y-25662000D01*
X33790856Y-25709619D01*
X33886094Y-25852476D01*
X33933713Y-26042952D01*
X33933713Y-26423905D01*
X33886094Y-26519143D01*
X33838475Y-26566762D01*
X33743237Y-26614381D01*
X33552760Y-26614381D01*
X33457522Y-26566762D01*
X33409903Y-26519143D01*
X33362284Y-26423905D01*
X33362284Y-26185810D01*
X33409903Y-26090571D01*
X33457522Y-26042952D01*
X33552760Y-25995333D01*
X33743237Y-25995333D01*
X33838475Y-26042952D01*
X33886094Y-26090571D01*
X33933713Y-26185810D01*
X49148000Y-23836381D02*
X49624191Y-23836381D01*
X49671810Y-24312571D01*
X49624191Y-24264952D01*
X49528953Y-24217333D01*
X49290857Y-24217333D01*
X49195619Y-24264952D01*
X49148000Y-24312571D01*
X49100381Y-24407810D01*
X49100381Y-24645905D01*
X49148000Y-24741143D01*
X49195619Y-24788762D01*
X49290857Y-24836381D01*
X49528953Y-24836381D01*
X49624191Y-24788762D01*
X49671810Y-24741143D01*
X48814667Y-23836381D02*
X48481334Y-24836381D01*
X48148000Y-23836381D01*
X47100381Y-23788762D02*
X47957524Y-25074476D01*
X46243238Y-24836381D02*
X46814667Y-24836381D01*
X46528953Y-24836381D02*
X46528953Y-23836381D01*
X46624191Y-23979238D01*
X46719429Y-24074476D01*
X46814667Y-24122095D01*
X45862286Y-23931619D02*
X45814667Y-23884000D01*
X45719429Y-23836381D01*
X45481333Y-23836381D01*
X45386095Y-23884000D01*
X45338476Y-23931619D01*
X45290857Y-24026857D01*
X45290857Y-24122095D01*
X45338476Y-24264952D01*
X45909905Y-24836381D01*
X45290857Y-24836381D01*
X45005143Y-23836381D02*
X44671810Y-24836381D01*
X44338476Y-23836381D01*
X42767047Y-24836381D02*
X43243238Y-24836381D01*
X43243238Y-23836381D01*
X42433714Y-24312571D02*
X42100380Y-24312571D01*
X41957523Y-24836381D02*
X42433714Y-24836381D01*
X42433714Y-23836381D01*
X41957523Y-23836381D01*
X41671809Y-23836381D02*
X41338476Y-24836381D01*
X41005142Y-23836381D01*
X40671809Y-24312571D02*
X40338475Y-24312571D01*
X40195618Y-24836381D02*
X40671809Y-24836381D01*
X40671809Y-23836381D01*
X40195618Y-23836381D01*
X39290856Y-24836381D02*
X39767047Y-24836381D01*
X39767047Y-23836381D01*
X38243237Y-24788762D02*
X38100380Y-24836381D01*
X37862284Y-24836381D01*
X37767046Y-24788762D01*
X37719427Y-24741143D01*
X37671808Y-24645905D01*
X37671808Y-24550667D01*
X37719427Y-24455429D01*
X37767046Y-24407810D01*
X37862284Y-24360190D01*
X38052761Y-24312571D01*
X38147999Y-24264952D01*
X38195618Y-24217333D01*
X38243237Y-24122095D01*
X38243237Y-24026857D01*
X38195618Y-23931619D01*
X38147999Y-23884000D01*
X38052761Y-23836381D01*
X37814665Y-23836381D01*
X37671808Y-23884000D01*
X37243237Y-24836381D02*
X37243237Y-23836381D01*
X37243237Y-24312571D02*
X36671808Y-24312571D01*
X36671808Y-24836381D02*
X36671808Y-23836381D01*
X36195618Y-24836381D02*
X36195618Y-23836381D01*
X35386094Y-24312571D02*
X35719428Y-24312571D01*
X35719428Y-24836381D02*
X35719428Y-23836381D01*
X35243237Y-23836381D01*
X35005142Y-23836381D02*
X34433713Y-23836381D01*
X34719428Y-24836381D02*
X34719428Y-23836381D01*
X34100380Y-24312571D02*
X33767046Y-24312571D01*
X33624189Y-24836381D02*
X34100380Y-24836381D01*
X34100380Y-23836381D01*
X33624189Y-23836381D01*
X32624189Y-24836381D02*
X32957523Y-24360190D01*
X33195618Y-24836381D02*
X33195618Y-23836381D01*
X32814665Y-23836381D01*
X32719427Y-23884000D01*
X32671808Y-23931619D01*
X32624189Y-24026857D01*
X32624189Y-24169714D01*
X32671808Y-24264952D01*
X32719427Y-24312571D01*
X32814665Y-24360190D01*
X33195618Y-24360190D01*
D12*
X48560429Y-50682571D02*
X48529476Y-50589714D01*
X48498524Y-50558762D01*
X48436619Y-50527810D01*
X48343762Y-50527810D01*
X48281857Y-50558762D01*
X48250905Y-50589714D01*
X48219952Y-50651619D01*
X48219952Y-50899238D01*
X48869952Y-50899238D01*
X48869952Y-50682571D01*
X48839000Y-50620667D01*
X48808048Y-50589714D01*
X48746143Y-50558762D01*
X48684238Y-50558762D01*
X48622333Y-50589714D01*
X48591381Y-50620667D01*
X48560429Y-50682571D01*
X48560429Y-50899238D01*
X48405667Y-54740190D02*
X48405667Y-54430667D01*
X48219952Y-54802095D02*
X48869952Y-54585429D01*
X48219952Y-54368762D01*
D13*
X47498000Y-56642000D02*
X47498000Y-52832000D01*
X39624000Y-56642000D02*
X47498000Y-56642000D01*
X39878000Y-52832000D02*
X39624000Y-56642000D01*
X39878000Y-48768000D02*
X39878000Y-52832000D01*
X47498000Y-48768000D02*
X39878000Y-48768000D01*
X47498000Y-52832000D02*
X47498000Y-48768000D01*
X39878000Y-52832000D02*
X47498000Y-52832000D01*
D12*
X38709952Y-52008095D02*
X38059952Y-51791429D01*
X38709952Y-51574762D01*
X38059952Y-51358095D02*
X38709952Y-51358095D01*
X38709952Y-51203333D01*
X38679000Y-51110476D01*
X38617095Y-51048571D01*
X38555190Y-51017619D01*
X38431381Y-50986667D01*
X38338524Y-50986667D01*
X38214714Y-51017619D01*
X38152810Y-51048571D01*
X38090905Y-51110476D01*
X38059952Y-51203333D01*
X38059952Y-51358095D01*
X38059952Y-50708095D02*
X38709952Y-50708095D01*
X38709952Y-50553333D01*
X38679000Y-50460476D01*
X38617095Y-50398571D01*
X38555190Y-50367619D01*
X38431381Y-50336667D01*
X38338524Y-50336667D01*
X38214714Y-50367619D01*
X38152810Y-50398571D01*
X38090905Y-50460476D01*
X38059952Y-50553333D01*
X38059952Y-50708095D01*
X36139000Y-51574762D02*
X36169952Y-51636667D01*
X36169952Y-51729524D01*
X36139000Y-51822381D01*
X36077095Y-51884286D01*
X36015190Y-51915238D01*
X35891381Y-51946190D01*
X35798524Y-51946190D01*
X35674714Y-51915238D01*
X35612810Y-51884286D01*
X35550905Y-51822381D01*
X35519952Y-51729524D01*
X35519952Y-51667619D01*
X35550905Y-51574762D01*
X35581857Y-51543810D01*
X35798524Y-51543810D01*
X35798524Y-51667619D01*
X35519952Y-51265238D02*
X36169952Y-51265238D01*
X35519952Y-50893810D01*
X36169952Y-50893810D01*
X35519952Y-50584286D02*
X36169952Y-50584286D01*
X36169952Y-50429524D01*
X36139000Y-50336667D01*
X36077095Y-50274762D01*
X36015190Y-50243810D01*
X35891381Y-50212858D01*
X35798524Y-50212858D01*
X35674714Y-50243810D01*
X35612810Y-50274762D01*
X35550905Y-50336667D01*
X35519952Y-50429524D01*
X35519952Y-50584286D01*
X40599952Y-51915238D02*
X41249952Y-51915238D01*
X41280905Y-51141428D02*
X40445190Y-51698571D01*
X41249952Y-50800953D02*
X41249952Y-50677143D01*
X41219000Y-50615238D01*
X41157095Y-50553334D01*
X41033286Y-50522381D01*
X40816619Y-50522381D01*
X40692810Y-50553334D01*
X40630905Y-50615238D01*
X40599952Y-50677143D01*
X40599952Y-50800953D01*
X40630905Y-50862857D01*
X40692810Y-50924762D01*
X40816619Y-50955714D01*
X41033286Y-50955714D01*
X41157095Y-50924762D01*
X41219000Y-50862857D01*
X41249952Y-50800953D01*
X41249952Y-49934286D02*
X41249952Y-50243810D01*
X40940429Y-50274762D01*
X40971381Y-50243810D01*
X41002333Y-50181905D01*
X41002333Y-50027143D01*
X40971381Y-49965239D01*
X40940429Y-49934286D01*
X40878524Y-49903334D01*
X40723762Y-49903334D01*
X40661857Y-49934286D01*
X40630905Y-49965239D01*
X40599952Y-50027143D01*
X40599952Y-50181905D01*
X40630905Y-50243810D01*
X40661857Y-50274762D01*
X43393952Y-51915238D02*
X44043952Y-51915238D01*
X44074905Y-51141428D02*
X43239190Y-51698571D01*
X44043952Y-50800953D02*
X44043952Y-50677143D01*
X44013000Y-50615238D01*
X43951095Y-50553334D01*
X43827286Y-50522381D01*
X43610619Y-50522381D01*
X43486810Y-50553334D01*
X43424905Y-50615238D01*
X43393952Y-50677143D01*
X43393952Y-50800953D01*
X43424905Y-50862857D01*
X43486810Y-50924762D01*
X43610619Y-50955714D01*
X43827286Y-50955714D01*
X43951095Y-50924762D01*
X44013000Y-50862857D01*
X44043952Y-50800953D01*
X43393952Y-49903334D02*
X43393952Y-50274762D01*
X43393952Y-50089048D02*
X44043952Y-50089048D01*
X43951095Y-50150953D01*
X43889190Y-50212858D01*
X43858238Y-50274762D01*
X43982048Y-49655714D02*
X44013000Y-49624762D01*
X44043952Y-49562857D01*
X44043952Y-49408095D01*
X44013000Y-49346191D01*
X43982048Y-49315238D01*
X43920143Y-49284286D01*
X43858238Y-49284286D01*
X43765381Y-49315238D01*
X43393952Y-49686667D01*
X43393952Y-49284286D01*
X45710905Y-51946190D02*
X45679952Y-51853333D01*
X45679952Y-51698571D01*
X45710905Y-51636667D01*
X45741857Y-51605714D01*
X45803762Y-51574762D01*
X45865667Y-51574762D01*
X45927571Y-51605714D01*
X45958524Y-51636667D01*
X45989476Y-51698571D01*
X46020429Y-51822381D01*
X46051381Y-51884286D01*
X46082333Y-51915238D01*
X46144238Y-51946190D01*
X46206143Y-51946190D01*
X46268048Y-51915238D01*
X46299000Y-51884286D01*
X46329952Y-51822381D01*
X46329952Y-51667619D01*
X46299000Y-51574762D01*
X46329952Y-51358095D02*
X45679952Y-51203333D01*
X46144238Y-51079523D01*
X45679952Y-50955714D01*
X46329952Y-50800952D01*
X45710905Y-56264190D02*
X45679952Y-56171333D01*
X45679952Y-56016571D01*
X45710905Y-55954667D01*
X45741857Y-55923714D01*
X45803762Y-55892762D01*
X45865667Y-55892762D01*
X45927571Y-55923714D01*
X45958524Y-55954667D01*
X45989476Y-56016571D01*
X46020429Y-56140381D01*
X46051381Y-56202286D01*
X46082333Y-56233238D01*
X46144238Y-56264190D01*
X46206143Y-56264190D01*
X46268048Y-56233238D01*
X46299000Y-56202286D01*
X46329952Y-56140381D01*
X46329952Y-55985619D01*
X46299000Y-55892762D01*
X46329952Y-55676095D02*
X45679952Y-55521333D01*
X46144238Y-55397523D01*
X45679952Y-55273714D01*
X46329952Y-55118952D01*
X43393952Y-56233238D02*
X44043952Y-56233238D01*
X44074905Y-55459428D02*
X43239190Y-56016571D01*
X44043952Y-55118953D02*
X44043952Y-54995143D01*
X44013000Y-54933238D01*
X43951095Y-54871334D01*
X43827286Y-54840381D01*
X43610619Y-54840381D01*
X43486810Y-54871334D01*
X43424905Y-54933238D01*
X43393952Y-54995143D01*
X43393952Y-55118953D01*
X43424905Y-55180857D01*
X43486810Y-55242762D01*
X43610619Y-55273714D01*
X43827286Y-55273714D01*
X43951095Y-55242762D01*
X44013000Y-55180857D01*
X44043952Y-55118953D01*
X43393952Y-54221334D02*
X43393952Y-54592762D01*
X43393952Y-54407048D02*
X44043952Y-54407048D01*
X43951095Y-54468953D01*
X43889190Y-54530858D01*
X43858238Y-54592762D01*
X43982048Y-53973714D02*
X44013000Y-53942762D01*
X44043952Y-53880857D01*
X44043952Y-53726095D01*
X44013000Y-53664191D01*
X43982048Y-53633238D01*
X43920143Y-53602286D01*
X43858238Y-53602286D01*
X43765381Y-53633238D01*
X43393952Y-54004667D01*
X43393952Y-53602286D01*
X40599952Y-56233238D02*
X41249952Y-56233238D01*
X41280905Y-55459428D02*
X40445190Y-56016571D01*
X41249952Y-55118953D02*
X41249952Y-54995143D01*
X41219000Y-54933238D01*
X41157095Y-54871334D01*
X41033286Y-54840381D01*
X40816619Y-54840381D01*
X40692810Y-54871334D01*
X40630905Y-54933238D01*
X40599952Y-54995143D01*
X40599952Y-55118953D01*
X40630905Y-55180857D01*
X40692810Y-55242762D01*
X40816619Y-55273714D01*
X41033286Y-55273714D01*
X41157095Y-55242762D01*
X41219000Y-55180857D01*
X41249952Y-55118953D01*
X41249952Y-54252286D02*
X41249952Y-54561810D01*
X40940429Y-54592762D01*
X40971381Y-54561810D01*
X41002333Y-54499905D01*
X41002333Y-54345143D01*
X40971381Y-54283239D01*
X40940429Y-54252286D01*
X40878524Y-54221334D01*
X40723762Y-54221334D01*
X40661857Y-54252286D01*
X40630905Y-54283239D01*
X40599952Y-54345143D01*
X40599952Y-54499905D01*
X40630905Y-54561810D01*
X40661857Y-54592762D01*
X38679000Y-55892762D02*
X38709952Y-55954667D01*
X38709952Y-56047524D01*
X38679000Y-56140381D01*
X38617095Y-56202286D01*
X38555190Y-56233238D01*
X38431381Y-56264190D01*
X38338524Y-56264190D01*
X38214714Y-56233238D01*
X38152810Y-56202286D01*
X38090905Y-56140381D01*
X38059952Y-56047524D01*
X38059952Y-55985619D01*
X38090905Y-55892762D01*
X38121857Y-55861810D01*
X38338524Y-55861810D01*
X38338524Y-55985619D01*
X38059952Y-55583238D02*
X38709952Y-55583238D01*
X38059952Y-55211810D01*
X38709952Y-55211810D01*
X38059952Y-54902286D02*
X38709952Y-54902286D01*
X38709952Y-54747524D01*
X38679000Y-54654667D01*
X38617095Y-54592762D01*
X38555190Y-54561810D01*
X38431381Y-54530858D01*
X38338524Y-54530858D01*
X38214714Y-54561810D01*
X38152810Y-54592762D01*
X38090905Y-54654667D01*
X38059952Y-54747524D01*
X38059952Y-54902286D01*
X35767571Y-56233238D02*
X35767571Y-55738000D01*
X35519952Y-55985619D02*
X36015190Y-55985619D01*
X35519952Y-55088000D02*
X35519952Y-55459428D01*
X35519952Y-55273714D02*
X36169952Y-55273714D01*
X36077095Y-55335619D01*
X36015190Y-55397524D01*
X35984238Y-55459428D01*
X36108048Y-54840380D02*
X36139000Y-54809428D01*
X36169952Y-54747523D01*
X36169952Y-54592761D01*
X36139000Y-54530857D01*
X36108048Y-54499904D01*
X36046143Y-54468952D01*
X35984238Y-54468952D01*
X35891381Y-54499904D01*
X35519952Y-54871333D01*
X35519952Y-54468952D01*
M02*
