G04 #@! TF.FileFunction,Paste,Top*
%FSLAX46Y46*%
G04 Gerber Fmt 4.6, Leading zero omitted, Abs format (unit mm)*
G04 Created by KiCad (PCBNEW 4.0.4-stable) date 10/12/16 22:35:12*
%MOMM*%
%LPD*%
G01*
G04 APERTURE LIST*
%ADD10C,0.100000*%
%ADD11R,1.000000X1.600000*%
%ADD12R,0.600000X0.600000*%
%ADD13R,0.600000X0.400000*%
%ADD14R,0.400000X0.600000*%
%ADD15R,0.600000X1.500000*%
G04 APERTURE END LIST*
D10*
D11*
X40894000Y-34290000D03*
X37894000Y-34290000D03*
X42926000Y-34290000D03*
X45926000Y-34290000D03*
X39394000Y-55118000D03*
X42394000Y-55118000D03*
X36830000Y-55118000D03*
X33830000Y-55118000D03*
D12*
X37214400Y-46861600D03*
D13*
X37214400Y-47611600D03*
D12*
X37214400Y-48361600D03*
X39014400Y-48361600D03*
D13*
X39014400Y-47611600D03*
D12*
X39014400Y-46861600D03*
X47904400Y-48361600D03*
D13*
X47904400Y-47611600D03*
D12*
X47904400Y-46861600D03*
X46104400Y-46861600D03*
D13*
X46104400Y-47611600D03*
D12*
X46104400Y-48361600D03*
X37364400Y-51813600D03*
D14*
X38114400Y-51813600D03*
D12*
X38864400Y-51813600D03*
X38864400Y-50013600D03*
D14*
X38114400Y-50013600D03*
D12*
X37364400Y-50013600D03*
X47754400Y-50013600D03*
D14*
X47004400Y-50013600D03*
D12*
X46254400Y-50013600D03*
X46254400Y-51813600D03*
D14*
X47004400Y-51813600D03*
D12*
X47754400Y-51813600D03*
X33796400Y-50151600D03*
D13*
X33796400Y-50901600D03*
D12*
X33796400Y-51651600D03*
X35596400Y-51651600D03*
D13*
X35596400Y-50901600D03*
D12*
X35596400Y-50151600D03*
X44486400Y-51651600D03*
D13*
X44486400Y-50901600D03*
D12*
X44486400Y-50151600D03*
X42686400Y-50151600D03*
D13*
X42686400Y-50901600D03*
D12*
X42686400Y-51651600D03*
X33796400Y-46849600D03*
D13*
X33796400Y-47599600D03*
D12*
X33796400Y-48349600D03*
X35596400Y-48349600D03*
D13*
X35596400Y-47599600D03*
D12*
X35596400Y-46849600D03*
X44486400Y-48361600D03*
D13*
X44486400Y-47611600D03*
D12*
X44486400Y-46861600D03*
X42686400Y-46861600D03*
D13*
X42686400Y-47611600D03*
D12*
X42686400Y-48361600D03*
D15*
X36093400Y-42679600D03*
X37363400Y-42679600D03*
X38633400Y-42679600D03*
X39903400Y-42679600D03*
X41173400Y-42679600D03*
X42443400Y-42679600D03*
X43713400Y-42679600D03*
X44983400Y-42679600D03*
X44983400Y-37279600D03*
X43713400Y-37279600D03*
X42443400Y-37279600D03*
X41173400Y-37279600D03*
X39903400Y-37279600D03*
X38633400Y-37279600D03*
X37363400Y-37279600D03*
X36093400Y-37279600D03*
D12*
X35458400Y-30327600D03*
D13*
X35458400Y-29577600D03*
D12*
X35458400Y-28827600D03*
X33658400Y-28827600D03*
D13*
X33658400Y-29577600D03*
D12*
X33658400Y-30327600D03*
X42802400Y-28827600D03*
D13*
X42802400Y-29577600D03*
D12*
X42802400Y-30327600D03*
X44602400Y-30327600D03*
D13*
X44602400Y-29577600D03*
D12*
X44602400Y-28827600D03*
X35308400Y-25375600D03*
D14*
X34558400Y-25375600D03*
D12*
X33808400Y-25375600D03*
X33808400Y-27175600D03*
D14*
X34558400Y-27175600D03*
D12*
X35308400Y-27175600D03*
X42952400Y-27175600D03*
D14*
X43702400Y-27175600D03*
D12*
X44452400Y-27175600D03*
X44452400Y-25375600D03*
D14*
X43702400Y-25375600D03*
D12*
X42952400Y-25375600D03*
X39014400Y-27025600D03*
D13*
X39014400Y-26275600D03*
D12*
X39014400Y-25525600D03*
X37214400Y-25525600D03*
D13*
X37214400Y-26275600D03*
D12*
X37214400Y-27025600D03*
X46358400Y-25525600D03*
D13*
X46358400Y-26275600D03*
D12*
X46358400Y-27025600D03*
X48158400Y-27025600D03*
D13*
X48158400Y-26275600D03*
D12*
X48158400Y-25525600D03*
X39014400Y-30327600D03*
D13*
X39014400Y-29577600D03*
D12*
X39014400Y-28827600D03*
X37214400Y-28827600D03*
D13*
X37214400Y-29577600D03*
D12*
X37214400Y-30327600D03*
X46358400Y-28827600D03*
D13*
X46358400Y-29577600D03*
D12*
X46358400Y-30327600D03*
X48158400Y-30327600D03*
D13*
X48158400Y-29577600D03*
D12*
X48158400Y-28827600D03*
M02*
