G04 #@! TF.FileFunction,Copper,L2,Inr,Signal*
%FSLAX46Y46*%
G04 Gerber Fmt 4.6, Leading zero omitted, Abs format (unit mm)*
G04 Created by KiCad (PCBNEW 4.0.4-stable) date 10/12/16 22:12:16*
%MOMM*%
%LPD*%
G01*
G04 APERTURE LIST*
%ADD10C,0.100000*%
%ADD11R,1.727200X1.727200*%
%ADD12O,1.727200X1.727200*%
%ADD13C,0.620000*%
%ADD14C,0.254000*%
G04 APERTURE END LIST*
D10*
D11*
X45974000Y-58166000D03*
D12*
X45974000Y-60706000D03*
X43434000Y-58166000D03*
X43434000Y-60706000D03*
X40894000Y-58166000D03*
X40894000Y-60706000D03*
X38354000Y-58166000D03*
X38354000Y-60706000D03*
X35814000Y-58166000D03*
X35814000Y-60706000D03*
D13*
X40894000Y-35814000D03*
X46863000Y-25527000D03*
X47625000Y-27051000D03*
X34213800Y-28803600D03*
X34897412Y-30380564D03*
X43986403Y-51764283D03*
X43205400Y-50139600D03*
X38523911Y-48393207D03*
X37769800Y-46849600D03*
X42672000Y-56642000D03*
X32766000Y-55118000D03*
X46278800Y-35991800D03*
X38267200Y-35763200D03*
X40335200Y-38912800D03*
X39474757Y-30400643D03*
X48717200Y-30327600D03*
X46355000Y-28321000D03*
X42951400Y-26619200D03*
X44450000Y-25882600D03*
X37211000Y-28270200D03*
X33807400Y-26593800D03*
X35306000Y-25933400D03*
X42672000Y-46304200D03*
X44500800Y-48945800D03*
X46253400Y-51257200D03*
X47752000Y-50520600D03*
X33807400Y-46228000D03*
X35606409Y-49033630D03*
X37363400Y-51257200D03*
X38862000Y-50546000D03*
X42926000Y-35814000D03*
X44094400Y-30327600D03*
X43295256Y-28811554D03*
X37689722Y-25487593D03*
X38455600Y-27025600D03*
X46616022Y-46833415D03*
X47396400Y-48361600D03*
X35052000Y-51663600D03*
X34340800Y-50139600D03*
X45897800Y-45415200D03*
X45897800Y-42672000D03*
X40792400Y-53289200D03*
X44597601Y-53293999D03*
D14*
G36*
X50165000Y-62865000D02*
X32385000Y-62865000D01*
X32385000Y-60682675D01*
X34623400Y-60682675D01*
X34623400Y-60729325D01*
X34714029Y-61184948D01*
X34972119Y-61571206D01*
X35358377Y-61829296D01*
X35814000Y-61919925D01*
X36269623Y-61829296D01*
X36655881Y-61571206D01*
X36913971Y-61184948D01*
X37004600Y-60729325D01*
X37004600Y-60682675D01*
X36913971Y-60227052D01*
X36655881Y-59840794D01*
X36269623Y-59582704D01*
X35814000Y-59492075D01*
X35358377Y-59582704D01*
X34972119Y-59840794D01*
X34714029Y-60227052D01*
X34623400Y-60682675D01*
X32385000Y-60682675D01*
X32385000Y-58142675D01*
X34623400Y-58142675D01*
X34623400Y-58189325D01*
X34714029Y-58644948D01*
X34972119Y-59031206D01*
X35358377Y-59289296D01*
X35814000Y-59379925D01*
X36269623Y-59289296D01*
X36655881Y-59031206D01*
X36913971Y-58644948D01*
X36926266Y-58583136D01*
X37147179Y-59054490D01*
X37579053Y-59448688D01*
X37901240Y-59582134D01*
X37898377Y-59582704D01*
X37512119Y-59840794D01*
X37254029Y-60227052D01*
X37163400Y-60682675D01*
X37163400Y-60729325D01*
X37254029Y-61184948D01*
X37512119Y-61571206D01*
X37898377Y-61829296D01*
X38354000Y-61919925D01*
X38809623Y-61829296D01*
X39195881Y-61571206D01*
X39453971Y-61184948D01*
X39544600Y-60729325D01*
X39544600Y-60682675D01*
X39703400Y-60682675D01*
X39703400Y-60729325D01*
X39794029Y-61184948D01*
X40052119Y-61571206D01*
X40438377Y-61829296D01*
X40894000Y-61919925D01*
X41349623Y-61829296D01*
X41735881Y-61571206D01*
X41993971Y-61184948D01*
X42084600Y-60729325D01*
X42084600Y-60682675D01*
X42243400Y-60682675D01*
X42243400Y-60729325D01*
X42334029Y-61184948D01*
X42592119Y-61571206D01*
X42978377Y-61829296D01*
X43434000Y-61919925D01*
X43889623Y-61829296D01*
X44275881Y-61571206D01*
X44533971Y-61184948D01*
X44624600Y-60729325D01*
X44624600Y-60682675D01*
X44783400Y-60682675D01*
X44783400Y-60729325D01*
X44874029Y-61184948D01*
X45132119Y-61571206D01*
X45518377Y-61829296D01*
X45974000Y-61919925D01*
X46429623Y-61829296D01*
X46815881Y-61571206D01*
X47073971Y-61184948D01*
X47164600Y-60729325D01*
X47164600Y-60682675D01*
X47073971Y-60227052D01*
X46815881Y-59840794D01*
X46429623Y-59582704D01*
X45974000Y-59492075D01*
X45518377Y-59582704D01*
X45132119Y-59840794D01*
X44874029Y-60227052D01*
X44783400Y-60682675D01*
X44624600Y-60682675D01*
X44533971Y-60227052D01*
X44275881Y-59840794D01*
X43889623Y-59582704D01*
X43434000Y-59492075D01*
X42978377Y-59582704D01*
X42592119Y-59840794D01*
X42334029Y-60227052D01*
X42243400Y-60682675D01*
X42084600Y-60682675D01*
X41993971Y-60227052D01*
X41735881Y-59840794D01*
X41349623Y-59582704D01*
X40894000Y-59492075D01*
X40438377Y-59582704D01*
X40052119Y-59840794D01*
X39794029Y-60227052D01*
X39703400Y-60682675D01*
X39544600Y-60682675D01*
X39453971Y-60227052D01*
X39195881Y-59840794D01*
X38809623Y-59582704D01*
X38806760Y-59582134D01*
X39128947Y-59448688D01*
X39560821Y-59054490D01*
X39781734Y-58583136D01*
X39794029Y-58644948D01*
X40052119Y-59031206D01*
X40438377Y-59289296D01*
X40894000Y-59379925D01*
X41349623Y-59289296D01*
X41735881Y-59031206D01*
X41993971Y-58644948D01*
X42084600Y-58189325D01*
X42084600Y-58142675D01*
X41993971Y-57687052D01*
X41735881Y-57300794D01*
X41349623Y-57042704D01*
X40894000Y-56952075D01*
X40438377Y-57042704D01*
X40052119Y-57300794D01*
X39794029Y-57687052D01*
X39781734Y-57748864D01*
X39560821Y-57277510D01*
X39128947Y-56883312D01*
X38850908Y-56768151D01*
X42034889Y-56768151D01*
X42131662Y-57002360D01*
X42310697Y-57181708D01*
X42544737Y-57278890D01*
X42624796Y-57278960D01*
X42592119Y-57300794D01*
X42334029Y-57687052D01*
X42243400Y-58142675D01*
X42243400Y-58189325D01*
X42334029Y-58644948D01*
X42592119Y-59031206D01*
X42978377Y-59289296D01*
X43434000Y-59379925D01*
X43889623Y-59289296D01*
X44275881Y-59031206D01*
X44533971Y-58644948D01*
X44624600Y-58189325D01*
X44624600Y-58142675D01*
X44533971Y-57687052D01*
X44276955Y-57302400D01*
X44776994Y-57302400D01*
X44776994Y-59029600D01*
X44799795Y-59150779D01*
X44871412Y-59262074D01*
X44980686Y-59336738D01*
X45110400Y-59363006D01*
X46837600Y-59363006D01*
X46958779Y-59340205D01*
X47070074Y-59268588D01*
X47144738Y-59159314D01*
X47171006Y-59029600D01*
X47171006Y-57302400D01*
X47148205Y-57181221D01*
X47076588Y-57069926D01*
X46967314Y-56995262D01*
X46837600Y-56968994D01*
X45110400Y-56968994D01*
X44989221Y-56991795D01*
X44877926Y-57063412D01*
X44803262Y-57172686D01*
X44776994Y-57302400D01*
X44276955Y-57302400D01*
X44275881Y-57300794D01*
X43889623Y-57042704D01*
X43434000Y-56952075D01*
X43214882Y-56995660D01*
X43308890Y-56769263D01*
X43309111Y-56515849D01*
X43212338Y-56281640D01*
X43033303Y-56102292D01*
X42799263Y-56005110D01*
X42545849Y-56004889D01*
X42311640Y-56101662D01*
X42132292Y-56280697D01*
X42035110Y-56514737D01*
X42034889Y-56768151D01*
X38850908Y-56768151D01*
X38713026Y-56711042D01*
X38481000Y-56832183D01*
X38481000Y-58039000D01*
X38501000Y-58039000D01*
X38501000Y-58293000D01*
X38481000Y-58293000D01*
X38481000Y-58313000D01*
X38227000Y-58313000D01*
X38227000Y-58293000D01*
X38207000Y-58293000D01*
X38207000Y-58039000D01*
X38227000Y-58039000D01*
X38227000Y-56832183D01*
X37994974Y-56711042D01*
X37579053Y-56883312D01*
X37147179Y-57277510D01*
X36926266Y-57748864D01*
X36913971Y-57687052D01*
X36655881Y-57300794D01*
X36269623Y-57042704D01*
X35814000Y-56952075D01*
X35358377Y-57042704D01*
X34972119Y-57300794D01*
X34714029Y-57687052D01*
X34623400Y-58142675D01*
X32385000Y-58142675D01*
X32385000Y-55637977D01*
X32404697Y-55657708D01*
X32638737Y-55754890D01*
X32892151Y-55755111D01*
X33126360Y-55658338D01*
X33305708Y-55479303D01*
X33402890Y-55245263D01*
X33403111Y-54991849D01*
X33306338Y-54757640D01*
X33127303Y-54578292D01*
X32893263Y-54481110D01*
X32639849Y-54480889D01*
X32405640Y-54577662D01*
X32385000Y-54598266D01*
X32385000Y-53415351D01*
X40155289Y-53415351D01*
X40252062Y-53649560D01*
X40431097Y-53828908D01*
X40665137Y-53926090D01*
X40918551Y-53926311D01*
X41152760Y-53829538D01*
X41332108Y-53650503D01*
X41427759Y-53420150D01*
X43960490Y-53420150D01*
X44057263Y-53654359D01*
X44236298Y-53833707D01*
X44470338Y-53930889D01*
X44723752Y-53931110D01*
X44957961Y-53834337D01*
X45137309Y-53655302D01*
X45234491Y-53421262D01*
X45234712Y-53167848D01*
X45137939Y-52933639D01*
X44958904Y-52754291D01*
X44724864Y-52657109D01*
X44471450Y-52656888D01*
X44237241Y-52753661D01*
X44057893Y-52932696D01*
X43960711Y-53166736D01*
X43960490Y-53420150D01*
X41427759Y-53420150D01*
X41429290Y-53416463D01*
X41429511Y-53163049D01*
X41332738Y-52928840D01*
X41153703Y-52749492D01*
X40919663Y-52652310D01*
X40666249Y-52652089D01*
X40432040Y-52748862D01*
X40252692Y-52927897D01*
X40155510Y-53161937D01*
X40155289Y-53415351D01*
X32385000Y-53415351D01*
X32385000Y-51789751D01*
X34414889Y-51789751D01*
X34511662Y-52023960D01*
X34690697Y-52203308D01*
X34924737Y-52300490D01*
X35178151Y-52300711D01*
X35412360Y-52203938D01*
X35591708Y-52024903D01*
X35688890Y-51790863D01*
X35689111Y-51537449D01*
X35625440Y-51383351D01*
X36726289Y-51383351D01*
X36823062Y-51617560D01*
X37002097Y-51796908D01*
X37236137Y-51894090D01*
X37489551Y-51894311D01*
X37723760Y-51797538D01*
X37903108Y-51618503D01*
X38000290Y-51384463D01*
X38000290Y-51383351D01*
X45616289Y-51383351D01*
X45713062Y-51617560D01*
X45892097Y-51796908D01*
X46126137Y-51894090D01*
X46379551Y-51894311D01*
X46613760Y-51797538D01*
X46793108Y-51618503D01*
X46890290Y-51384463D01*
X46890511Y-51131049D01*
X46793738Y-50896840D01*
X46614703Y-50717492D01*
X46444340Y-50646751D01*
X47114889Y-50646751D01*
X47211662Y-50880960D01*
X47390697Y-51060308D01*
X47624737Y-51157490D01*
X47878151Y-51157711D01*
X48112360Y-51060938D01*
X48291708Y-50881903D01*
X48388890Y-50647863D01*
X48389111Y-50394449D01*
X48292338Y-50160240D01*
X48113303Y-49980892D01*
X47879263Y-49883710D01*
X47625849Y-49883489D01*
X47391640Y-49980262D01*
X47212292Y-50159297D01*
X47115110Y-50393337D01*
X47114889Y-50646751D01*
X46444340Y-50646751D01*
X46380663Y-50620310D01*
X46127249Y-50620089D01*
X45893040Y-50716862D01*
X45713692Y-50895897D01*
X45616510Y-51129937D01*
X45616289Y-51383351D01*
X38000290Y-51383351D01*
X38000511Y-51131049D01*
X37903738Y-50896840D01*
X37724703Y-50717492D01*
X37615510Y-50672151D01*
X38224889Y-50672151D01*
X38321662Y-50906360D01*
X38500697Y-51085708D01*
X38734737Y-51182890D01*
X38988151Y-51183111D01*
X39222360Y-51086338D01*
X39401708Y-50907303D01*
X39498890Y-50673263D01*
X39499111Y-50419849D01*
X39402338Y-50185640D01*
X39223303Y-50006292D01*
X38989263Y-49909110D01*
X38735849Y-49908889D01*
X38501640Y-50005662D01*
X38322292Y-50184697D01*
X38225110Y-50418737D01*
X38224889Y-50672151D01*
X37615510Y-50672151D01*
X37490663Y-50620310D01*
X37237249Y-50620089D01*
X37003040Y-50716862D01*
X36823692Y-50895897D01*
X36726510Y-51129937D01*
X36726289Y-51383351D01*
X35625440Y-51383351D01*
X35592338Y-51303240D01*
X35413303Y-51123892D01*
X35179263Y-51026710D01*
X34925849Y-51026489D01*
X34691640Y-51123262D01*
X34512292Y-51302297D01*
X34415110Y-51536337D01*
X34414889Y-51789751D01*
X32385000Y-51789751D01*
X32385000Y-50265751D01*
X33703689Y-50265751D01*
X33800462Y-50499960D01*
X33979497Y-50679308D01*
X34213537Y-50776490D01*
X34466951Y-50776711D01*
X34701160Y-50679938D01*
X34880508Y-50500903D01*
X34977690Y-50266863D01*
X34977911Y-50013449D01*
X34881138Y-49779240D01*
X34702103Y-49599892D01*
X34468063Y-49502710D01*
X34214649Y-49502489D01*
X33980440Y-49599262D01*
X33801092Y-49778297D01*
X33703910Y-50012337D01*
X33703689Y-50265751D01*
X32385000Y-50265751D01*
X32385000Y-49159781D01*
X34969298Y-49159781D01*
X35066071Y-49393990D01*
X35245106Y-49573338D01*
X35479146Y-49670520D01*
X35732560Y-49670741D01*
X35966769Y-49573968D01*
X36146117Y-49394933D01*
X36243299Y-49160893D01*
X36243376Y-49071951D01*
X43863689Y-49071951D01*
X43960462Y-49306160D01*
X44139497Y-49485508D01*
X44373537Y-49582690D01*
X44626951Y-49582911D01*
X44861160Y-49486138D01*
X45040508Y-49307103D01*
X45137690Y-49073063D01*
X45137911Y-48819649D01*
X45041138Y-48585440D01*
X44943620Y-48487751D01*
X46759289Y-48487751D01*
X46856062Y-48721960D01*
X47035097Y-48901308D01*
X47269137Y-48998490D01*
X47522551Y-48998711D01*
X47756760Y-48901938D01*
X47936108Y-48722903D01*
X48033290Y-48488863D01*
X48033511Y-48235449D01*
X47936738Y-48001240D01*
X47757703Y-47821892D01*
X47523663Y-47724710D01*
X47270249Y-47724489D01*
X47036040Y-47821262D01*
X46856692Y-48000297D01*
X46759510Y-48234337D01*
X46759289Y-48487751D01*
X44943620Y-48487751D01*
X44862103Y-48406092D01*
X44628063Y-48308910D01*
X44374649Y-48308689D01*
X44140440Y-48405462D01*
X43961092Y-48584497D01*
X43863910Y-48818537D01*
X43863689Y-49071951D01*
X36243376Y-49071951D01*
X36243520Y-48907479D01*
X36146747Y-48673270D01*
X35967712Y-48493922D01*
X35733672Y-48396740D01*
X35480258Y-48396519D01*
X35246049Y-48493292D01*
X35066701Y-48672327D01*
X34969519Y-48906367D01*
X34969298Y-49159781D01*
X32385000Y-49159781D01*
X32385000Y-46959566D01*
X45978911Y-46959566D01*
X46075684Y-47193775D01*
X46254719Y-47373123D01*
X46488759Y-47470305D01*
X46742173Y-47470526D01*
X46976382Y-47373753D01*
X47155730Y-47194718D01*
X47252912Y-46960678D01*
X47253133Y-46707264D01*
X47156360Y-46473055D01*
X46977325Y-46293707D01*
X46743285Y-46196525D01*
X46489871Y-46196304D01*
X46255662Y-46293077D01*
X46076314Y-46472112D01*
X45979132Y-46706152D01*
X45978911Y-46959566D01*
X32385000Y-46959566D01*
X32385000Y-46354151D01*
X33170289Y-46354151D01*
X33267062Y-46588360D01*
X33446097Y-46767708D01*
X33680137Y-46864890D01*
X33933551Y-46865111D01*
X34167760Y-46768338D01*
X34347108Y-46589303D01*
X34413110Y-46430351D01*
X42034889Y-46430351D01*
X42131662Y-46664560D01*
X42310697Y-46843908D01*
X42544737Y-46941090D01*
X42798151Y-46941311D01*
X43032360Y-46844538D01*
X43211708Y-46665503D01*
X43308890Y-46431463D01*
X43309111Y-46178049D01*
X43212338Y-45943840D01*
X43033303Y-45764492D01*
X42799263Y-45667310D01*
X42545849Y-45667089D01*
X42311640Y-45763862D01*
X42132292Y-45942897D01*
X42035110Y-46176937D01*
X42034889Y-46430351D01*
X34413110Y-46430351D01*
X34444290Y-46355263D01*
X34444511Y-46101849D01*
X34347738Y-45867640D01*
X34168703Y-45688292D01*
X33934663Y-45591110D01*
X33681249Y-45590889D01*
X33447040Y-45687662D01*
X33267692Y-45866697D01*
X33170510Y-46100737D01*
X33170289Y-46354151D01*
X32385000Y-46354151D01*
X32385000Y-45541351D01*
X45260689Y-45541351D01*
X45357462Y-45775560D01*
X45536497Y-45954908D01*
X45770537Y-46052090D01*
X46023951Y-46052311D01*
X46258160Y-45955538D01*
X46437508Y-45776503D01*
X46534690Y-45542463D01*
X46534911Y-45289049D01*
X46438138Y-45054840D01*
X46259103Y-44875492D01*
X46025063Y-44778310D01*
X45771649Y-44778089D01*
X45537440Y-44874862D01*
X45358092Y-45053897D01*
X45260910Y-45287937D01*
X45260689Y-45541351D01*
X32385000Y-45541351D01*
X32385000Y-42798151D01*
X45260689Y-42798151D01*
X45357462Y-43032360D01*
X45536497Y-43211708D01*
X45770537Y-43308890D01*
X46023951Y-43309111D01*
X46258160Y-43212338D01*
X46437508Y-43033303D01*
X46534690Y-42799263D01*
X46534911Y-42545849D01*
X46438138Y-42311640D01*
X46259103Y-42132292D01*
X46025063Y-42035110D01*
X45771649Y-42034889D01*
X45537440Y-42131662D01*
X45358092Y-42310697D01*
X45260910Y-42544737D01*
X45260689Y-42798151D01*
X32385000Y-42798151D01*
X32385000Y-39038951D01*
X39698089Y-39038951D01*
X39794862Y-39273160D01*
X39973897Y-39452508D01*
X40207937Y-39549690D01*
X40461351Y-39549911D01*
X40695560Y-39453138D01*
X40874908Y-39274103D01*
X40972090Y-39040063D01*
X40972311Y-38786649D01*
X40875538Y-38552440D01*
X40696503Y-38373092D01*
X40462463Y-38275910D01*
X40209049Y-38275689D01*
X39974840Y-38372462D01*
X39795492Y-38551497D01*
X39698310Y-38785537D01*
X39698089Y-39038951D01*
X32385000Y-39038951D01*
X32385000Y-35889351D01*
X37630089Y-35889351D01*
X37726862Y-36123560D01*
X37905897Y-36302908D01*
X38139937Y-36400090D01*
X38393351Y-36400311D01*
X38627560Y-36303538D01*
X38806908Y-36124503D01*
X38883457Y-35940151D01*
X42288889Y-35940151D01*
X42385662Y-36174360D01*
X42564697Y-36353708D01*
X42798737Y-36450890D01*
X43052151Y-36451111D01*
X43286360Y-36354338D01*
X43465708Y-36175303D01*
X43489522Y-36117951D01*
X45641689Y-36117951D01*
X45738462Y-36352160D01*
X45917497Y-36531508D01*
X46151537Y-36628690D01*
X46404951Y-36628911D01*
X46639160Y-36532138D01*
X46818508Y-36353103D01*
X46915690Y-36119063D01*
X46915911Y-35865649D01*
X46819138Y-35631440D01*
X46640103Y-35452092D01*
X46406063Y-35354910D01*
X46152649Y-35354689D01*
X45918440Y-35451462D01*
X45739092Y-35630497D01*
X45641910Y-35864537D01*
X45641689Y-36117951D01*
X43489522Y-36117951D01*
X43562890Y-35941263D01*
X43563111Y-35687849D01*
X43466338Y-35453640D01*
X43287303Y-35274292D01*
X43053263Y-35177110D01*
X42799849Y-35176889D01*
X42565640Y-35273662D01*
X42386292Y-35452697D01*
X42289110Y-35686737D01*
X42288889Y-35940151D01*
X38883457Y-35940151D01*
X38904090Y-35890463D01*
X38904311Y-35637049D01*
X38807538Y-35402840D01*
X38628503Y-35223492D01*
X38394463Y-35126310D01*
X38141049Y-35126089D01*
X37906840Y-35222862D01*
X37727492Y-35401897D01*
X37630310Y-35635937D01*
X37630089Y-35889351D01*
X32385000Y-35889351D01*
X32385000Y-30526794D01*
X38837646Y-30526794D01*
X38934419Y-30761003D01*
X39113454Y-30940351D01*
X39347494Y-31037533D01*
X39600908Y-31037754D01*
X39835117Y-30940981D01*
X40014465Y-30761946D01*
X40111647Y-30527906D01*
X40111711Y-30453751D01*
X43457289Y-30453751D01*
X43554062Y-30687960D01*
X43733097Y-30867308D01*
X43967137Y-30964490D01*
X44220551Y-30964711D01*
X44454760Y-30867938D01*
X44634108Y-30688903D01*
X44731290Y-30454863D01*
X44731290Y-30453751D01*
X48080089Y-30453751D01*
X48176862Y-30687960D01*
X48355897Y-30867308D01*
X48589937Y-30964490D01*
X48843351Y-30964711D01*
X49077560Y-30867938D01*
X49256908Y-30688903D01*
X49354090Y-30454863D01*
X49354311Y-30201449D01*
X49257538Y-29967240D01*
X49078503Y-29787892D01*
X48844463Y-29690710D01*
X48591049Y-29690489D01*
X48356840Y-29787262D01*
X48177492Y-29966297D01*
X48080310Y-30200337D01*
X48080089Y-30453751D01*
X44731290Y-30453751D01*
X44731511Y-30201449D01*
X44634738Y-29967240D01*
X44455703Y-29787892D01*
X44221663Y-29690710D01*
X43968249Y-29690489D01*
X43734040Y-29787262D01*
X43554692Y-29966297D01*
X43457510Y-30200337D01*
X43457289Y-30453751D01*
X40111711Y-30453751D01*
X40111868Y-30274492D01*
X40015095Y-30040283D01*
X39836060Y-29860935D01*
X39602020Y-29763753D01*
X39348606Y-29763532D01*
X39114397Y-29860305D01*
X38935049Y-30039340D01*
X38837867Y-30273380D01*
X38837646Y-30526794D01*
X32385000Y-30526794D01*
X32385000Y-28937705D01*
X42658145Y-28937705D01*
X42754918Y-29171914D01*
X42933953Y-29351262D01*
X43167993Y-29448444D01*
X43421407Y-29448665D01*
X43655616Y-29351892D01*
X43834964Y-29172857D01*
X43932146Y-28938817D01*
X43932367Y-28685403D01*
X43835594Y-28451194D01*
X43831559Y-28447151D01*
X45717889Y-28447151D01*
X45814662Y-28681360D01*
X45993697Y-28860708D01*
X46227737Y-28957890D01*
X46481151Y-28958111D01*
X46715360Y-28861338D01*
X46894708Y-28682303D01*
X46991890Y-28448263D01*
X46992111Y-28194849D01*
X46895338Y-27960640D01*
X46716303Y-27781292D01*
X46482263Y-27684110D01*
X46228849Y-27683889D01*
X45994640Y-27780662D01*
X45815292Y-27959697D01*
X45718110Y-28193737D01*
X45717889Y-28447151D01*
X43831559Y-28447151D01*
X43656559Y-28271846D01*
X43422519Y-28174664D01*
X43169105Y-28174443D01*
X42934896Y-28271216D01*
X42755548Y-28450251D01*
X42658366Y-28684291D01*
X42658145Y-28937705D01*
X32385000Y-28937705D01*
X32385000Y-28396351D01*
X36573889Y-28396351D01*
X36670662Y-28630560D01*
X36849697Y-28809908D01*
X37083737Y-28907090D01*
X37337151Y-28907311D01*
X37571360Y-28810538D01*
X37750708Y-28631503D01*
X37847890Y-28397463D01*
X37848111Y-28144049D01*
X37751338Y-27909840D01*
X37572303Y-27730492D01*
X37338263Y-27633310D01*
X37084849Y-27633089D01*
X36850640Y-27729862D01*
X36671292Y-27908897D01*
X36574110Y-28142937D01*
X36573889Y-28396351D01*
X32385000Y-28396351D01*
X32385000Y-26719951D01*
X33170289Y-26719951D01*
X33267062Y-26954160D01*
X33446097Y-27133508D01*
X33680137Y-27230690D01*
X33933551Y-27230911D01*
X34125133Y-27151751D01*
X37818489Y-27151751D01*
X37915262Y-27385960D01*
X38094297Y-27565308D01*
X38328337Y-27662490D01*
X38581751Y-27662711D01*
X38815960Y-27565938D01*
X38995308Y-27386903D01*
X39092490Y-27152863D01*
X39092711Y-26899449D01*
X39029040Y-26745351D01*
X42314289Y-26745351D01*
X42411062Y-26979560D01*
X42590097Y-27158908D01*
X42824137Y-27256090D01*
X43077551Y-27256311D01*
X43311760Y-27159538D01*
X43491108Y-26980503D01*
X43588290Y-26746463D01*
X43588511Y-26493049D01*
X43491738Y-26258840D01*
X43312703Y-26079492D01*
X43142340Y-26008751D01*
X43812889Y-26008751D01*
X43909662Y-26242960D01*
X44088697Y-26422308D01*
X44322737Y-26519490D01*
X44576151Y-26519711D01*
X44810360Y-26422938D01*
X44989708Y-26243903D01*
X45086890Y-26009863D01*
X45087111Y-25756449D01*
X44990338Y-25522240D01*
X44811303Y-25342892D01*
X44577263Y-25245710D01*
X44323849Y-25245489D01*
X44089640Y-25342262D01*
X43910292Y-25521297D01*
X43813110Y-25755337D01*
X43812889Y-26008751D01*
X43142340Y-26008751D01*
X43078663Y-25982310D01*
X42825249Y-25982089D01*
X42591040Y-26078862D01*
X42411692Y-26257897D01*
X42314510Y-26491937D01*
X42314289Y-26745351D01*
X39029040Y-26745351D01*
X38995938Y-26665240D01*
X38816903Y-26485892D01*
X38582863Y-26388710D01*
X38329449Y-26388489D01*
X38095240Y-26485262D01*
X37915892Y-26664297D01*
X37818710Y-26898337D01*
X37818489Y-27151751D01*
X34125133Y-27151751D01*
X34167760Y-27134138D01*
X34347108Y-26955103D01*
X34444290Y-26721063D01*
X34444511Y-26467649D01*
X34347738Y-26233440D01*
X34174153Y-26059551D01*
X34668889Y-26059551D01*
X34765662Y-26293760D01*
X34944697Y-26473108D01*
X35178737Y-26570290D01*
X35432151Y-26570511D01*
X35666360Y-26473738D01*
X35845708Y-26294703D01*
X35942890Y-26060663D01*
X35943111Y-25807249D01*
X35863157Y-25613744D01*
X37052611Y-25613744D01*
X37149384Y-25847953D01*
X37328419Y-26027301D01*
X37562459Y-26124483D01*
X37815873Y-26124704D01*
X38050082Y-26027931D01*
X38229430Y-25848896D01*
X38326612Y-25614856D01*
X38326833Y-25361442D01*
X38230060Y-25127233D01*
X38051025Y-24947885D01*
X37816985Y-24850703D01*
X37563571Y-24850482D01*
X37329362Y-24947255D01*
X37150014Y-25126290D01*
X37052832Y-25360330D01*
X37052611Y-25613744D01*
X35863157Y-25613744D01*
X35846338Y-25573040D01*
X35667303Y-25393692D01*
X35433263Y-25296510D01*
X35179849Y-25296289D01*
X34945640Y-25393062D01*
X34766292Y-25572097D01*
X34669110Y-25806137D01*
X34668889Y-26059551D01*
X34174153Y-26059551D01*
X34168703Y-26054092D01*
X33934663Y-25956910D01*
X33681249Y-25956689D01*
X33447040Y-26053462D01*
X33267692Y-26232497D01*
X33170510Y-26466537D01*
X33170289Y-26719951D01*
X32385000Y-26719951D01*
X32385000Y-23241000D01*
X50165000Y-23241000D01*
X50165000Y-62865000D01*
X50165000Y-62865000D01*
G37*
X50165000Y-62865000D02*
X32385000Y-62865000D01*
X32385000Y-60682675D01*
X34623400Y-60682675D01*
X34623400Y-60729325D01*
X34714029Y-61184948D01*
X34972119Y-61571206D01*
X35358377Y-61829296D01*
X35814000Y-61919925D01*
X36269623Y-61829296D01*
X36655881Y-61571206D01*
X36913971Y-61184948D01*
X37004600Y-60729325D01*
X37004600Y-60682675D01*
X36913971Y-60227052D01*
X36655881Y-59840794D01*
X36269623Y-59582704D01*
X35814000Y-59492075D01*
X35358377Y-59582704D01*
X34972119Y-59840794D01*
X34714029Y-60227052D01*
X34623400Y-60682675D01*
X32385000Y-60682675D01*
X32385000Y-58142675D01*
X34623400Y-58142675D01*
X34623400Y-58189325D01*
X34714029Y-58644948D01*
X34972119Y-59031206D01*
X35358377Y-59289296D01*
X35814000Y-59379925D01*
X36269623Y-59289296D01*
X36655881Y-59031206D01*
X36913971Y-58644948D01*
X36926266Y-58583136D01*
X37147179Y-59054490D01*
X37579053Y-59448688D01*
X37901240Y-59582134D01*
X37898377Y-59582704D01*
X37512119Y-59840794D01*
X37254029Y-60227052D01*
X37163400Y-60682675D01*
X37163400Y-60729325D01*
X37254029Y-61184948D01*
X37512119Y-61571206D01*
X37898377Y-61829296D01*
X38354000Y-61919925D01*
X38809623Y-61829296D01*
X39195881Y-61571206D01*
X39453971Y-61184948D01*
X39544600Y-60729325D01*
X39544600Y-60682675D01*
X39703400Y-60682675D01*
X39703400Y-60729325D01*
X39794029Y-61184948D01*
X40052119Y-61571206D01*
X40438377Y-61829296D01*
X40894000Y-61919925D01*
X41349623Y-61829296D01*
X41735881Y-61571206D01*
X41993971Y-61184948D01*
X42084600Y-60729325D01*
X42084600Y-60682675D01*
X42243400Y-60682675D01*
X42243400Y-60729325D01*
X42334029Y-61184948D01*
X42592119Y-61571206D01*
X42978377Y-61829296D01*
X43434000Y-61919925D01*
X43889623Y-61829296D01*
X44275881Y-61571206D01*
X44533971Y-61184948D01*
X44624600Y-60729325D01*
X44624600Y-60682675D01*
X44783400Y-60682675D01*
X44783400Y-60729325D01*
X44874029Y-61184948D01*
X45132119Y-61571206D01*
X45518377Y-61829296D01*
X45974000Y-61919925D01*
X46429623Y-61829296D01*
X46815881Y-61571206D01*
X47073971Y-61184948D01*
X47164600Y-60729325D01*
X47164600Y-60682675D01*
X47073971Y-60227052D01*
X46815881Y-59840794D01*
X46429623Y-59582704D01*
X45974000Y-59492075D01*
X45518377Y-59582704D01*
X45132119Y-59840794D01*
X44874029Y-60227052D01*
X44783400Y-60682675D01*
X44624600Y-60682675D01*
X44533971Y-60227052D01*
X44275881Y-59840794D01*
X43889623Y-59582704D01*
X43434000Y-59492075D01*
X42978377Y-59582704D01*
X42592119Y-59840794D01*
X42334029Y-60227052D01*
X42243400Y-60682675D01*
X42084600Y-60682675D01*
X41993971Y-60227052D01*
X41735881Y-59840794D01*
X41349623Y-59582704D01*
X40894000Y-59492075D01*
X40438377Y-59582704D01*
X40052119Y-59840794D01*
X39794029Y-60227052D01*
X39703400Y-60682675D01*
X39544600Y-60682675D01*
X39453971Y-60227052D01*
X39195881Y-59840794D01*
X38809623Y-59582704D01*
X38806760Y-59582134D01*
X39128947Y-59448688D01*
X39560821Y-59054490D01*
X39781734Y-58583136D01*
X39794029Y-58644948D01*
X40052119Y-59031206D01*
X40438377Y-59289296D01*
X40894000Y-59379925D01*
X41349623Y-59289296D01*
X41735881Y-59031206D01*
X41993971Y-58644948D01*
X42084600Y-58189325D01*
X42084600Y-58142675D01*
X41993971Y-57687052D01*
X41735881Y-57300794D01*
X41349623Y-57042704D01*
X40894000Y-56952075D01*
X40438377Y-57042704D01*
X40052119Y-57300794D01*
X39794029Y-57687052D01*
X39781734Y-57748864D01*
X39560821Y-57277510D01*
X39128947Y-56883312D01*
X38850908Y-56768151D01*
X42034889Y-56768151D01*
X42131662Y-57002360D01*
X42310697Y-57181708D01*
X42544737Y-57278890D01*
X42624796Y-57278960D01*
X42592119Y-57300794D01*
X42334029Y-57687052D01*
X42243400Y-58142675D01*
X42243400Y-58189325D01*
X42334029Y-58644948D01*
X42592119Y-59031206D01*
X42978377Y-59289296D01*
X43434000Y-59379925D01*
X43889623Y-59289296D01*
X44275881Y-59031206D01*
X44533971Y-58644948D01*
X44624600Y-58189325D01*
X44624600Y-58142675D01*
X44533971Y-57687052D01*
X44276955Y-57302400D01*
X44776994Y-57302400D01*
X44776994Y-59029600D01*
X44799795Y-59150779D01*
X44871412Y-59262074D01*
X44980686Y-59336738D01*
X45110400Y-59363006D01*
X46837600Y-59363006D01*
X46958779Y-59340205D01*
X47070074Y-59268588D01*
X47144738Y-59159314D01*
X47171006Y-59029600D01*
X47171006Y-57302400D01*
X47148205Y-57181221D01*
X47076588Y-57069926D01*
X46967314Y-56995262D01*
X46837600Y-56968994D01*
X45110400Y-56968994D01*
X44989221Y-56991795D01*
X44877926Y-57063412D01*
X44803262Y-57172686D01*
X44776994Y-57302400D01*
X44276955Y-57302400D01*
X44275881Y-57300794D01*
X43889623Y-57042704D01*
X43434000Y-56952075D01*
X43214882Y-56995660D01*
X43308890Y-56769263D01*
X43309111Y-56515849D01*
X43212338Y-56281640D01*
X43033303Y-56102292D01*
X42799263Y-56005110D01*
X42545849Y-56004889D01*
X42311640Y-56101662D01*
X42132292Y-56280697D01*
X42035110Y-56514737D01*
X42034889Y-56768151D01*
X38850908Y-56768151D01*
X38713026Y-56711042D01*
X38481000Y-56832183D01*
X38481000Y-58039000D01*
X38501000Y-58039000D01*
X38501000Y-58293000D01*
X38481000Y-58293000D01*
X38481000Y-58313000D01*
X38227000Y-58313000D01*
X38227000Y-58293000D01*
X38207000Y-58293000D01*
X38207000Y-58039000D01*
X38227000Y-58039000D01*
X38227000Y-56832183D01*
X37994974Y-56711042D01*
X37579053Y-56883312D01*
X37147179Y-57277510D01*
X36926266Y-57748864D01*
X36913971Y-57687052D01*
X36655881Y-57300794D01*
X36269623Y-57042704D01*
X35814000Y-56952075D01*
X35358377Y-57042704D01*
X34972119Y-57300794D01*
X34714029Y-57687052D01*
X34623400Y-58142675D01*
X32385000Y-58142675D01*
X32385000Y-55637977D01*
X32404697Y-55657708D01*
X32638737Y-55754890D01*
X32892151Y-55755111D01*
X33126360Y-55658338D01*
X33305708Y-55479303D01*
X33402890Y-55245263D01*
X33403111Y-54991849D01*
X33306338Y-54757640D01*
X33127303Y-54578292D01*
X32893263Y-54481110D01*
X32639849Y-54480889D01*
X32405640Y-54577662D01*
X32385000Y-54598266D01*
X32385000Y-53415351D01*
X40155289Y-53415351D01*
X40252062Y-53649560D01*
X40431097Y-53828908D01*
X40665137Y-53926090D01*
X40918551Y-53926311D01*
X41152760Y-53829538D01*
X41332108Y-53650503D01*
X41427759Y-53420150D01*
X43960490Y-53420150D01*
X44057263Y-53654359D01*
X44236298Y-53833707D01*
X44470338Y-53930889D01*
X44723752Y-53931110D01*
X44957961Y-53834337D01*
X45137309Y-53655302D01*
X45234491Y-53421262D01*
X45234712Y-53167848D01*
X45137939Y-52933639D01*
X44958904Y-52754291D01*
X44724864Y-52657109D01*
X44471450Y-52656888D01*
X44237241Y-52753661D01*
X44057893Y-52932696D01*
X43960711Y-53166736D01*
X43960490Y-53420150D01*
X41427759Y-53420150D01*
X41429290Y-53416463D01*
X41429511Y-53163049D01*
X41332738Y-52928840D01*
X41153703Y-52749492D01*
X40919663Y-52652310D01*
X40666249Y-52652089D01*
X40432040Y-52748862D01*
X40252692Y-52927897D01*
X40155510Y-53161937D01*
X40155289Y-53415351D01*
X32385000Y-53415351D01*
X32385000Y-51789751D01*
X34414889Y-51789751D01*
X34511662Y-52023960D01*
X34690697Y-52203308D01*
X34924737Y-52300490D01*
X35178151Y-52300711D01*
X35412360Y-52203938D01*
X35591708Y-52024903D01*
X35688890Y-51790863D01*
X35689111Y-51537449D01*
X35625440Y-51383351D01*
X36726289Y-51383351D01*
X36823062Y-51617560D01*
X37002097Y-51796908D01*
X37236137Y-51894090D01*
X37489551Y-51894311D01*
X37723760Y-51797538D01*
X37903108Y-51618503D01*
X38000290Y-51384463D01*
X38000290Y-51383351D01*
X45616289Y-51383351D01*
X45713062Y-51617560D01*
X45892097Y-51796908D01*
X46126137Y-51894090D01*
X46379551Y-51894311D01*
X46613760Y-51797538D01*
X46793108Y-51618503D01*
X46890290Y-51384463D01*
X46890511Y-51131049D01*
X46793738Y-50896840D01*
X46614703Y-50717492D01*
X46444340Y-50646751D01*
X47114889Y-50646751D01*
X47211662Y-50880960D01*
X47390697Y-51060308D01*
X47624737Y-51157490D01*
X47878151Y-51157711D01*
X48112360Y-51060938D01*
X48291708Y-50881903D01*
X48388890Y-50647863D01*
X48389111Y-50394449D01*
X48292338Y-50160240D01*
X48113303Y-49980892D01*
X47879263Y-49883710D01*
X47625849Y-49883489D01*
X47391640Y-49980262D01*
X47212292Y-50159297D01*
X47115110Y-50393337D01*
X47114889Y-50646751D01*
X46444340Y-50646751D01*
X46380663Y-50620310D01*
X46127249Y-50620089D01*
X45893040Y-50716862D01*
X45713692Y-50895897D01*
X45616510Y-51129937D01*
X45616289Y-51383351D01*
X38000290Y-51383351D01*
X38000511Y-51131049D01*
X37903738Y-50896840D01*
X37724703Y-50717492D01*
X37615510Y-50672151D01*
X38224889Y-50672151D01*
X38321662Y-50906360D01*
X38500697Y-51085708D01*
X38734737Y-51182890D01*
X38988151Y-51183111D01*
X39222360Y-51086338D01*
X39401708Y-50907303D01*
X39498890Y-50673263D01*
X39499111Y-50419849D01*
X39402338Y-50185640D01*
X39223303Y-50006292D01*
X38989263Y-49909110D01*
X38735849Y-49908889D01*
X38501640Y-50005662D01*
X38322292Y-50184697D01*
X38225110Y-50418737D01*
X38224889Y-50672151D01*
X37615510Y-50672151D01*
X37490663Y-50620310D01*
X37237249Y-50620089D01*
X37003040Y-50716862D01*
X36823692Y-50895897D01*
X36726510Y-51129937D01*
X36726289Y-51383351D01*
X35625440Y-51383351D01*
X35592338Y-51303240D01*
X35413303Y-51123892D01*
X35179263Y-51026710D01*
X34925849Y-51026489D01*
X34691640Y-51123262D01*
X34512292Y-51302297D01*
X34415110Y-51536337D01*
X34414889Y-51789751D01*
X32385000Y-51789751D01*
X32385000Y-50265751D01*
X33703689Y-50265751D01*
X33800462Y-50499960D01*
X33979497Y-50679308D01*
X34213537Y-50776490D01*
X34466951Y-50776711D01*
X34701160Y-50679938D01*
X34880508Y-50500903D01*
X34977690Y-50266863D01*
X34977911Y-50013449D01*
X34881138Y-49779240D01*
X34702103Y-49599892D01*
X34468063Y-49502710D01*
X34214649Y-49502489D01*
X33980440Y-49599262D01*
X33801092Y-49778297D01*
X33703910Y-50012337D01*
X33703689Y-50265751D01*
X32385000Y-50265751D01*
X32385000Y-49159781D01*
X34969298Y-49159781D01*
X35066071Y-49393990D01*
X35245106Y-49573338D01*
X35479146Y-49670520D01*
X35732560Y-49670741D01*
X35966769Y-49573968D01*
X36146117Y-49394933D01*
X36243299Y-49160893D01*
X36243376Y-49071951D01*
X43863689Y-49071951D01*
X43960462Y-49306160D01*
X44139497Y-49485508D01*
X44373537Y-49582690D01*
X44626951Y-49582911D01*
X44861160Y-49486138D01*
X45040508Y-49307103D01*
X45137690Y-49073063D01*
X45137911Y-48819649D01*
X45041138Y-48585440D01*
X44943620Y-48487751D01*
X46759289Y-48487751D01*
X46856062Y-48721960D01*
X47035097Y-48901308D01*
X47269137Y-48998490D01*
X47522551Y-48998711D01*
X47756760Y-48901938D01*
X47936108Y-48722903D01*
X48033290Y-48488863D01*
X48033511Y-48235449D01*
X47936738Y-48001240D01*
X47757703Y-47821892D01*
X47523663Y-47724710D01*
X47270249Y-47724489D01*
X47036040Y-47821262D01*
X46856692Y-48000297D01*
X46759510Y-48234337D01*
X46759289Y-48487751D01*
X44943620Y-48487751D01*
X44862103Y-48406092D01*
X44628063Y-48308910D01*
X44374649Y-48308689D01*
X44140440Y-48405462D01*
X43961092Y-48584497D01*
X43863910Y-48818537D01*
X43863689Y-49071951D01*
X36243376Y-49071951D01*
X36243520Y-48907479D01*
X36146747Y-48673270D01*
X35967712Y-48493922D01*
X35733672Y-48396740D01*
X35480258Y-48396519D01*
X35246049Y-48493292D01*
X35066701Y-48672327D01*
X34969519Y-48906367D01*
X34969298Y-49159781D01*
X32385000Y-49159781D01*
X32385000Y-46959566D01*
X45978911Y-46959566D01*
X46075684Y-47193775D01*
X46254719Y-47373123D01*
X46488759Y-47470305D01*
X46742173Y-47470526D01*
X46976382Y-47373753D01*
X47155730Y-47194718D01*
X47252912Y-46960678D01*
X47253133Y-46707264D01*
X47156360Y-46473055D01*
X46977325Y-46293707D01*
X46743285Y-46196525D01*
X46489871Y-46196304D01*
X46255662Y-46293077D01*
X46076314Y-46472112D01*
X45979132Y-46706152D01*
X45978911Y-46959566D01*
X32385000Y-46959566D01*
X32385000Y-46354151D01*
X33170289Y-46354151D01*
X33267062Y-46588360D01*
X33446097Y-46767708D01*
X33680137Y-46864890D01*
X33933551Y-46865111D01*
X34167760Y-46768338D01*
X34347108Y-46589303D01*
X34413110Y-46430351D01*
X42034889Y-46430351D01*
X42131662Y-46664560D01*
X42310697Y-46843908D01*
X42544737Y-46941090D01*
X42798151Y-46941311D01*
X43032360Y-46844538D01*
X43211708Y-46665503D01*
X43308890Y-46431463D01*
X43309111Y-46178049D01*
X43212338Y-45943840D01*
X43033303Y-45764492D01*
X42799263Y-45667310D01*
X42545849Y-45667089D01*
X42311640Y-45763862D01*
X42132292Y-45942897D01*
X42035110Y-46176937D01*
X42034889Y-46430351D01*
X34413110Y-46430351D01*
X34444290Y-46355263D01*
X34444511Y-46101849D01*
X34347738Y-45867640D01*
X34168703Y-45688292D01*
X33934663Y-45591110D01*
X33681249Y-45590889D01*
X33447040Y-45687662D01*
X33267692Y-45866697D01*
X33170510Y-46100737D01*
X33170289Y-46354151D01*
X32385000Y-46354151D01*
X32385000Y-45541351D01*
X45260689Y-45541351D01*
X45357462Y-45775560D01*
X45536497Y-45954908D01*
X45770537Y-46052090D01*
X46023951Y-46052311D01*
X46258160Y-45955538D01*
X46437508Y-45776503D01*
X46534690Y-45542463D01*
X46534911Y-45289049D01*
X46438138Y-45054840D01*
X46259103Y-44875492D01*
X46025063Y-44778310D01*
X45771649Y-44778089D01*
X45537440Y-44874862D01*
X45358092Y-45053897D01*
X45260910Y-45287937D01*
X45260689Y-45541351D01*
X32385000Y-45541351D01*
X32385000Y-42798151D01*
X45260689Y-42798151D01*
X45357462Y-43032360D01*
X45536497Y-43211708D01*
X45770537Y-43308890D01*
X46023951Y-43309111D01*
X46258160Y-43212338D01*
X46437508Y-43033303D01*
X46534690Y-42799263D01*
X46534911Y-42545849D01*
X46438138Y-42311640D01*
X46259103Y-42132292D01*
X46025063Y-42035110D01*
X45771649Y-42034889D01*
X45537440Y-42131662D01*
X45358092Y-42310697D01*
X45260910Y-42544737D01*
X45260689Y-42798151D01*
X32385000Y-42798151D01*
X32385000Y-39038951D01*
X39698089Y-39038951D01*
X39794862Y-39273160D01*
X39973897Y-39452508D01*
X40207937Y-39549690D01*
X40461351Y-39549911D01*
X40695560Y-39453138D01*
X40874908Y-39274103D01*
X40972090Y-39040063D01*
X40972311Y-38786649D01*
X40875538Y-38552440D01*
X40696503Y-38373092D01*
X40462463Y-38275910D01*
X40209049Y-38275689D01*
X39974840Y-38372462D01*
X39795492Y-38551497D01*
X39698310Y-38785537D01*
X39698089Y-39038951D01*
X32385000Y-39038951D01*
X32385000Y-35889351D01*
X37630089Y-35889351D01*
X37726862Y-36123560D01*
X37905897Y-36302908D01*
X38139937Y-36400090D01*
X38393351Y-36400311D01*
X38627560Y-36303538D01*
X38806908Y-36124503D01*
X38883457Y-35940151D01*
X42288889Y-35940151D01*
X42385662Y-36174360D01*
X42564697Y-36353708D01*
X42798737Y-36450890D01*
X43052151Y-36451111D01*
X43286360Y-36354338D01*
X43465708Y-36175303D01*
X43489522Y-36117951D01*
X45641689Y-36117951D01*
X45738462Y-36352160D01*
X45917497Y-36531508D01*
X46151537Y-36628690D01*
X46404951Y-36628911D01*
X46639160Y-36532138D01*
X46818508Y-36353103D01*
X46915690Y-36119063D01*
X46915911Y-35865649D01*
X46819138Y-35631440D01*
X46640103Y-35452092D01*
X46406063Y-35354910D01*
X46152649Y-35354689D01*
X45918440Y-35451462D01*
X45739092Y-35630497D01*
X45641910Y-35864537D01*
X45641689Y-36117951D01*
X43489522Y-36117951D01*
X43562890Y-35941263D01*
X43563111Y-35687849D01*
X43466338Y-35453640D01*
X43287303Y-35274292D01*
X43053263Y-35177110D01*
X42799849Y-35176889D01*
X42565640Y-35273662D01*
X42386292Y-35452697D01*
X42289110Y-35686737D01*
X42288889Y-35940151D01*
X38883457Y-35940151D01*
X38904090Y-35890463D01*
X38904311Y-35637049D01*
X38807538Y-35402840D01*
X38628503Y-35223492D01*
X38394463Y-35126310D01*
X38141049Y-35126089D01*
X37906840Y-35222862D01*
X37727492Y-35401897D01*
X37630310Y-35635937D01*
X37630089Y-35889351D01*
X32385000Y-35889351D01*
X32385000Y-30526794D01*
X38837646Y-30526794D01*
X38934419Y-30761003D01*
X39113454Y-30940351D01*
X39347494Y-31037533D01*
X39600908Y-31037754D01*
X39835117Y-30940981D01*
X40014465Y-30761946D01*
X40111647Y-30527906D01*
X40111711Y-30453751D01*
X43457289Y-30453751D01*
X43554062Y-30687960D01*
X43733097Y-30867308D01*
X43967137Y-30964490D01*
X44220551Y-30964711D01*
X44454760Y-30867938D01*
X44634108Y-30688903D01*
X44731290Y-30454863D01*
X44731290Y-30453751D01*
X48080089Y-30453751D01*
X48176862Y-30687960D01*
X48355897Y-30867308D01*
X48589937Y-30964490D01*
X48843351Y-30964711D01*
X49077560Y-30867938D01*
X49256908Y-30688903D01*
X49354090Y-30454863D01*
X49354311Y-30201449D01*
X49257538Y-29967240D01*
X49078503Y-29787892D01*
X48844463Y-29690710D01*
X48591049Y-29690489D01*
X48356840Y-29787262D01*
X48177492Y-29966297D01*
X48080310Y-30200337D01*
X48080089Y-30453751D01*
X44731290Y-30453751D01*
X44731511Y-30201449D01*
X44634738Y-29967240D01*
X44455703Y-29787892D01*
X44221663Y-29690710D01*
X43968249Y-29690489D01*
X43734040Y-29787262D01*
X43554692Y-29966297D01*
X43457510Y-30200337D01*
X43457289Y-30453751D01*
X40111711Y-30453751D01*
X40111868Y-30274492D01*
X40015095Y-30040283D01*
X39836060Y-29860935D01*
X39602020Y-29763753D01*
X39348606Y-29763532D01*
X39114397Y-29860305D01*
X38935049Y-30039340D01*
X38837867Y-30273380D01*
X38837646Y-30526794D01*
X32385000Y-30526794D01*
X32385000Y-28937705D01*
X42658145Y-28937705D01*
X42754918Y-29171914D01*
X42933953Y-29351262D01*
X43167993Y-29448444D01*
X43421407Y-29448665D01*
X43655616Y-29351892D01*
X43834964Y-29172857D01*
X43932146Y-28938817D01*
X43932367Y-28685403D01*
X43835594Y-28451194D01*
X43831559Y-28447151D01*
X45717889Y-28447151D01*
X45814662Y-28681360D01*
X45993697Y-28860708D01*
X46227737Y-28957890D01*
X46481151Y-28958111D01*
X46715360Y-28861338D01*
X46894708Y-28682303D01*
X46991890Y-28448263D01*
X46992111Y-28194849D01*
X46895338Y-27960640D01*
X46716303Y-27781292D01*
X46482263Y-27684110D01*
X46228849Y-27683889D01*
X45994640Y-27780662D01*
X45815292Y-27959697D01*
X45718110Y-28193737D01*
X45717889Y-28447151D01*
X43831559Y-28447151D01*
X43656559Y-28271846D01*
X43422519Y-28174664D01*
X43169105Y-28174443D01*
X42934896Y-28271216D01*
X42755548Y-28450251D01*
X42658366Y-28684291D01*
X42658145Y-28937705D01*
X32385000Y-28937705D01*
X32385000Y-28396351D01*
X36573889Y-28396351D01*
X36670662Y-28630560D01*
X36849697Y-28809908D01*
X37083737Y-28907090D01*
X37337151Y-28907311D01*
X37571360Y-28810538D01*
X37750708Y-28631503D01*
X37847890Y-28397463D01*
X37848111Y-28144049D01*
X37751338Y-27909840D01*
X37572303Y-27730492D01*
X37338263Y-27633310D01*
X37084849Y-27633089D01*
X36850640Y-27729862D01*
X36671292Y-27908897D01*
X36574110Y-28142937D01*
X36573889Y-28396351D01*
X32385000Y-28396351D01*
X32385000Y-26719951D01*
X33170289Y-26719951D01*
X33267062Y-26954160D01*
X33446097Y-27133508D01*
X33680137Y-27230690D01*
X33933551Y-27230911D01*
X34125133Y-27151751D01*
X37818489Y-27151751D01*
X37915262Y-27385960D01*
X38094297Y-27565308D01*
X38328337Y-27662490D01*
X38581751Y-27662711D01*
X38815960Y-27565938D01*
X38995308Y-27386903D01*
X39092490Y-27152863D01*
X39092711Y-26899449D01*
X39029040Y-26745351D01*
X42314289Y-26745351D01*
X42411062Y-26979560D01*
X42590097Y-27158908D01*
X42824137Y-27256090D01*
X43077551Y-27256311D01*
X43311760Y-27159538D01*
X43491108Y-26980503D01*
X43588290Y-26746463D01*
X43588511Y-26493049D01*
X43491738Y-26258840D01*
X43312703Y-26079492D01*
X43142340Y-26008751D01*
X43812889Y-26008751D01*
X43909662Y-26242960D01*
X44088697Y-26422308D01*
X44322737Y-26519490D01*
X44576151Y-26519711D01*
X44810360Y-26422938D01*
X44989708Y-26243903D01*
X45086890Y-26009863D01*
X45087111Y-25756449D01*
X44990338Y-25522240D01*
X44811303Y-25342892D01*
X44577263Y-25245710D01*
X44323849Y-25245489D01*
X44089640Y-25342262D01*
X43910292Y-25521297D01*
X43813110Y-25755337D01*
X43812889Y-26008751D01*
X43142340Y-26008751D01*
X43078663Y-25982310D01*
X42825249Y-25982089D01*
X42591040Y-26078862D01*
X42411692Y-26257897D01*
X42314510Y-26491937D01*
X42314289Y-26745351D01*
X39029040Y-26745351D01*
X38995938Y-26665240D01*
X38816903Y-26485892D01*
X38582863Y-26388710D01*
X38329449Y-26388489D01*
X38095240Y-26485262D01*
X37915892Y-26664297D01*
X37818710Y-26898337D01*
X37818489Y-27151751D01*
X34125133Y-27151751D01*
X34167760Y-27134138D01*
X34347108Y-26955103D01*
X34444290Y-26721063D01*
X34444511Y-26467649D01*
X34347738Y-26233440D01*
X34174153Y-26059551D01*
X34668889Y-26059551D01*
X34765662Y-26293760D01*
X34944697Y-26473108D01*
X35178737Y-26570290D01*
X35432151Y-26570511D01*
X35666360Y-26473738D01*
X35845708Y-26294703D01*
X35942890Y-26060663D01*
X35943111Y-25807249D01*
X35863157Y-25613744D01*
X37052611Y-25613744D01*
X37149384Y-25847953D01*
X37328419Y-26027301D01*
X37562459Y-26124483D01*
X37815873Y-26124704D01*
X38050082Y-26027931D01*
X38229430Y-25848896D01*
X38326612Y-25614856D01*
X38326833Y-25361442D01*
X38230060Y-25127233D01*
X38051025Y-24947885D01*
X37816985Y-24850703D01*
X37563571Y-24850482D01*
X37329362Y-24947255D01*
X37150014Y-25126290D01*
X37052832Y-25360330D01*
X37052611Y-25613744D01*
X35863157Y-25613744D01*
X35846338Y-25573040D01*
X35667303Y-25393692D01*
X35433263Y-25296510D01*
X35179849Y-25296289D01*
X34945640Y-25393062D01*
X34766292Y-25572097D01*
X34669110Y-25806137D01*
X34668889Y-26059551D01*
X34174153Y-26059551D01*
X34168703Y-26054092D01*
X33934663Y-25956910D01*
X33681249Y-25956689D01*
X33447040Y-26053462D01*
X33267692Y-26232497D01*
X33170510Y-26466537D01*
X33170289Y-26719951D01*
X32385000Y-26719951D01*
X32385000Y-23241000D01*
X50165000Y-23241000D01*
X50165000Y-62865000D01*
M02*
