M48
;DRILL file {KiCad 4.0.4-stable} date 10/28/16 22:47:41
;FORMAT={-:-/ absolute / inch / decimal}
FMAT,2
INCH,TZ
T1C0.014
T2C0.040
%
G90
G05
M72
T1
X1.29Y-2.17
X1.33Y-1.808
X1.33Y-1.94
X1.331Y-1.035
X1.36Y-1.134
X1.361Y-1.1961
X1.38Y-2.034
X1.39Y-1.021
X1.4017Y-1.937
X1.465Y-1.1
X1.466Y-0.963
X1.471Y-2.018
X1.501Y-1.8453
X1.501Y-1.9052
X1.5066Y-1.408
X1.53Y-2.003
X1.535Y-1.235
X1.536Y-1.099
X1.588Y-1.532
X1.606Y-2.098
X1.61Y-1.41
X1.68Y-1.812
X1.68Y-2.23
X1.6802Y-1.94
X1.69Y-1.037
X1.69Y-1.41
X1.721Y-1.133
X1.723Y-1.196
X1.7317Y-2.038
X1.75Y-1.019
X1.752Y-1.937
X1.7558Y-2.0982
X1.807Y-1.68
X1.807Y-1.788
X1.821Y-2.018
X1.822Y-1.417
X1.825Y-0.965
X1.825Y-1.1
X1.849Y-1.845
X1.851Y-1.905
X1.88Y-2.006
X1.895Y-1.098
X1.895Y-1.233
T2
X1.41Y-2.29
X1.41Y-2.39
X1.51Y-2.29
X1.51Y-2.39
X1.61Y-2.29
X1.61Y-2.39
X1.71Y-2.29
X1.71Y-2.39
X1.81Y-2.29
X1.81Y-2.39
T0
M30
