G04 #@! TF.FileFunction,Soldermask,Top*
%FSLAX46Y46*%
G04 Gerber Fmt 4.6, Leading zero omitted, Abs format (unit mm)*
G04 Created by KiCad (PCBNEW 4.0.4-stable) date 10/28/16 22:46:39*
%MOMM*%
%LPD*%
G01*
G04 APERTURE LIST*
%ADD10C,0.100000*%
G04 APERTURE END LIST*
D10*
G36*
X36013164Y-59730837D02*
X36013166Y-59730838D01*
X36013188Y-59730840D01*
X36197873Y-59788009D01*
X36367936Y-59879962D01*
X36516901Y-60003196D01*
X36639092Y-60153017D01*
X36729855Y-60323719D01*
X36785734Y-60508798D01*
X36804600Y-60701207D01*
X36804600Y-60710916D01*
X36804511Y-60723587D01*
X36804510Y-60723594D01*
X36804503Y-60724624D01*
X36782953Y-60916750D01*
X36724495Y-61101032D01*
X36631357Y-61270449D01*
X36507087Y-61418550D01*
X36356416Y-61539692D01*
X36185085Y-61629261D01*
X35999620Y-61683847D01*
X35999601Y-61683849D01*
X35999593Y-61683851D01*
X35807088Y-61701370D01*
X35614836Y-61681163D01*
X35614834Y-61681162D01*
X35614812Y-61681160D01*
X35430127Y-61623991D01*
X35260064Y-61532038D01*
X35111099Y-61408804D01*
X34988908Y-61258983D01*
X34898145Y-61088281D01*
X34842266Y-60903202D01*
X34823400Y-60710793D01*
X34823400Y-60701084D01*
X34823489Y-60688413D01*
X34823490Y-60688406D01*
X34823497Y-60687376D01*
X34845047Y-60495250D01*
X34903505Y-60310968D01*
X34996643Y-60141551D01*
X35120913Y-59993450D01*
X35271584Y-59872308D01*
X35442915Y-59782739D01*
X35628380Y-59728153D01*
X35628399Y-59728151D01*
X35628407Y-59728149D01*
X35820912Y-59710630D01*
X36013164Y-59730837D01*
X36013164Y-59730837D01*
G37*
G36*
X38553164Y-59730837D02*
X38553166Y-59730838D01*
X38553188Y-59730840D01*
X38737873Y-59788009D01*
X38907936Y-59879962D01*
X39056901Y-60003196D01*
X39179092Y-60153017D01*
X39269855Y-60323719D01*
X39325734Y-60508798D01*
X39344600Y-60701207D01*
X39344600Y-60710916D01*
X39344511Y-60723587D01*
X39344510Y-60723594D01*
X39344503Y-60724624D01*
X39322953Y-60916750D01*
X39264495Y-61101032D01*
X39171357Y-61270449D01*
X39047087Y-61418550D01*
X38896416Y-61539692D01*
X38725085Y-61629261D01*
X38539620Y-61683847D01*
X38539601Y-61683849D01*
X38539593Y-61683851D01*
X38347088Y-61701370D01*
X38154836Y-61681163D01*
X38154834Y-61681162D01*
X38154812Y-61681160D01*
X37970127Y-61623991D01*
X37800064Y-61532038D01*
X37651099Y-61408804D01*
X37528908Y-61258983D01*
X37438145Y-61088281D01*
X37382266Y-60903202D01*
X37363400Y-60710793D01*
X37363400Y-60701084D01*
X37363489Y-60688413D01*
X37363490Y-60688406D01*
X37363497Y-60687376D01*
X37385047Y-60495250D01*
X37443505Y-60310968D01*
X37536643Y-60141551D01*
X37660913Y-59993450D01*
X37811584Y-59872308D01*
X37982915Y-59782739D01*
X38168380Y-59728153D01*
X38168399Y-59728151D01*
X38168407Y-59728149D01*
X38360912Y-59710630D01*
X38553164Y-59730837D01*
X38553164Y-59730837D01*
G37*
G36*
X43633164Y-59730837D02*
X43633166Y-59730838D01*
X43633188Y-59730840D01*
X43817873Y-59788009D01*
X43987936Y-59879962D01*
X44136901Y-60003196D01*
X44259092Y-60153017D01*
X44349855Y-60323719D01*
X44405734Y-60508798D01*
X44424600Y-60701207D01*
X44424600Y-60710916D01*
X44424511Y-60723587D01*
X44424510Y-60723594D01*
X44424503Y-60724624D01*
X44402953Y-60916750D01*
X44344495Y-61101032D01*
X44251357Y-61270449D01*
X44127087Y-61418550D01*
X43976416Y-61539692D01*
X43805085Y-61629261D01*
X43619620Y-61683847D01*
X43619601Y-61683849D01*
X43619593Y-61683851D01*
X43427088Y-61701370D01*
X43234836Y-61681163D01*
X43234834Y-61681162D01*
X43234812Y-61681160D01*
X43050127Y-61623991D01*
X42880064Y-61532038D01*
X42731099Y-61408804D01*
X42608908Y-61258983D01*
X42518145Y-61088281D01*
X42462266Y-60903202D01*
X42443400Y-60710793D01*
X42443400Y-60701084D01*
X42443489Y-60688413D01*
X42443490Y-60688406D01*
X42443497Y-60687376D01*
X42465047Y-60495250D01*
X42523505Y-60310968D01*
X42616643Y-60141551D01*
X42740913Y-59993450D01*
X42891584Y-59872308D01*
X43062915Y-59782739D01*
X43248380Y-59728153D01*
X43248399Y-59728151D01*
X43248407Y-59728149D01*
X43440912Y-59710630D01*
X43633164Y-59730837D01*
X43633164Y-59730837D01*
G37*
G36*
X46173164Y-59730837D02*
X46173166Y-59730838D01*
X46173188Y-59730840D01*
X46357873Y-59788009D01*
X46527936Y-59879962D01*
X46676901Y-60003196D01*
X46799092Y-60153017D01*
X46889855Y-60323719D01*
X46945734Y-60508798D01*
X46964600Y-60701207D01*
X46964600Y-60710916D01*
X46964511Y-60723587D01*
X46964510Y-60723594D01*
X46964503Y-60724624D01*
X46942953Y-60916750D01*
X46884495Y-61101032D01*
X46791357Y-61270449D01*
X46667087Y-61418550D01*
X46516416Y-61539692D01*
X46345085Y-61629261D01*
X46159620Y-61683847D01*
X46159601Y-61683849D01*
X46159593Y-61683851D01*
X45967088Y-61701370D01*
X45774836Y-61681163D01*
X45774834Y-61681162D01*
X45774812Y-61681160D01*
X45590127Y-61623991D01*
X45420064Y-61532038D01*
X45271099Y-61408804D01*
X45148908Y-61258983D01*
X45058145Y-61088281D01*
X45002266Y-60903202D01*
X44983400Y-60710793D01*
X44983400Y-60701084D01*
X44983489Y-60688413D01*
X44983490Y-60688406D01*
X44983497Y-60687376D01*
X45005047Y-60495250D01*
X45063505Y-60310968D01*
X45156643Y-60141551D01*
X45280913Y-59993450D01*
X45431584Y-59872308D01*
X45602915Y-59782739D01*
X45788380Y-59728153D01*
X45788399Y-59728151D01*
X45788407Y-59728149D01*
X45980912Y-59710630D01*
X46173164Y-59730837D01*
X46173164Y-59730837D01*
G37*
G36*
X41093164Y-59730837D02*
X41093166Y-59730838D01*
X41093188Y-59730840D01*
X41277873Y-59788009D01*
X41447936Y-59879962D01*
X41596901Y-60003196D01*
X41719092Y-60153017D01*
X41809855Y-60323719D01*
X41865734Y-60508798D01*
X41884600Y-60701207D01*
X41884600Y-60710916D01*
X41884511Y-60723587D01*
X41884510Y-60723594D01*
X41884503Y-60724624D01*
X41862953Y-60916750D01*
X41804495Y-61101032D01*
X41711357Y-61270449D01*
X41587087Y-61418550D01*
X41436416Y-61539692D01*
X41265085Y-61629261D01*
X41079620Y-61683847D01*
X41079601Y-61683849D01*
X41079593Y-61683851D01*
X40887088Y-61701370D01*
X40694836Y-61681163D01*
X40694834Y-61681162D01*
X40694812Y-61681160D01*
X40510127Y-61623991D01*
X40340064Y-61532038D01*
X40191099Y-61408804D01*
X40068908Y-61258983D01*
X39978145Y-61088281D01*
X39922266Y-60903202D01*
X39903400Y-60710793D01*
X39903400Y-60701084D01*
X39903489Y-60688413D01*
X39903490Y-60688406D01*
X39903497Y-60687376D01*
X39925047Y-60495250D01*
X39983505Y-60310968D01*
X40076643Y-60141551D01*
X40200913Y-59993450D01*
X40351584Y-59872308D01*
X40522915Y-59782739D01*
X40708380Y-59728153D01*
X40708399Y-59728151D01*
X40708407Y-59728149D01*
X40900912Y-59710630D01*
X41093164Y-59730837D01*
X41093164Y-59730837D01*
G37*
G36*
X36013164Y-57190837D02*
X36013166Y-57190838D01*
X36013188Y-57190840D01*
X36197873Y-57248009D01*
X36367936Y-57339962D01*
X36516901Y-57463196D01*
X36639092Y-57613017D01*
X36729855Y-57783719D01*
X36785734Y-57968798D01*
X36804600Y-58161207D01*
X36804600Y-58170916D01*
X36804511Y-58183587D01*
X36804510Y-58183594D01*
X36804503Y-58184624D01*
X36782953Y-58376750D01*
X36724495Y-58561032D01*
X36631357Y-58730449D01*
X36507087Y-58878550D01*
X36356416Y-58999692D01*
X36185085Y-59089261D01*
X35999620Y-59143847D01*
X35999601Y-59143849D01*
X35999593Y-59143851D01*
X35807088Y-59161370D01*
X35614836Y-59141163D01*
X35614834Y-59141162D01*
X35614812Y-59141160D01*
X35430127Y-59083991D01*
X35260064Y-58992038D01*
X35111099Y-58868804D01*
X34988908Y-58718983D01*
X34898145Y-58548281D01*
X34842266Y-58363202D01*
X34823400Y-58170793D01*
X34823400Y-58161084D01*
X34823489Y-58148413D01*
X34823490Y-58148406D01*
X34823497Y-58147376D01*
X34845047Y-57955250D01*
X34903505Y-57770968D01*
X34996643Y-57601551D01*
X35120913Y-57453450D01*
X35271584Y-57332308D01*
X35442915Y-57242739D01*
X35628380Y-57188153D01*
X35628399Y-57188151D01*
X35628407Y-57188149D01*
X35820912Y-57170630D01*
X36013164Y-57190837D01*
X36013164Y-57190837D01*
G37*
G36*
X38553164Y-57190837D02*
X38553166Y-57190838D01*
X38553188Y-57190840D01*
X38737873Y-57248009D01*
X38907936Y-57339962D01*
X39056901Y-57463196D01*
X39179092Y-57613017D01*
X39269855Y-57783719D01*
X39325734Y-57968798D01*
X39344600Y-58161207D01*
X39344600Y-58170916D01*
X39344511Y-58183587D01*
X39344510Y-58183594D01*
X39344503Y-58184624D01*
X39322953Y-58376750D01*
X39264495Y-58561032D01*
X39171357Y-58730449D01*
X39047087Y-58878550D01*
X38896416Y-58999692D01*
X38725085Y-59089261D01*
X38539620Y-59143847D01*
X38539601Y-59143849D01*
X38539593Y-59143851D01*
X38347088Y-59161370D01*
X38154836Y-59141163D01*
X38154834Y-59141162D01*
X38154812Y-59141160D01*
X37970127Y-59083991D01*
X37800064Y-58992038D01*
X37651099Y-58868804D01*
X37528908Y-58718983D01*
X37438145Y-58548281D01*
X37382266Y-58363202D01*
X37363400Y-58170793D01*
X37363400Y-58161084D01*
X37363489Y-58148413D01*
X37363490Y-58148406D01*
X37363497Y-58147376D01*
X37385047Y-57955250D01*
X37443505Y-57770968D01*
X37536643Y-57601551D01*
X37660913Y-57453450D01*
X37811584Y-57332308D01*
X37982915Y-57242739D01*
X38168380Y-57188153D01*
X38168399Y-57188151D01*
X38168407Y-57188149D01*
X38360912Y-57170630D01*
X38553164Y-57190837D01*
X38553164Y-57190837D01*
G37*
G36*
X41093164Y-57190837D02*
X41093166Y-57190838D01*
X41093188Y-57190840D01*
X41277873Y-57248009D01*
X41447936Y-57339962D01*
X41596901Y-57463196D01*
X41719092Y-57613017D01*
X41809855Y-57783719D01*
X41865734Y-57968798D01*
X41884600Y-58161207D01*
X41884600Y-58170916D01*
X41884511Y-58183587D01*
X41884510Y-58183594D01*
X41884503Y-58184624D01*
X41862953Y-58376750D01*
X41804495Y-58561032D01*
X41711357Y-58730449D01*
X41587087Y-58878550D01*
X41436416Y-58999692D01*
X41265085Y-59089261D01*
X41079620Y-59143847D01*
X41079601Y-59143849D01*
X41079593Y-59143851D01*
X40887088Y-59161370D01*
X40694836Y-59141163D01*
X40694834Y-59141162D01*
X40694812Y-59141160D01*
X40510127Y-59083991D01*
X40340064Y-58992038D01*
X40191099Y-58868804D01*
X40068908Y-58718983D01*
X39978145Y-58548281D01*
X39922266Y-58363202D01*
X39903400Y-58170793D01*
X39903400Y-58161084D01*
X39903489Y-58148413D01*
X39903490Y-58148406D01*
X39903497Y-58147376D01*
X39925047Y-57955250D01*
X39983505Y-57770968D01*
X40076643Y-57601551D01*
X40200913Y-57453450D01*
X40351584Y-57332308D01*
X40522915Y-57242739D01*
X40708380Y-57188153D01*
X40708399Y-57188151D01*
X40708407Y-57188149D01*
X40900912Y-57170630D01*
X41093164Y-57190837D01*
X41093164Y-57190837D01*
G37*
G36*
X43633164Y-57190837D02*
X43633166Y-57190838D01*
X43633188Y-57190840D01*
X43817873Y-57248009D01*
X43987936Y-57339962D01*
X44136901Y-57463196D01*
X44259092Y-57613017D01*
X44349855Y-57783719D01*
X44405734Y-57968798D01*
X44424600Y-58161207D01*
X44424600Y-58170916D01*
X44424511Y-58183587D01*
X44424510Y-58183594D01*
X44424503Y-58184624D01*
X44402953Y-58376750D01*
X44344495Y-58561032D01*
X44251357Y-58730449D01*
X44127087Y-58878550D01*
X43976416Y-58999692D01*
X43805085Y-59089261D01*
X43619620Y-59143847D01*
X43619601Y-59143849D01*
X43619593Y-59143851D01*
X43427088Y-59161370D01*
X43234836Y-59141163D01*
X43234834Y-59141162D01*
X43234812Y-59141160D01*
X43050127Y-59083991D01*
X42880064Y-58992038D01*
X42731099Y-58868804D01*
X42608908Y-58718983D01*
X42518145Y-58548281D01*
X42462266Y-58363202D01*
X42443400Y-58170793D01*
X42443400Y-58161084D01*
X42443489Y-58148413D01*
X42443490Y-58148406D01*
X42443497Y-58147376D01*
X42465047Y-57955250D01*
X42523505Y-57770968D01*
X42616643Y-57601551D01*
X42740913Y-57453450D01*
X42891584Y-57332308D01*
X43062915Y-57242739D01*
X43248380Y-57188153D01*
X43248399Y-57188151D01*
X43248407Y-57188149D01*
X43440912Y-57170630D01*
X43633164Y-57190837D01*
X43633164Y-57190837D01*
G37*
G36*
X46964600Y-59156600D02*
X44983400Y-59156600D01*
X44983400Y-57175400D01*
X46964600Y-57175400D01*
X46964600Y-59156600D01*
X46964600Y-59156600D01*
G37*
G36*
X34457000Y-56045000D02*
X33203000Y-56045000D01*
X33203000Y-54191000D01*
X34457000Y-54191000D01*
X34457000Y-56045000D01*
X34457000Y-56045000D01*
G37*
G36*
X37457000Y-56045000D02*
X36203000Y-56045000D01*
X36203000Y-54191000D01*
X37457000Y-54191000D01*
X37457000Y-56045000D01*
X37457000Y-56045000D01*
G37*
G36*
X43021000Y-56045000D02*
X41767000Y-56045000D01*
X41767000Y-54191000D01*
X43021000Y-54191000D01*
X43021000Y-56045000D01*
X43021000Y-56045000D01*
G37*
G36*
X40021000Y-56045000D02*
X38767000Y-56045000D01*
X38767000Y-54191000D01*
X40021000Y-54191000D01*
X40021000Y-56045000D01*
X40021000Y-56045000D01*
G37*
G36*
X39291400Y-52240600D02*
X36937400Y-52240600D01*
X36937400Y-51386600D01*
X39291400Y-51386600D01*
X39291400Y-52240600D01*
X39291400Y-52240600D01*
G37*
G36*
X48181400Y-52240600D02*
X45827400Y-52240600D01*
X45827400Y-51386600D01*
X48181400Y-51386600D01*
X48181400Y-52240600D01*
X48181400Y-52240600D01*
G37*
G36*
X34223400Y-52078600D02*
X33369400Y-52078600D01*
X33369400Y-49724600D01*
X34223400Y-49724600D01*
X34223400Y-52078600D01*
X34223400Y-52078600D01*
G37*
G36*
X44913400Y-52078600D02*
X44059400Y-52078600D01*
X44059400Y-49724600D01*
X44913400Y-49724600D01*
X44913400Y-52078600D01*
X44913400Y-52078600D01*
G37*
G36*
X36023400Y-52078600D02*
X35169400Y-52078600D01*
X35169400Y-49724600D01*
X36023400Y-49724600D01*
X36023400Y-52078600D01*
X36023400Y-52078600D01*
G37*
G36*
X43113400Y-52078600D02*
X42259400Y-52078600D01*
X42259400Y-49724600D01*
X43113400Y-49724600D01*
X43113400Y-52078600D01*
X43113400Y-52078600D01*
G37*
G36*
X48181400Y-50440600D02*
X45827400Y-50440600D01*
X45827400Y-49586600D01*
X48181400Y-49586600D01*
X48181400Y-50440600D01*
X48181400Y-50440600D01*
G37*
G36*
X39291400Y-50440600D02*
X36937400Y-50440600D01*
X36937400Y-49586600D01*
X39291400Y-49586600D01*
X39291400Y-50440600D01*
X39291400Y-50440600D01*
G37*
G36*
X46531400Y-48788600D02*
X45677400Y-48788600D01*
X45677400Y-46434600D01*
X46531400Y-46434600D01*
X46531400Y-48788600D01*
X46531400Y-48788600D01*
G37*
G36*
X48331400Y-48788600D02*
X47477400Y-48788600D01*
X47477400Y-46434600D01*
X48331400Y-46434600D01*
X48331400Y-48788600D01*
X48331400Y-48788600D01*
G37*
G36*
X44913400Y-48788600D02*
X44059400Y-48788600D01*
X44059400Y-46434600D01*
X44913400Y-46434600D01*
X44913400Y-48788600D01*
X44913400Y-48788600D01*
G37*
G36*
X43113400Y-48788600D02*
X42259400Y-48788600D01*
X42259400Y-46434600D01*
X43113400Y-46434600D01*
X43113400Y-48788600D01*
X43113400Y-48788600D01*
G37*
G36*
X39441400Y-48788600D02*
X38587400Y-48788600D01*
X38587400Y-46434600D01*
X39441400Y-46434600D01*
X39441400Y-48788600D01*
X39441400Y-48788600D01*
G37*
G36*
X37641400Y-48788600D02*
X36787400Y-48788600D01*
X36787400Y-46434600D01*
X37641400Y-46434600D01*
X37641400Y-48788600D01*
X37641400Y-48788600D01*
G37*
G36*
X34223400Y-48776600D02*
X33369400Y-48776600D01*
X33369400Y-46422600D01*
X34223400Y-46422600D01*
X34223400Y-48776600D01*
X34223400Y-48776600D01*
G37*
G36*
X36023400Y-48776600D02*
X35169400Y-48776600D01*
X35169400Y-46422600D01*
X36023400Y-46422600D01*
X36023400Y-48776600D01*
X36023400Y-48776600D01*
G37*
G36*
X45410400Y-43556600D02*
X44556400Y-43556600D01*
X44556400Y-41802600D01*
X45410400Y-41802600D01*
X45410400Y-43556600D01*
X45410400Y-43556600D01*
G37*
G36*
X44140400Y-43556600D02*
X43286400Y-43556600D01*
X43286400Y-41802600D01*
X44140400Y-41802600D01*
X44140400Y-43556600D01*
X44140400Y-43556600D01*
G37*
G36*
X42870400Y-43556600D02*
X42016400Y-43556600D01*
X42016400Y-41802600D01*
X42870400Y-41802600D01*
X42870400Y-43556600D01*
X42870400Y-43556600D01*
G37*
G36*
X40330400Y-43556600D02*
X39476400Y-43556600D01*
X39476400Y-41802600D01*
X40330400Y-41802600D01*
X40330400Y-43556600D01*
X40330400Y-43556600D01*
G37*
G36*
X39060400Y-43556600D02*
X38206400Y-43556600D01*
X38206400Y-41802600D01*
X39060400Y-41802600D01*
X39060400Y-43556600D01*
X39060400Y-43556600D01*
G37*
G36*
X37790400Y-43556600D02*
X36936400Y-43556600D01*
X36936400Y-41802600D01*
X37790400Y-41802600D01*
X37790400Y-43556600D01*
X37790400Y-43556600D01*
G37*
G36*
X36520400Y-43556600D02*
X35666400Y-43556600D01*
X35666400Y-41802600D01*
X36520400Y-41802600D01*
X36520400Y-43556600D01*
X36520400Y-43556600D01*
G37*
G36*
X41600400Y-43556600D02*
X40746400Y-43556600D01*
X40746400Y-41802600D01*
X41600400Y-41802600D01*
X41600400Y-43556600D01*
X41600400Y-43556600D01*
G37*
G36*
X39060400Y-38156600D02*
X38206400Y-38156600D01*
X38206400Y-36402600D01*
X39060400Y-36402600D01*
X39060400Y-38156600D01*
X39060400Y-38156600D01*
G37*
G36*
X37790400Y-38156600D02*
X36936400Y-38156600D01*
X36936400Y-36402600D01*
X37790400Y-36402600D01*
X37790400Y-38156600D01*
X37790400Y-38156600D01*
G37*
G36*
X40330400Y-38156600D02*
X39476400Y-38156600D01*
X39476400Y-36402600D01*
X40330400Y-36402600D01*
X40330400Y-38156600D01*
X40330400Y-38156600D01*
G37*
G36*
X41600400Y-38156600D02*
X40746400Y-38156600D01*
X40746400Y-36402600D01*
X41600400Y-36402600D01*
X41600400Y-38156600D01*
X41600400Y-38156600D01*
G37*
G36*
X42870400Y-38156600D02*
X42016400Y-38156600D01*
X42016400Y-36402600D01*
X42870400Y-36402600D01*
X42870400Y-38156600D01*
X42870400Y-38156600D01*
G37*
G36*
X44140400Y-38156600D02*
X43286400Y-38156600D01*
X43286400Y-36402600D01*
X44140400Y-36402600D01*
X44140400Y-38156600D01*
X44140400Y-38156600D01*
G37*
G36*
X45410400Y-38156600D02*
X44556400Y-38156600D01*
X44556400Y-36402600D01*
X45410400Y-36402600D01*
X45410400Y-38156600D01*
X45410400Y-38156600D01*
G37*
G36*
X36520400Y-38156600D02*
X35666400Y-38156600D01*
X35666400Y-36402600D01*
X36520400Y-36402600D01*
X36520400Y-38156600D01*
X36520400Y-38156600D01*
G37*
G36*
X38521000Y-35217000D02*
X37267000Y-35217000D01*
X37267000Y-33363000D01*
X38521000Y-33363000D01*
X38521000Y-35217000D01*
X38521000Y-35217000D01*
G37*
G36*
X46553000Y-35217000D02*
X45299000Y-35217000D01*
X45299000Y-33363000D01*
X46553000Y-33363000D01*
X46553000Y-35217000D01*
X46553000Y-35217000D01*
G37*
G36*
X43553000Y-35217000D02*
X42299000Y-35217000D01*
X42299000Y-33363000D01*
X43553000Y-33363000D01*
X43553000Y-35217000D01*
X43553000Y-35217000D01*
G37*
G36*
X41521000Y-35217000D02*
X40267000Y-35217000D01*
X40267000Y-33363000D01*
X41521000Y-33363000D01*
X41521000Y-35217000D01*
X41521000Y-35217000D01*
G37*
G36*
X34085400Y-30754600D02*
X33231400Y-30754600D01*
X33231400Y-28400600D01*
X34085400Y-28400600D01*
X34085400Y-30754600D01*
X34085400Y-30754600D01*
G37*
G36*
X35885400Y-30754600D02*
X35031400Y-30754600D01*
X35031400Y-28400600D01*
X35885400Y-28400600D01*
X35885400Y-30754600D01*
X35885400Y-30754600D01*
G37*
G36*
X48585400Y-30754600D02*
X47731400Y-30754600D01*
X47731400Y-28400600D01*
X48585400Y-28400600D01*
X48585400Y-30754600D01*
X48585400Y-30754600D01*
G37*
G36*
X46785400Y-30754600D02*
X45931400Y-30754600D01*
X45931400Y-28400600D01*
X46785400Y-28400600D01*
X46785400Y-30754600D01*
X46785400Y-30754600D01*
G37*
G36*
X37641400Y-30754600D02*
X36787400Y-30754600D01*
X36787400Y-28400600D01*
X37641400Y-28400600D01*
X37641400Y-30754600D01*
X37641400Y-30754600D01*
G37*
G36*
X39441400Y-30754600D02*
X38587400Y-30754600D01*
X38587400Y-28400600D01*
X39441400Y-28400600D01*
X39441400Y-30754600D01*
X39441400Y-30754600D01*
G37*
G36*
X45029400Y-30754600D02*
X44175400Y-30754600D01*
X44175400Y-28400600D01*
X45029400Y-28400600D01*
X45029400Y-30754600D01*
X45029400Y-30754600D01*
G37*
G36*
X43229400Y-30754600D02*
X42375400Y-30754600D01*
X42375400Y-28400600D01*
X43229400Y-28400600D01*
X43229400Y-30754600D01*
X43229400Y-30754600D01*
G37*
G36*
X44879400Y-27602600D02*
X42525400Y-27602600D01*
X42525400Y-26748600D01*
X44879400Y-26748600D01*
X44879400Y-27602600D01*
X44879400Y-27602600D01*
G37*
G36*
X35735400Y-27602600D02*
X33381400Y-27602600D01*
X33381400Y-26748600D01*
X35735400Y-26748600D01*
X35735400Y-27602600D01*
X35735400Y-27602600D01*
G37*
G36*
X48585400Y-27452600D02*
X47731400Y-27452600D01*
X47731400Y-25098600D01*
X48585400Y-25098600D01*
X48585400Y-27452600D01*
X48585400Y-27452600D01*
G37*
G36*
X46785400Y-27452600D02*
X45931400Y-27452600D01*
X45931400Y-25098600D01*
X46785400Y-25098600D01*
X46785400Y-27452600D01*
X46785400Y-27452600D01*
G37*
G36*
X39441400Y-27452600D02*
X38587400Y-27452600D01*
X38587400Y-25098600D01*
X39441400Y-25098600D01*
X39441400Y-27452600D01*
X39441400Y-27452600D01*
G37*
G36*
X37641400Y-27452600D02*
X36787400Y-27452600D01*
X36787400Y-25098600D01*
X37641400Y-25098600D01*
X37641400Y-27452600D01*
X37641400Y-27452600D01*
G37*
G36*
X35735400Y-25802600D02*
X33381400Y-25802600D01*
X33381400Y-24948600D01*
X35735400Y-24948600D01*
X35735400Y-25802600D01*
X35735400Y-25802600D01*
G37*
G36*
X44879400Y-25802600D02*
X42525400Y-25802600D01*
X42525400Y-24948600D01*
X44879400Y-24948600D01*
X44879400Y-25802600D01*
X44879400Y-25802600D01*
G37*
M02*
