G04 #@! TF.FileFunction,Legend,Top*
%FSLAX46Y46*%
G04 Gerber Fmt 4.6, Leading zero omitted, Abs format (unit mm)*
G04 Created by KiCad (PCBNEW 4.0.4-stable) date 10/28/16 22:46:39*
%MOMM*%
%LPD*%
G01*
G04 APERTURE LIST*
%ADD10C,0.100000*%
%ADD11C,0.250000*%
%ADD12C,0.175000*%
%ADD13C,0.150000*%
G04 APERTURE END LIST*
D10*
D11*
X37693648Y-55087829D02*
X38455553Y-55087829D01*
X38074601Y-55468781D02*
X38074601Y-54706876D01*
X32504095Y-29916381D02*
X32504095Y-28916381D01*
X32885048Y-28916381D01*
X32980286Y-28964000D01*
X33027905Y-29011619D01*
X33075524Y-29106857D01*
X33075524Y-29249714D01*
X33027905Y-29344952D01*
X32980286Y-29392571D01*
X32885048Y-29440190D01*
X32504095Y-29440190D01*
X39870095Y-26868381D02*
X39870095Y-25868381D01*
X40251048Y-25868381D01*
X40346286Y-25916000D01*
X40393905Y-25963619D01*
X40441524Y-26058857D01*
X40441524Y-26201714D01*
X40393905Y-26296952D01*
X40346286Y-26344571D01*
X40251048Y-26392190D01*
X39870095Y-26392190D01*
X41394095Y-29916381D02*
X41394095Y-28916381D01*
X41775048Y-28916381D01*
X41870286Y-28964000D01*
X41917905Y-29011619D01*
X41965524Y-29106857D01*
X41965524Y-29249714D01*
X41917905Y-29344952D01*
X41870286Y-29392571D01*
X41775048Y-29440190D01*
X41394095Y-29440190D01*
X49014095Y-26868381D02*
X49014095Y-25868381D01*
X49395048Y-25868381D01*
X49490286Y-25916000D01*
X49537905Y-25963619D01*
X49585524Y-26058857D01*
X49585524Y-26201714D01*
X49537905Y-26296952D01*
X49490286Y-26344571D01*
X49395048Y-26392190D01*
X49014095Y-26392190D01*
X32480286Y-26868381D02*
X32480286Y-25868381D01*
X33051715Y-26868381D01*
X33051715Y-25868381D01*
X39846286Y-29916381D02*
X39846286Y-28916381D01*
X40417715Y-29916381D01*
X40417715Y-28916381D01*
X48990286Y-29916381D02*
X48990286Y-28916381D01*
X49561715Y-29916381D01*
X49561715Y-28916381D01*
X41370286Y-26868381D02*
X41370286Y-25868381D01*
X41941715Y-26868381D01*
X41941715Y-25868381D01*
X32504095Y-51252381D02*
X32504095Y-50252381D01*
X32885048Y-50252381D01*
X32980286Y-50300000D01*
X33027905Y-50347619D01*
X33075524Y-50442857D01*
X33075524Y-50585714D01*
X33027905Y-50680952D01*
X32980286Y-50728571D01*
X32885048Y-50776190D01*
X32504095Y-50776190D01*
X32480286Y-48204381D02*
X32480286Y-47204381D01*
X33051715Y-48204381D01*
X33051715Y-47204381D01*
X39870095Y-47950381D02*
X39870095Y-46950381D01*
X40251048Y-46950381D01*
X40346286Y-46998000D01*
X40393905Y-47045619D01*
X40441524Y-47140857D01*
X40441524Y-47283714D01*
X40393905Y-47378952D01*
X40346286Y-47426571D01*
X40251048Y-47474190D01*
X39870095Y-47474190D01*
X39846286Y-51252381D02*
X39846286Y-50252381D01*
X40417715Y-51252381D01*
X40417715Y-50252381D01*
X41140095Y-51252381D02*
X41140095Y-50252381D01*
X41521048Y-50252381D01*
X41616286Y-50300000D01*
X41663905Y-50347619D01*
X41711524Y-50442857D01*
X41711524Y-50585714D01*
X41663905Y-50680952D01*
X41616286Y-50728571D01*
X41521048Y-50776190D01*
X41140095Y-50776190D01*
X48760095Y-47950381D02*
X48760095Y-46950381D01*
X49141048Y-46950381D01*
X49236286Y-46998000D01*
X49283905Y-47045619D01*
X49331524Y-47140857D01*
X49331524Y-47283714D01*
X49283905Y-47378952D01*
X49236286Y-47426571D01*
X49141048Y-47474190D01*
X48760095Y-47474190D01*
X48736286Y-51252381D02*
X48736286Y-50252381D01*
X49307715Y-51252381D01*
X49307715Y-50252381D01*
X41116286Y-47950381D02*
X41116286Y-46950381D01*
X41687715Y-47950381D01*
X41687715Y-46950381D01*
D12*
X140685067Y-97801867D02*
X140685067Y-97101867D01*
X140951733Y-97101867D01*
X141018400Y-97135200D01*
X141051733Y-97168533D01*
X141085067Y-97235200D01*
X141085067Y-97335200D01*
X141051733Y-97401867D01*
X141018400Y-97435200D01*
X140951733Y-97468533D01*
X140685067Y-97468533D01*
X142116201Y-97649467D02*
X142116201Y-96949467D01*
X142516201Y-97649467D01*
X142516201Y-96949467D01*
D13*
X38394000Y-35315000D02*
X40394000Y-35315000D01*
X40394000Y-33265000D02*
X38394000Y-33265000D01*
X45426000Y-33265000D02*
X43426000Y-33265000D01*
X43426000Y-35315000D02*
X45426000Y-35315000D01*
X41894000Y-54093000D02*
X39894000Y-54093000D01*
X39894000Y-56143000D02*
X41894000Y-56143000D01*
X34330000Y-56143000D02*
X36330000Y-56143000D01*
X36330000Y-54093000D02*
X34330000Y-54093000D01*
X35560000Y-59690000D02*
X35560000Y-59182000D01*
X36068000Y-59690000D02*
X36068000Y-59182000D01*
X38100000Y-59690000D02*
X38100000Y-59182000D01*
X38608000Y-59690000D02*
X38608000Y-59182000D01*
X46228000Y-59690000D02*
X46228000Y-59182000D01*
X45720000Y-59690000D02*
X45720000Y-59182000D01*
X40640000Y-59690000D02*
X40640000Y-59182000D01*
X41148000Y-59690000D02*
X41148000Y-59182000D01*
X43180000Y-59690000D02*
X43180000Y-59182000D01*
X43688000Y-59690000D02*
X43688000Y-59182000D01*
X35560000Y-62230000D02*
X35560000Y-61722000D01*
X36068000Y-62230000D02*
X36068000Y-61722000D01*
X46228000Y-62230000D02*
X46228000Y-61722000D01*
X45720000Y-62230000D02*
X45720000Y-61722000D01*
X43688000Y-62230000D02*
X43688000Y-61722000D01*
X43180000Y-62230000D02*
X43180000Y-61722000D01*
X38100000Y-62230000D02*
X38100000Y-61722000D01*
X38608000Y-62230000D02*
X38608000Y-61722000D01*
X40640000Y-62230000D02*
X40640000Y-61722000D01*
X41148000Y-62230000D02*
X41148000Y-61722000D01*
X47524000Y-58166000D02*
X47524000Y-57016000D01*
X47524000Y-57016000D02*
X45974000Y-57016000D01*
X46101000Y-64770000D02*
X46101000Y-70739000D01*
X46101000Y-70739000D02*
X45847000Y-70739000D01*
X45847000Y-70739000D02*
X45847000Y-64897000D01*
X45847000Y-64897000D02*
X45974000Y-64897000D01*
X45974000Y-64897000D02*
X45974000Y-70739000D01*
X37084000Y-62230000D02*
X37084000Y-64770000D01*
X37084000Y-62230000D02*
X34544000Y-62230000D01*
X36068000Y-64770000D02*
X36068000Y-70866000D01*
X36068000Y-70866000D02*
X35560000Y-70866000D01*
X35560000Y-70866000D02*
X35560000Y-64770000D01*
X34544000Y-64770000D02*
X37084000Y-64770000D01*
X34544000Y-62230000D02*
X34544000Y-64770000D01*
X42164000Y-62230000D02*
X42164000Y-64770000D01*
X42164000Y-62230000D02*
X39624000Y-62230000D01*
X39624000Y-62230000D02*
X39624000Y-64770000D01*
X41148000Y-64770000D02*
X41148000Y-70866000D01*
X41148000Y-70866000D02*
X40640000Y-70866000D01*
X40640000Y-70866000D02*
X40640000Y-64770000D01*
X39624000Y-64770000D02*
X42164000Y-64770000D01*
X37084000Y-64770000D02*
X39624000Y-64770000D01*
X38100000Y-70866000D02*
X38100000Y-64770000D01*
X38608000Y-70866000D02*
X38100000Y-70866000D01*
X38608000Y-64770000D02*
X38608000Y-70866000D01*
X37084000Y-62230000D02*
X37084000Y-64770000D01*
X39624000Y-62230000D02*
X37084000Y-62230000D01*
X39624000Y-62230000D02*
X39624000Y-64770000D01*
X44704000Y-62230000D02*
X44704000Y-64770000D01*
X44704000Y-62230000D02*
X42164000Y-62230000D01*
X42164000Y-62230000D02*
X42164000Y-64770000D01*
X43688000Y-64770000D02*
X43688000Y-70866000D01*
X43688000Y-70866000D02*
X43180000Y-70866000D01*
X43180000Y-70866000D02*
X43180000Y-64770000D01*
X42164000Y-64770000D02*
X44704000Y-64770000D01*
X44704000Y-64770000D02*
X47244000Y-64770000D01*
X45720000Y-70866000D02*
X45720000Y-64770000D01*
X46228000Y-70866000D02*
X45720000Y-70866000D01*
X46228000Y-64770000D02*
X46228000Y-70866000D01*
X44704000Y-62230000D02*
X44704000Y-64770000D01*
X47244000Y-62230000D02*
X44704000Y-62230000D01*
X47244000Y-62230000D02*
X47244000Y-64770000D01*
X36814400Y-46511600D02*
X36814400Y-47211600D01*
X38114400Y-46611600D02*
X37864400Y-46861600D01*
X37864400Y-48611600D02*
X38364400Y-48611600D01*
X38364400Y-48611600D02*
X38364400Y-46611600D01*
X38364400Y-46611600D02*
X37864400Y-46611600D01*
X37864400Y-46611600D02*
X37864400Y-48611600D01*
X48304400Y-48711600D02*
X48304400Y-48011600D01*
X47004400Y-48611600D02*
X47254400Y-48361600D01*
X47254400Y-46611600D02*
X46754400Y-46611600D01*
X46754400Y-46611600D02*
X46754400Y-48611600D01*
X46754400Y-48611600D02*
X47254400Y-48611600D01*
X47254400Y-48611600D02*
X47254400Y-46611600D01*
X37014400Y-52213600D02*
X37714400Y-52213600D01*
X37114400Y-50913600D02*
X37364400Y-51163600D01*
X39114400Y-51163600D02*
X39114400Y-50663600D01*
X39114400Y-50663600D02*
X37114400Y-50663600D01*
X37114400Y-50663600D02*
X37114400Y-51163600D01*
X37114400Y-51163600D02*
X39114400Y-51163600D01*
X48104400Y-49613600D02*
X47404400Y-49613600D01*
X48004400Y-50913600D02*
X47754400Y-50663600D01*
X46004400Y-50663600D02*
X46004400Y-51163600D01*
X46004400Y-51163600D02*
X48004400Y-51163600D01*
X48004400Y-51163600D02*
X48004400Y-50663600D01*
X48004400Y-50663600D02*
X46004400Y-50663600D01*
X33396400Y-49801600D02*
X33396400Y-50501600D01*
X34696400Y-49901600D02*
X34446400Y-50151600D01*
X34446400Y-51901600D02*
X34946400Y-51901600D01*
X34946400Y-51901600D02*
X34946400Y-49901600D01*
X34946400Y-49901600D02*
X34446400Y-49901600D01*
X34446400Y-49901600D02*
X34446400Y-51901600D01*
X44886400Y-52001600D02*
X44886400Y-51301600D01*
X43586400Y-51901600D02*
X43836400Y-51651600D01*
X43836400Y-49901600D02*
X43336400Y-49901600D01*
X43336400Y-49901600D02*
X43336400Y-51901600D01*
X43336400Y-51901600D02*
X43836400Y-51901600D01*
X43836400Y-51901600D02*
X43836400Y-49901600D01*
X33396400Y-46499600D02*
X33396400Y-47199600D01*
X34696400Y-46599600D02*
X34446400Y-46849600D01*
X34446400Y-48599600D02*
X34946400Y-48599600D01*
X34946400Y-48599600D02*
X34946400Y-46599600D01*
X34946400Y-46599600D02*
X34446400Y-46599600D01*
X34446400Y-46599600D02*
X34446400Y-48599600D01*
X44886400Y-48711600D02*
X44886400Y-48011600D01*
X43586400Y-48611600D02*
X43836400Y-48361600D01*
X43836400Y-46611600D02*
X43336400Y-46611600D01*
X43336400Y-46611600D02*
X43336400Y-48611600D01*
X43336400Y-48611600D02*
X43836400Y-48611600D01*
X43836400Y-48611600D02*
X43836400Y-46611600D01*
X35463400Y-42054600D02*
X35488400Y-42054600D01*
X35463400Y-37904600D02*
X35568400Y-37904600D01*
X45613400Y-37904600D02*
X45508400Y-37904600D01*
X45613400Y-42054600D02*
X45508400Y-42054600D01*
X35463400Y-42054600D02*
X35463400Y-37904600D01*
X45613400Y-42054600D02*
X45613400Y-37904600D01*
X35488400Y-42054600D02*
X35488400Y-43429600D01*
X35858400Y-30677600D02*
X35858400Y-29977600D01*
X34558400Y-30577600D02*
X34808400Y-30327600D01*
X34808400Y-28577600D02*
X34308400Y-28577600D01*
X34308400Y-28577600D02*
X34308400Y-30577600D01*
X34308400Y-30577600D02*
X34808400Y-30577600D01*
X34808400Y-30577600D02*
X34808400Y-28577600D01*
X42402400Y-28477600D02*
X42402400Y-29177600D01*
X43702400Y-28577600D02*
X43452400Y-28827600D01*
X43452400Y-30577600D02*
X43952400Y-30577600D01*
X43952400Y-30577600D02*
X43952400Y-28577600D01*
X43952400Y-28577600D02*
X43452400Y-28577600D01*
X43452400Y-28577600D02*
X43452400Y-30577600D01*
X35658400Y-24975600D02*
X34958400Y-24975600D01*
X35558400Y-26275600D02*
X35308400Y-26025600D01*
X33558400Y-26025600D02*
X33558400Y-26525600D01*
X33558400Y-26525600D02*
X35558400Y-26525600D01*
X35558400Y-26525600D02*
X35558400Y-26025600D01*
X35558400Y-26025600D02*
X33558400Y-26025600D01*
X42602400Y-27575600D02*
X43302400Y-27575600D01*
X42702400Y-26275600D02*
X42952400Y-26525600D01*
X44702400Y-26525600D02*
X44702400Y-26025600D01*
X44702400Y-26025600D02*
X42702400Y-26025600D01*
X42702400Y-26025600D02*
X42702400Y-26525600D01*
X42702400Y-26525600D02*
X44702400Y-26525600D01*
X39414400Y-27375600D02*
X39414400Y-26675600D01*
X38114400Y-27275600D02*
X38364400Y-27025600D01*
X38364400Y-25275600D02*
X37864400Y-25275600D01*
X37864400Y-25275600D02*
X37864400Y-27275600D01*
X37864400Y-27275600D02*
X38364400Y-27275600D01*
X38364400Y-27275600D02*
X38364400Y-25275600D01*
X45958400Y-25175600D02*
X45958400Y-25875600D01*
X47258400Y-25275600D02*
X47008400Y-25525600D01*
X47008400Y-27275600D02*
X47508400Y-27275600D01*
X47508400Y-27275600D02*
X47508400Y-25275600D01*
X47508400Y-25275600D02*
X47008400Y-25275600D01*
X47008400Y-25275600D02*
X47008400Y-27275600D01*
X39414400Y-30677600D02*
X39414400Y-29977600D01*
X38114400Y-30577600D02*
X38364400Y-30327600D01*
X38364400Y-28577600D02*
X37864400Y-28577600D01*
X37864400Y-28577600D02*
X37864400Y-30577600D01*
X37864400Y-30577600D02*
X38364400Y-30577600D01*
X38364400Y-30577600D02*
X38364400Y-28577600D01*
X45958400Y-28477600D02*
X45958400Y-29177600D01*
X47258400Y-28577600D02*
X47008400Y-28827600D01*
X47008400Y-30577600D02*
X47508400Y-30577600D01*
X47508400Y-30577600D02*
X47508400Y-28577600D01*
X47508400Y-28577600D02*
X47008400Y-28577600D01*
X47008400Y-28577600D02*
X47008400Y-30577600D01*
X35647334Y-34647143D02*
X35599715Y-34694762D01*
X35456858Y-34742381D01*
X35361620Y-34742381D01*
X35218762Y-34694762D01*
X35123524Y-34599524D01*
X35075905Y-34504286D01*
X35028286Y-34313810D01*
X35028286Y-34170952D01*
X35075905Y-33980476D01*
X35123524Y-33885238D01*
X35218762Y-33790000D01*
X35361620Y-33742381D01*
X35456858Y-33742381D01*
X35599715Y-33790000D01*
X35647334Y-33837619D01*
X36599715Y-34742381D02*
X36028286Y-34742381D01*
X36314000Y-34742381D02*
X36314000Y-33742381D01*
X36218762Y-33885238D01*
X36123524Y-33980476D01*
X36028286Y-34028095D01*
X47839334Y-34647143D02*
X47791715Y-34694762D01*
X47648858Y-34742381D01*
X47553620Y-34742381D01*
X47410762Y-34694762D01*
X47315524Y-34599524D01*
X47267905Y-34504286D01*
X47220286Y-34313810D01*
X47220286Y-34170952D01*
X47267905Y-33980476D01*
X47315524Y-33885238D01*
X47410762Y-33790000D01*
X47553620Y-33742381D01*
X47648858Y-33742381D01*
X47791715Y-33790000D01*
X47839334Y-33837619D01*
X48220286Y-33837619D02*
X48267905Y-33790000D01*
X48363143Y-33742381D01*
X48601239Y-33742381D01*
X48696477Y-33790000D01*
X48744096Y-33837619D01*
X48791715Y-33932857D01*
X48791715Y-34028095D01*
X48744096Y-34170952D01*
X48172667Y-34742381D01*
X48791715Y-34742381D01*
X44283334Y-55475143D02*
X44235715Y-55522762D01*
X44092858Y-55570381D01*
X43997620Y-55570381D01*
X43854762Y-55522762D01*
X43759524Y-55427524D01*
X43711905Y-55332286D01*
X43664286Y-55141810D01*
X43664286Y-54998952D01*
X43711905Y-54808476D01*
X43759524Y-54713238D01*
X43854762Y-54618000D01*
X43997620Y-54570381D01*
X44092858Y-54570381D01*
X44235715Y-54618000D01*
X44283334Y-54665619D01*
X44616667Y-54570381D02*
X45235715Y-54570381D01*
X44902381Y-54951333D01*
X45045239Y-54951333D01*
X45140477Y-54998952D01*
X45188096Y-55046571D01*
X45235715Y-55141810D01*
X45235715Y-55379905D01*
X45188096Y-55475143D01*
X45140477Y-55522762D01*
X45045239Y-55570381D01*
X44759524Y-55570381D01*
X44664286Y-55522762D01*
X44616667Y-55475143D01*
X33615334Y-57507143D02*
X33567715Y-57554762D01*
X33424858Y-57602381D01*
X33329620Y-57602381D01*
X33186762Y-57554762D01*
X33091524Y-57459524D01*
X33043905Y-57364286D01*
X32996286Y-57173810D01*
X32996286Y-57030952D01*
X33043905Y-56840476D01*
X33091524Y-56745238D01*
X33186762Y-56650000D01*
X33329620Y-56602381D01*
X33424858Y-56602381D01*
X33567715Y-56650000D01*
X33615334Y-56697619D01*
X34472477Y-56935714D02*
X34472477Y-57602381D01*
X34234381Y-56554762D02*
X33996286Y-57269048D01*
X34615334Y-57269048D01*
X49220381Y-60174095D02*
X48220381Y-60174095D01*
X48220381Y-59793142D01*
X48268000Y-59697904D01*
X48315619Y-59650285D01*
X48410857Y-59602666D01*
X48553714Y-59602666D01*
X48648952Y-59650285D01*
X48696571Y-59697904D01*
X48744190Y-59793142D01*
X48744190Y-60174095D01*
X49220381Y-58650285D02*
X49220381Y-59221714D01*
X49220381Y-58936000D02*
X48220381Y-58936000D01*
X48363238Y-59031238D01*
X48458476Y-59126476D01*
X48506095Y-59221714D01*
X37440666Y-44875505D02*
X37440666Y-45523124D01*
X37478761Y-45599314D01*
X37516857Y-45637410D01*
X37593047Y-45675505D01*
X37745428Y-45675505D01*
X37821619Y-45637410D01*
X37859714Y-45599314D01*
X37897809Y-45523124D01*
X37897809Y-44875505D01*
X38697809Y-45675505D02*
X38240666Y-45675505D01*
X38469237Y-45675505D02*
X38469237Y-44875505D01*
X38393047Y-44989790D01*
X38316856Y-45065981D01*
X38240666Y-45104076D01*
X46355076Y-44875505D02*
X46355076Y-45523124D01*
X46393171Y-45599314D01*
X46431267Y-45637410D01*
X46507457Y-45675505D01*
X46659838Y-45675505D01*
X46736029Y-45637410D01*
X46774124Y-45599314D01*
X46812219Y-45523124D01*
X46812219Y-44875505D01*
X47155076Y-44951695D02*
X47193171Y-44913600D01*
X47269362Y-44875505D01*
X47459838Y-44875505D01*
X47536028Y-44913600D01*
X47574124Y-44951695D01*
X47612219Y-45027886D01*
X47612219Y-45104076D01*
X47574124Y-45218362D01*
X47116981Y-45675505D01*
X47612219Y-45675505D01*
X37391276Y-53003505D02*
X37391276Y-53651124D01*
X37429371Y-53727314D01*
X37467467Y-53765410D01*
X37543657Y-53803505D01*
X37696038Y-53803505D01*
X37772229Y-53765410D01*
X37810324Y-53727314D01*
X37848419Y-53651124D01*
X37848419Y-53003505D01*
X38153181Y-53003505D02*
X38648419Y-53003505D01*
X38381752Y-53308267D01*
X38496038Y-53308267D01*
X38572228Y-53346362D01*
X38610324Y-53384457D01*
X38648419Y-53460648D01*
X38648419Y-53651124D01*
X38610324Y-53727314D01*
X38572228Y-53765410D01*
X38496038Y-53803505D01*
X38267466Y-53803505D01*
X38191276Y-53765410D01*
X38153181Y-53727314D01*
X46405876Y-53003505D02*
X46405876Y-53651124D01*
X46443971Y-53727314D01*
X46482067Y-53765410D01*
X46558257Y-53803505D01*
X46710638Y-53803505D01*
X46786829Y-53765410D01*
X46824924Y-53727314D01*
X46863019Y-53651124D01*
X46863019Y-53003505D01*
X47586828Y-53270171D02*
X47586828Y-53803505D01*
X47396352Y-52965410D02*
X47205876Y-53536838D01*
X47701114Y-53536838D01*
X34086876Y-53003505D02*
X34086876Y-53651124D01*
X34124971Y-53727314D01*
X34163067Y-53765410D01*
X34239257Y-53803505D01*
X34391638Y-53803505D01*
X34467829Y-53765410D01*
X34505924Y-53727314D01*
X34544019Y-53651124D01*
X34544019Y-53003505D01*
X35305924Y-53003505D02*
X34924971Y-53003505D01*
X34886876Y-53384457D01*
X34924971Y-53346362D01*
X35001162Y-53308267D01*
X35191638Y-53308267D01*
X35267828Y-53346362D01*
X35305924Y-53384457D01*
X35344019Y-53460648D01*
X35344019Y-53651124D01*
X35305924Y-53727314D01*
X35267828Y-53765410D01*
X35191638Y-53803505D01*
X35001162Y-53803505D01*
X34924971Y-53765410D01*
X34886876Y-53727314D01*
X42976876Y-53003505D02*
X42976876Y-53651124D01*
X43014971Y-53727314D01*
X43053067Y-53765410D01*
X43129257Y-53803505D01*
X43281638Y-53803505D01*
X43357829Y-53765410D01*
X43395924Y-53727314D01*
X43434019Y-53651124D01*
X43434019Y-53003505D01*
X44157828Y-53003505D02*
X44005447Y-53003505D01*
X43929257Y-53041600D01*
X43891162Y-53079695D01*
X43814971Y-53193981D01*
X43776876Y-53346362D01*
X43776876Y-53651124D01*
X43814971Y-53727314D01*
X43853066Y-53765410D01*
X43929257Y-53803505D01*
X44081638Y-53803505D01*
X44157828Y-53765410D01*
X44195924Y-53727314D01*
X44234019Y-53651124D01*
X44234019Y-53460648D01*
X44195924Y-53384457D01*
X44157828Y-53346362D01*
X44081638Y-53308267D01*
X43929257Y-53308267D01*
X43853066Y-53346362D01*
X43814971Y-53384457D01*
X43776876Y-53460648D01*
X34061476Y-44875505D02*
X34061476Y-45523124D01*
X34099571Y-45599314D01*
X34137667Y-45637410D01*
X34213857Y-45675505D01*
X34366238Y-45675505D01*
X34442429Y-45637410D01*
X34480524Y-45599314D01*
X34518619Y-45523124D01*
X34518619Y-44875505D01*
X34823381Y-44875505D02*
X35356714Y-44875505D01*
X35013857Y-45675505D01*
X42976876Y-44875505D02*
X42976876Y-45523124D01*
X43014971Y-45599314D01*
X43053067Y-45637410D01*
X43129257Y-45675505D01*
X43281638Y-45675505D01*
X43357829Y-45637410D01*
X43395924Y-45599314D01*
X43434019Y-45523124D01*
X43434019Y-44875505D01*
X43929257Y-45218362D02*
X43853066Y-45180267D01*
X43814971Y-45142171D01*
X43776876Y-45065981D01*
X43776876Y-45027886D01*
X43814971Y-44951695D01*
X43853066Y-44913600D01*
X43929257Y-44875505D01*
X44081638Y-44875505D01*
X44157828Y-44913600D01*
X44195924Y-44951695D01*
X44234019Y-45027886D01*
X44234019Y-45065981D01*
X44195924Y-45142171D01*
X44157828Y-45180267D01*
X44081638Y-45218362D01*
X43929257Y-45218362D01*
X43853066Y-45256457D01*
X43814971Y-45294552D01*
X43776876Y-45370743D01*
X43776876Y-45523124D01*
X43814971Y-45599314D01*
X43853066Y-45637410D01*
X43929257Y-45675505D01*
X44081638Y-45675505D01*
X44157828Y-45637410D01*
X44195924Y-45599314D01*
X44234019Y-45523124D01*
X44234019Y-45370743D01*
X44195924Y-45294552D01*
X44157828Y-45256457D01*
X44081638Y-45218362D01*
X33990781Y-40741505D02*
X34800305Y-40741505D01*
X34895543Y-40693886D01*
X34943162Y-40646267D01*
X34990781Y-40551029D01*
X34990781Y-40360552D01*
X34943162Y-40265314D01*
X34895543Y-40217695D01*
X34800305Y-40170076D01*
X33990781Y-40170076D01*
X34990781Y-39646267D02*
X34990781Y-39455791D01*
X34943162Y-39360552D01*
X34895543Y-39312933D01*
X34752686Y-39217695D01*
X34562210Y-39170076D01*
X34181257Y-39170076D01*
X34086019Y-39217695D01*
X34038400Y-39265314D01*
X33990781Y-39360552D01*
X33990781Y-39551029D01*
X34038400Y-39646267D01*
X34086019Y-39693886D01*
X34181257Y-39741505D01*
X34419352Y-39741505D01*
X34514590Y-39693886D01*
X34562210Y-39646267D01*
X34609829Y-39551029D01*
X34609829Y-39360552D01*
X34562210Y-39265314D01*
X34514590Y-39217695D01*
X34419352Y-39170076D01*
X33553524Y-31311905D02*
X33553524Y-31959524D01*
X33591619Y-32035714D01*
X33629715Y-32073810D01*
X33705905Y-32111905D01*
X33858286Y-32111905D01*
X33934477Y-32073810D01*
X33972572Y-32035714D01*
X34010667Y-31959524D01*
X34010667Y-31311905D01*
X34810667Y-32111905D02*
X34353524Y-32111905D01*
X34582095Y-32111905D02*
X34582095Y-31311905D01*
X34505905Y-31426190D01*
X34429714Y-31502381D01*
X34353524Y-31540476D01*
X35305905Y-31311905D02*
X35382096Y-31311905D01*
X35458286Y-31350000D01*
X35496381Y-31388095D01*
X35534477Y-31464286D01*
X35572572Y-31616667D01*
X35572572Y-31807143D01*
X35534477Y-31959524D01*
X35496381Y-32035714D01*
X35458286Y-32073810D01*
X35382096Y-32111905D01*
X35305905Y-32111905D01*
X35229715Y-32073810D01*
X35191619Y-32035714D01*
X35153524Y-31959524D01*
X35115429Y-31807143D01*
X35115429Y-31616667D01*
X35153524Y-31464286D01*
X35191619Y-31388095D01*
X35229715Y-31350000D01*
X35305905Y-31311905D01*
X42849924Y-31311905D02*
X42849924Y-31959524D01*
X42888019Y-32035714D01*
X42926115Y-32073810D01*
X43002305Y-32111905D01*
X43154686Y-32111905D01*
X43230877Y-32073810D01*
X43268972Y-32035714D01*
X43307067Y-31959524D01*
X43307067Y-31311905D01*
X44107067Y-32111905D02*
X43649924Y-32111905D01*
X43878495Y-32111905D02*
X43878495Y-31311905D01*
X43802305Y-31426190D01*
X43726114Y-31502381D01*
X43649924Y-31540476D01*
X44868972Y-32111905D02*
X44411829Y-32111905D01*
X44640400Y-32111905D02*
X44640400Y-31311905D01*
X44564210Y-31426190D01*
X44488019Y-31502381D01*
X44411829Y-31540476D01*
X33553524Y-23437905D02*
X33553524Y-24085524D01*
X33591619Y-24161714D01*
X33629715Y-24199810D01*
X33705905Y-24237905D01*
X33858286Y-24237905D01*
X33934477Y-24199810D01*
X33972572Y-24161714D01*
X34010667Y-24085524D01*
X34010667Y-23437905D01*
X34810667Y-24237905D02*
X34353524Y-24237905D01*
X34582095Y-24237905D02*
X34582095Y-23437905D01*
X34505905Y-23552190D01*
X34429714Y-23628381D01*
X34353524Y-23666476D01*
X35115429Y-23514095D02*
X35153524Y-23476000D01*
X35229715Y-23437905D01*
X35420191Y-23437905D01*
X35496381Y-23476000D01*
X35534477Y-23514095D01*
X35572572Y-23590286D01*
X35572572Y-23666476D01*
X35534477Y-23780762D01*
X35077334Y-24237905D01*
X35572572Y-24237905D01*
X42697524Y-23437905D02*
X42697524Y-24085524D01*
X42735619Y-24161714D01*
X42773715Y-24199810D01*
X42849905Y-24237905D01*
X43002286Y-24237905D01*
X43078477Y-24199810D01*
X43116572Y-24161714D01*
X43154667Y-24085524D01*
X43154667Y-23437905D01*
X43954667Y-24237905D02*
X43497524Y-24237905D01*
X43726095Y-24237905D02*
X43726095Y-23437905D01*
X43649905Y-23552190D01*
X43573714Y-23628381D01*
X43497524Y-23666476D01*
X44221334Y-23437905D02*
X44716572Y-23437905D01*
X44449905Y-23742667D01*
X44564191Y-23742667D01*
X44640381Y-23780762D01*
X44678477Y-23818857D01*
X44716572Y-23895048D01*
X44716572Y-24085524D01*
X44678477Y-24161714D01*
X44640381Y-24199810D01*
X44564191Y-24237905D01*
X44335619Y-24237905D01*
X44259429Y-24199810D01*
X44221334Y-24161714D01*
X37183934Y-23437905D02*
X37183934Y-24085524D01*
X37222029Y-24161714D01*
X37260125Y-24199810D01*
X37336315Y-24237905D01*
X37488696Y-24237905D01*
X37564887Y-24199810D01*
X37602982Y-24161714D01*
X37641077Y-24085524D01*
X37641077Y-23437905D01*
X38441077Y-24237905D02*
X37983934Y-24237905D01*
X38212505Y-24237905D02*
X38212505Y-23437905D01*
X38136315Y-23552190D01*
X38060124Y-23628381D01*
X37983934Y-23666476D01*
X39126791Y-23704571D02*
X39126791Y-24237905D01*
X38936315Y-23399810D02*
X38745839Y-23971238D01*
X39241077Y-23971238D01*
X46253524Y-23437905D02*
X46253524Y-24085524D01*
X46291619Y-24161714D01*
X46329715Y-24199810D01*
X46405905Y-24237905D01*
X46558286Y-24237905D01*
X46634477Y-24199810D01*
X46672572Y-24161714D01*
X46710667Y-24085524D01*
X46710667Y-23437905D01*
X47510667Y-24237905D02*
X47053524Y-24237905D01*
X47282095Y-24237905D02*
X47282095Y-23437905D01*
X47205905Y-23552190D01*
X47129714Y-23628381D01*
X47053524Y-23666476D01*
X48234477Y-23437905D02*
X47853524Y-23437905D01*
X47815429Y-23818857D01*
X47853524Y-23780762D01*
X47929715Y-23742667D01*
X48120191Y-23742667D01*
X48196381Y-23780762D01*
X48234477Y-23818857D01*
X48272572Y-23895048D01*
X48272572Y-24085524D01*
X48234477Y-24161714D01*
X48196381Y-24199810D01*
X48120191Y-24237905D01*
X47929715Y-24237905D01*
X47853524Y-24199810D01*
X47815429Y-24161714D01*
X37109524Y-31311905D02*
X37109524Y-31959524D01*
X37147619Y-32035714D01*
X37185715Y-32073810D01*
X37261905Y-32111905D01*
X37414286Y-32111905D01*
X37490477Y-32073810D01*
X37528572Y-32035714D01*
X37566667Y-31959524D01*
X37566667Y-31311905D01*
X38366667Y-32111905D02*
X37909524Y-32111905D01*
X38138095Y-32111905D02*
X38138095Y-31311905D01*
X38061905Y-31426190D01*
X37985714Y-31502381D01*
X37909524Y-31540476D01*
X39052381Y-31311905D02*
X38900000Y-31311905D01*
X38823810Y-31350000D01*
X38785715Y-31388095D01*
X38709524Y-31502381D01*
X38671429Y-31654762D01*
X38671429Y-31959524D01*
X38709524Y-32035714D01*
X38747619Y-32073810D01*
X38823810Y-32111905D01*
X38976191Y-32111905D01*
X39052381Y-32073810D01*
X39090477Y-32035714D01*
X39128572Y-31959524D01*
X39128572Y-31769048D01*
X39090477Y-31692857D01*
X39052381Y-31654762D01*
X38976191Y-31616667D01*
X38823810Y-31616667D01*
X38747619Y-31654762D01*
X38709524Y-31692857D01*
X38671429Y-31769048D01*
X46253524Y-31311905D02*
X46253524Y-31959524D01*
X46291619Y-32035714D01*
X46329715Y-32073810D01*
X46405905Y-32111905D01*
X46558286Y-32111905D01*
X46634477Y-32073810D01*
X46672572Y-32035714D01*
X46710667Y-31959524D01*
X46710667Y-31311905D01*
X47510667Y-32111905D02*
X47053524Y-32111905D01*
X47282095Y-32111905D02*
X47282095Y-31311905D01*
X47205905Y-31426190D01*
X47129714Y-31502381D01*
X47053524Y-31540476D01*
X47777334Y-31311905D02*
X48310667Y-31311905D01*
X47967810Y-32111905D01*
M02*
