G04 #@! TF.FileFunction,Copper,L2,Inr,Signal*
%FSLAX46Y46*%
G04 Gerber Fmt 4.6, Leading zero omitted, Abs format (unit mm)*
G04 Created by KiCad (PCBNEW 4.0.4-stable) date 10/28/16 22:46:39*
%MOMM*%
%LPD*%
G01*
G04 APERTURE LIST*
%ADD10C,0.100000*%
%ADD11R,1.727200X1.727200*%
%ADD12O,1.727200X1.727200*%
%ADD13C,0.620000*%
%ADD14C,0.254000*%
G04 APERTURE END LIST*
D10*
D11*
X45974000Y-58166000D03*
D12*
X45974000Y-60706000D03*
X43434000Y-58166000D03*
X43434000Y-60706000D03*
X40894000Y-58166000D03*
X40894000Y-60706000D03*
X38354000Y-58166000D03*
X38354000Y-60706000D03*
X35814000Y-58166000D03*
X35814000Y-60706000D03*
D13*
X38125400Y-46871609D03*
X42676391Y-49276000D03*
X48133000Y-27889200D03*
X40894000Y-35814000D03*
X46355000Y-24511000D03*
X34544000Y-28803600D03*
X34569400Y-30380564D03*
X43986403Y-51764283D03*
X38125400Y-48393207D03*
X35604378Y-49199870D03*
X35306000Y-25932990D03*
X42672000Y-56642000D03*
X32766000Y-55118000D03*
X46278800Y-35991800D03*
X38267200Y-35763200D03*
X40335200Y-38912800D03*
X38989000Y-31369000D03*
X48133000Y-31318200D03*
X46355000Y-27940000D03*
X42926000Y-26339800D03*
X44450000Y-25882600D03*
X37211000Y-27940000D03*
X33807400Y-26289000D03*
X42672000Y-46024800D03*
X44500800Y-49199800D03*
X46253400Y-51257200D03*
X47752000Y-50952400D03*
X33782000Y-45923200D03*
X37363400Y-51257200D03*
X38862000Y-50876200D03*
X43713400Y-28778200D03*
X42926000Y-35814000D03*
X43764200Y-30378400D03*
X37236400Y-24460200D03*
X39014400Y-27914600D03*
X46964600Y-46863000D03*
X47015400Y-48387000D03*
X35052000Y-51663600D03*
X33782000Y-49276000D03*
X45897800Y-45415200D03*
X45897800Y-42672000D03*
X40792400Y-53289200D03*
X44597601Y-53293999D03*
D14*
G36*
X50165000Y-62865000D02*
X32385000Y-62865000D01*
X32385000Y-60682675D01*
X34623400Y-60682675D01*
X34623400Y-60729325D01*
X34714029Y-61184948D01*
X34972119Y-61571206D01*
X35358377Y-61829296D01*
X35814000Y-61919925D01*
X36269623Y-61829296D01*
X36655881Y-61571206D01*
X36913971Y-61184948D01*
X37004600Y-60729325D01*
X37004600Y-60682675D01*
X36913971Y-60227052D01*
X36655881Y-59840794D01*
X36269623Y-59582704D01*
X35814000Y-59492075D01*
X35358377Y-59582704D01*
X34972119Y-59840794D01*
X34714029Y-60227052D01*
X34623400Y-60682675D01*
X32385000Y-60682675D01*
X32385000Y-58142675D01*
X34623400Y-58142675D01*
X34623400Y-58189325D01*
X34714029Y-58644948D01*
X34972119Y-59031206D01*
X35358377Y-59289296D01*
X35814000Y-59379925D01*
X36269623Y-59289296D01*
X36655881Y-59031206D01*
X36913971Y-58644948D01*
X36926266Y-58583136D01*
X37147179Y-59054490D01*
X37579053Y-59448688D01*
X37901240Y-59582134D01*
X37898377Y-59582704D01*
X37512119Y-59840794D01*
X37254029Y-60227052D01*
X37163400Y-60682675D01*
X37163400Y-60729325D01*
X37254029Y-61184948D01*
X37512119Y-61571206D01*
X37898377Y-61829296D01*
X38354000Y-61919925D01*
X38809623Y-61829296D01*
X39195881Y-61571206D01*
X39453971Y-61184948D01*
X39544600Y-60729325D01*
X39544600Y-60682675D01*
X39703400Y-60682675D01*
X39703400Y-60729325D01*
X39794029Y-61184948D01*
X40052119Y-61571206D01*
X40438377Y-61829296D01*
X40894000Y-61919925D01*
X41349623Y-61829296D01*
X41735881Y-61571206D01*
X41993971Y-61184948D01*
X42084600Y-60729325D01*
X42084600Y-60682675D01*
X42243400Y-60682675D01*
X42243400Y-60729325D01*
X42334029Y-61184948D01*
X42592119Y-61571206D01*
X42978377Y-61829296D01*
X43434000Y-61919925D01*
X43889623Y-61829296D01*
X44275881Y-61571206D01*
X44533971Y-61184948D01*
X44624600Y-60729325D01*
X44624600Y-60682675D01*
X44783400Y-60682675D01*
X44783400Y-60729325D01*
X44874029Y-61184948D01*
X45132119Y-61571206D01*
X45518377Y-61829296D01*
X45974000Y-61919925D01*
X46429623Y-61829296D01*
X46815881Y-61571206D01*
X47073971Y-61184948D01*
X47164600Y-60729325D01*
X47164600Y-60682675D01*
X47073971Y-60227052D01*
X46815881Y-59840794D01*
X46429623Y-59582704D01*
X45974000Y-59492075D01*
X45518377Y-59582704D01*
X45132119Y-59840794D01*
X44874029Y-60227052D01*
X44783400Y-60682675D01*
X44624600Y-60682675D01*
X44533971Y-60227052D01*
X44275881Y-59840794D01*
X43889623Y-59582704D01*
X43434000Y-59492075D01*
X42978377Y-59582704D01*
X42592119Y-59840794D01*
X42334029Y-60227052D01*
X42243400Y-60682675D01*
X42084600Y-60682675D01*
X41993971Y-60227052D01*
X41735881Y-59840794D01*
X41349623Y-59582704D01*
X40894000Y-59492075D01*
X40438377Y-59582704D01*
X40052119Y-59840794D01*
X39794029Y-60227052D01*
X39703400Y-60682675D01*
X39544600Y-60682675D01*
X39453971Y-60227052D01*
X39195881Y-59840794D01*
X38809623Y-59582704D01*
X38806760Y-59582134D01*
X39128947Y-59448688D01*
X39560821Y-59054490D01*
X39781734Y-58583136D01*
X39794029Y-58644948D01*
X40052119Y-59031206D01*
X40438377Y-59289296D01*
X40894000Y-59379925D01*
X41349623Y-59289296D01*
X41735881Y-59031206D01*
X41993971Y-58644948D01*
X42084600Y-58189325D01*
X42084600Y-58142675D01*
X41993971Y-57687052D01*
X41735881Y-57300794D01*
X41349623Y-57042704D01*
X40894000Y-56952075D01*
X40438377Y-57042704D01*
X40052119Y-57300794D01*
X39794029Y-57687052D01*
X39781734Y-57748864D01*
X39560821Y-57277510D01*
X39128947Y-56883312D01*
X38850908Y-56768151D01*
X42034889Y-56768151D01*
X42131662Y-57002360D01*
X42310697Y-57181708D01*
X42544737Y-57278890D01*
X42624796Y-57278960D01*
X42592119Y-57300794D01*
X42334029Y-57687052D01*
X42243400Y-58142675D01*
X42243400Y-58189325D01*
X42334029Y-58644948D01*
X42592119Y-59031206D01*
X42978377Y-59289296D01*
X43434000Y-59379925D01*
X43889623Y-59289296D01*
X44275881Y-59031206D01*
X44533971Y-58644948D01*
X44624600Y-58189325D01*
X44624600Y-58142675D01*
X44533971Y-57687052D01*
X44276955Y-57302400D01*
X44776994Y-57302400D01*
X44776994Y-59029600D01*
X44799795Y-59150779D01*
X44871412Y-59262074D01*
X44980686Y-59336738D01*
X45110400Y-59363006D01*
X46837600Y-59363006D01*
X46958779Y-59340205D01*
X47070074Y-59268588D01*
X47144738Y-59159314D01*
X47171006Y-59029600D01*
X47171006Y-57302400D01*
X47148205Y-57181221D01*
X47076588Y-57069926D01*
X46967314Y-56995262D01*
X46837600Y-56968994D01*
X45110400Y-56968994D01*
X44989221Y-56991795D01*
X44877926Y-57063412D01*
X44803262Y-57172686D01*
X44776994Y-57302400D01*
X44276955Y-57302400D01*
X44275881Y-57300794D01*
X43889623Y-57042704D01*
X43434000Y-56952075D01*
X43214882Y-56995660D01*
X43308890Y-56769263D01*
X43309111Y-56515849D01*
X43212338Y-56281640D01*
X43033303Y-56102292D01*
X42799263Y-56005110D01*
X42545849Y-56004889D01*
X42311640Y-56101662D01*
X42132292Y-56280697D01*
X42035110Y-56514737D01*
X42034889Y-56768151D01*
X38850908Y-56768151D01*
X38713026Y-56711042D01*
X38481000Y-56832183D01*
X38481000Y-58039000D01*
X38501000Y-58039000D01*
X38501000Y-58293000D01*
X38481000Y-58293000D01*
X38481000Y-58313000D01*
X38227000Y-58313000D01*
X38227000Y-58293000D01*
X38207000Y-58293000D01*
X38207000Y-58039000D01*
X38227000Y-58039000D01*
X38227000Y-56832183D01*
X37994974Y-56711042D01*
X37579053Y-56883312D01*
X37147179Y-57277510D01*
X36926266Y-57748864D01*
X36913971Y-57687052D01*
X36655881Y-57300794D01*
X36269623Y-57042704D01*
X35814000Y-56952075D01*
X35358377Y-57042704D01*
X34972119Y-57300794D01*
X34714029Y-57687052D01*
X34623400Y-58142675D01*
X32385000Y-58142675D01*
X32385000Y-55637977D01*
X32404697Y-55657708D01*
X32638737Y-55754890D01*
X32892151Y-55755111D01*
X33126360Y-55658338D01*
X33305708Y-55479303D01*
X33402890Y-55245263D01*
X33403111Y-54991849D01*
X33306338Y-54757640D01*
X33127303Y-54578292D01*
X32893263Y-54481110D01*
X32639849Y-54480889D01*
X32405640Y-54577662D01*
X32385000Y-54598266D01*
X32385000Y-53415351D01*
X40155289Y-53415351D01*
X40252062Y-53649560D01*
X40431097Y-53828908D01*
X40665137Y-53926090D01*
X40918551Y-53926311D01*
X41152760Y-53829538D01*
X41332108Y-53650503D01*
X41427759Y-53420150D01*
X43960490Y-53420150D01*
X44057263Y-53654359D01*
X44236298Y-53833707D01*
X44470338Y-53930889D01*
X44723752Y-53931110D01*
X44957961Y-53834337D01*
X45137309Y-53655302D01*
X45234491Y-53421262D01*
X45234712Y-53167848D01*
X45137939Y-52933639D01*
X44958904Y-52754291D01*
X44724864Y-52657109D01*
X44471450Y-52656888D01*
X44237241Y-52753661D01*
X44057893Y-52932696D01*
X43960711Y-53166736D01*
X43960490Y-53420150D01*
X41427759Y-53420150D01*
X41429290Y-53416463D01*
X41429511Y-53163049D01*
X41332738Y-52928840D01*
X41153703Y-52749492D01*
X40919663Y-52652310D01*
X40666249Y-52652089D01*
X40432040Y-52748862D01*
X40252692Y-52927897D01*
X40155510Y-53161937D01*
X40155289Y-53415351D01*
X32385000Y-53415351D01*
X32385000Y-51789751D01*
X34414889Y-51789751D01*
X34511662Y-52023960D01*
X34690697Y-52203308D01*
X34924737Y-52300490D01*
X35178151Y-52300711D01*
X35412360Y-52203938D01*
X35591708Y-52024903D01*
X35688890Y-51790863D01*
X35689111Y-51537449D01*
X35625440Y-51383351D01*
X36726289Y-51383351D01*
X36823062Y-51617560D01*
X37002097Y-51796908D01*
X37236137Y-51894090D01*
X37489551Y-51894311D01*
X37723760Y-51797538D01*
X37903108Y-51618503D01*
X38000290Y-51384463D01*
X38000511Y-51131049D01*
X37947335Y-51002351D01*
X38224889Y-51002351D01*
X38321662Y-51236560D01*
X38500697Y-51415908D01*
X38734737Y-51513090D01*
X38988151Y-51513311D01*
X39222360Y-51416538D01*
X39255605Y-51383351D01*
X45616289Y-51383351D01*
X45713062Y-51617560D01*
X45892097Y-51796908D01*
X46126137Y-51894090D01*
X46379551Y-51894311D01*
X46613760Y-51797538D01*
X46793108Y-51618503D01*
X46890290Y-51384463D01*
X46890511Y-51131049D01*
X46868820Y-51078551D01*
X47114889Y-51078551D01*
X47211662Y-51312760D01*
X47390697Y-51492108D01*
X47624737Y-51589290D01*
X47878151Y-51589511D01*
X48112360Y-51492738D01*
X48291708Y-51313703D01*
X48388890Y-51079663D01*
X48389111Y-50826249D01*
X48292338Y-50592040D01*
X48113303Y-50412692D01*
X47879263Y-50315510D01*
X47625849Y-50315289D01*
X47391640Y-50412062D01*
X47212292Y-50591097D01*
X47115110Y-50825137D01*
X47114889Y-51078551D01*
X46868820Y-51078551D01*
X46793738Y-50896840D01*
X46614703Y-50717492D01*
X46380663Y-50620310D01*
X46127249Y-50620089D01*
X45893040Y-50716862D01*
X45713692Y-50895897D01*
X45616510Y-51129937D01*
X45616289Y-51383351D01*
X39255605Y-51383351D01*
X39401708Y-51237503D01*
X39498890Y-51003463D01*
X39499111Y-50750049D01*
X39402338Y-50515840D01*
X39223303Y-50336492D01*
X38989263Y-50239310D01*
X38735849Y-50239089D01*
X38501640Y-50335862D01*
X38322292Y-50514897D01*
X38225110Y-50748937D01*
X38224889Y-51002351D01*
X37947335Y-51002351D01*
X37903738Y-50896840D01*
X37724703Y-50717492D01*
X37490663Y-50620310D01*
X37237249Y-50620089D01*
X37003040Y-50716862D01*
X36823692Y-50895897D01*
X36726510Y-51129937D01*
X36726289Y-51383351D01*
X35625440Y-51383351D01*
X35592338Y-51303240D01*
X35413303Y-51123892D01*
X35179263Y-51026710D01*
X34925849Y-51026489D01*
X34691640Y-51123262D01*
X34512292Y-51302297D01*
X34415110Y-51536337D01*
X34414889Y-51789751D01*
X32385000Y-51789751D01*
X32385000Y-49402151D01*
X33144889Y-49402151D01*
X33241662Y-49636360D01*
X33420697Y-49815708D01*
X33654737Y-49912890D01*
X33908151Y-49913111D01*
X34142360Y-49816338D01*
X34321708Y-49637303D01*
X34418890Y-49403263D01*
X34418957Y-49326021D01*
X34967267Y-49326021D01*
X35064040Y-49560230D01*
X35243075Y-49739578D01*
X35477115Y-49836760D01*
X35730529Y-49836981D01*
X35964738Y-49740208D01*
X36144086Y-49561173D01*
X36241268Y-49327133D01*
X36241269Y-49325951D01*
X43863689Y-49325951D01*
X43960462Y-49560160D01*
X44139497Y-49739508D01*
X44373537Y-49836690D01*
X44626951Y-49836911D01*
X44861160Y-49740138D01*
X45040508Y-49561103D01*
X45137690Y-49327063D01*
X45137911Y-49073649D01*
X45041138Y-48839440D01*
X44862103Y-48660092D01*
X44628063Y-48562910D01*
X44374649Y-48562689D01*
X44140440Y-48659462D01*
X43961092Y-48838497D01*
X43863910Y-49072537D01*
X43863689Y-49325951D01*
X36241269Y-49325951D01*
X36241489Y-49073719D01*
X36144716Y-48839510D01*
X35965681Y-48660162D01*
X35731641Y-48562980D01*
X35478227Y-48562759D01*
X35244018Y-48659532D01*
X35064670Y-48838567D01*
X34967488Y-49072607D01*
X34967267Y-49326021D01*
X34418957Y-49326021D01*
X34419111Y-49149849D01*
X34322338Y-48915640D01*
X34143303Y-48736292D01*
X33909263Y-48639110D01*
X33655849Y-48638889D01*
X33421640Y-48735662D01*
X33242292Y-48914697D01*
X33145110Y-49148737D01*
X33144889Y-49402151D01*
X32385000Y-49402151D01*
X32385000Y-48513151D01*
X46378289Y-48513151D01*
X46475062Y-48747360D01*
X46654097Y-48926708D01*
X46888137Y-49023890D01*
X47141551Y-49024111D01*
X47375760Y-48927338D01*
X47555108Y-48748303D01*
X47652290Y-48514263D01*
X47652511Y-48260849D01*
X47555738Y-48026640D01*
X47376703Y-47847292D01*
X47142663Y-47750110D01*
X46889249Y-47749889D01*
X46655040Y-47846662D01*
X46475692Y-48025697D01*
X46378510Y-48259737D01*
X46378289Y-48513151D01*
X32385000Y-48513151D01*
X32385000Y-46989151D01*
X46327489Y-46989151D01*
X46424262Y-47223360D01*
X46603297Y-47402708D01*
X46837337Y-47499890D01*
X47090751Y-47500111D01*
X47324960Y-47403338D01*
X47504308Y-47224303D01*
X47601490Y-46990263D01*
X47601711Y-46736849D01*
X47504938Y-46502640D01*
X47325903Y-46323292D01*
X47091863Y-46226110D01*
X46838449Y-46225889D01*
X46604240Y-46322662D01*
X46424892Y-46501697D01*
X46327710Y-46735737D01*
X46327489Y-46989151D01*
X32385000Y-46989151D01*
X32385000Y-46049351D01*
X33144889Y-46049351D01*
X33241662Y-46283560D01*
X33420697Y-46462908D01*
X33654737Y-46560090D01*
X33908151Y-46560311D01*
X34142360Y-46463538D01*
X34321708Y-46284503D01*
X34377163Y-46150951D01*
X42034889Y-46150951D01*
X42131662Y-46385160D01*
X42310697Y-46564508D01*
X42544737Y-46661690D01*
X42798151Y-46661911D01*
X43032360Y-46565138D01*
X43211708Y-46386103D01*
X43308890Y-46152063D01*
X43309111Y-45898649D01*
X43212338Y-45664440D01*
X43089464Y-45541351D01*
X45260689Y-45541351D01*
X45357462Y-45775560D01*
X45536497Y-45954908D01*
X45770537Y-46052090D01*
X46023951Y-46052311D01*
X46258160Y-45955538D01*
X46437508Y-45776503D01*
X46534690Y-45542463D01*
X46534911Y-45289049D01*
X46438138Y-45054840D01*
X46259103Y-44875492D01*
X46025063Y-44778310D01*
X45771649Y-44778089D01*
X45537440Y-44874862D01*
X45358092Y-45053897D01*
X45260910Y-45287937D01*
X45260689Y-45541351D01*
X43089464Y-45541351D01*
X43033303Y-45485092D01*
X42799263Y-45387910D01*
X42545849Y-45387689D01*
X42311640Y-45484462D01*
X42132292Y-45663497D01*
X42035110Y-45897537D01*
X42034889Y-46150951D01*
X34377163Y-46150951D01*
X34418890Y-46050463D01*
X34419111Y-45797049D01*
X34322338Y-45562840D01*
X34143303Y-45383492D01*
X33909263Y-45286310D01*
X33655849Y-45286089D01*
X33421640Y-45382862D01*
X33242292Y-45561897D01*
X33145110Y-45795937D01*
X33144889Y-46049351D01*
X32385000Y-46049351D01*
X32385000Y-42798151D01*
X45260689Y-42798151D01*
X45357462Y-43032360D01*
X45536497Y-43211708D01*
X45770537Y-43308890D01*
X46023951Y-43309111D01*
X46258160Y-43212338D01*
X46437508Y-43033303D01*
X46534690Y-42799263D01*
X46534911Y-42545849D01*
X46438138Y-42311640D01*
X46259103Y-42132292D01*
X46025063Y-42035110D01*
X45771649Y-42034889D01*
X45537440Y-42131662D01*
X45358092Y-42310697D01*
X45260910Y-42544737D01*
X45260689Y-42798151D01*
X32385000Y-42798151D01*
X32385000Y-39038951D01*
X39698089Y-39038951D01*
X39794862Y-39273160D01*
X39973897Y-39452508D01*
X40207937Y-39549690D01*
X40461351Y-39549911D01*
X40695560Y-39453138D01*
X40874908Y-39274103D01*
X40972090Y-39040063D01*
X40972311Y-38786649D01*
X40875538Y-38552440D01*
X40696503Y-38373092D01*
X40462463Y-38275910D01*
X40209049Y-38275689D01*
X39974840Y-38372462D01*
X39795492Y-38551497D01*
X39698310Y-38785537D01*
X39698089Y-39038951D01*
X32385000Y-39038951D01*
X32385000Y-35889351D01*
X37630089Y-35889351D01*
X37726862Y-36123560D01*
X37905897Y-36302908D01*
X38139937Y-36400090D01*
X38393351Y-36400311D01*
X38627560Y-36303538D01*
X38806908Y-36124503D01*
X38883457Y-35940151D01*
X42288889Y-35940151D01*
X42385662Y-36174360D01*
X42564697Y-36353708D01*
X42798737Y-36450890D01*
X43052151Y-36451111D01*
X43286360Y-36354338D01*
X43465708Y-36175303D01*
X43489522Y-36117951D01*
X45641689Y-36117951D01*
X45738462Y-36352160D01*
X45917497Y-36531508D01*
X46151537Y-36628690D01*
X46404951Y-36628911D01*
X46639160Y-36532138D01*
X46818508Y-36353103D01*
X46915690Y-36119063D01*
X46915911Y-35865649D01*
X46819138Y-35631440D01*
X46640103Y-35452092D01*
X46406063Y-35354910D01*
X46152649Y-35354689D01*
X45918440Y-35451462D01*
X45739092Y-35630497D01*
X45641910Y-35864537D01*
X45641689Y-36117951D01*
X43489522Y-36117951D01*
X43562890Y-35941263D01*
X43563111Y-35687849D01*
X43466338Y-35453640D01*
X43287303Y-35274292D01*
X43053263Y-35177110D01*
X42799849Y-35176889D01*
X42565640Y-35273662D01*
X42386292Y-35452697D01*
X42289110Y-35686737D01*
X42288889Y-35940151D01*
X38883457Y-35940151D01*
X38904090Y-35890463D01*
X38904311Y-35637049D01*
X38807538Y-35402840D01*
X38628503Y-35223492D01*
X38394463Y-35126310D01*
X38141049Y-35126089D01*
X37906840Y-35222862D01*
X37727492Y-35401897D01*
X37630310Y-35635937D01*
X37630089Y-35889351D01*
X32385000Y-35889351D01*
X32385000Y-31495151D01*
X38351889Y-31495151D01*
X38448662Y-31729360D01*
X38627697Y-31908708D01*
X38861737Y-32005890D01*
X39115151Y-32006111D01*
X39349360Y-31909338D01*
X39528708Y-31730303D01*
X39625890Y-31496263D01*
X39625935Y-31444351D01*
X47495889Y-31444351D01*
X47592662Y-31678560D01*
X47771697Y-31857908D01*
X48005737Y-31955090D01*
X48259151Y-31955311D01*
X48493360Y-31858538D01*
X48672708Y-31679503D01*
X48769890Y-31445463D01*
X48770111Y-31192049D01*
X48673338Y-30957840D01*
X48494303Y-30778492D01*
X48260263Y-30681310D01*
X48006849Y-30681089D01*
X47772640Y-30777862D01*
X47593292Y-30956897D01*
X47496110Y-31190937D01*
X47495889Y-31444351D01*
X39625935Y-31444351D01*
X39626111Y-31242849D01*
X39529338Y-31008640D01*
X39350303Y-30829292D01*
X39116263Y-30732110D01*
X38862849Y-30731889D01*
X38628640Y-30828662D01*
X38449292Y-31007697D01*
X38352110Y-31241737D01*
X38351889Y-31495151D01*
X32385000Y-31495151D01*
X32385000Y-30504551D01*
X43127089Y-30504551D01*
X43223862Y-30738760D01*
X43402897Y-30918108D01*
X43636937Y-31015290D01*
X43890351Y-31015511D01*
X44124560Y-30918738D01*
X44303908Y-30739703D01*
X44401090Y-30505663D01*
X44401311Y-30252249D01*
X44304538Y-30018040D01*
X44125503Y-29838692D01*
X43891463Y-29741510D01*
X43638049Y-29741289D01*
X43403840Y-29838062D01*
X43224492Y-30017097D01*
X43127310Y-30251137D01*
X43127089Y-30504551D01*
X32385000Y-30504551D01*
X32385000Y-28904351D01*
X43076289Y-28904351D01*
X43173062Y-29138560D01*
X43352097Y-29317908D01*
X43586137Y-29415090D01*
X43839551Y-29415311D01*
X44073760Y-29318538D01*
X44253108Y-29139503D01*
X44350290Y-28905463D01*
X44350511Y-28652049D01*
X44253738Y-28417840D01*
X44074703Y-28238492D01*
X43840663Y-28141310D01*
X43587249Y-28141089D01*
X43353040Y-28237862D01*
X43173692Y-28416897D01*
X43076510Y-28650937D01*
X43076289Y-28904351D01*
X32385000Y-28904351D01*
X32385000Y-28066151D01*
X36573889Y-28066151D01*
X36670662Y-28300360D01*
X36849697Y-28479708D01*
X37083737Y-28576890D01*
X37337151Y-28577111D01*
X37571360Y-28480338D01*
X37750708Y-28301303D01*
X37847890Y-28067263D01*
X37847913Y-28040751D01*
X38377289Y-28040751D01*
X38474062Y-28274960D01*
X38653097Y-28454308D01*
X38887137Y-28551490D01*
X39140551Y-28551711D01*
X39374760Y-28454938D01*
X39554108Y-28275903D01*
X39641204Y-28066151D01*
X45717889Y-28066151D01*
X45814662Y-28300360D01*
X45993697Y-28479708D01*
X46227737Y-28576890D01*
X46481151Y-28577111D01*
X46715360Y-28480338D01*
X46894708Y-28301303D01*
X46991890Y-28067263D01*
X46992111Y-27813849D01*
X46895338Y-27579640D01*
X46716303Y-27400292D01*
X46482263Y-27303110D01*
X46228849Y-27302889D01*
X45994640Y-27399662D01*
X45815292Y-27578697D01*
X45718110Y-27812737D01*
X45717889Y-28066151D01*
X39641204Y-28066151D01*
X39651290Y-28041863D01*
X39651511Y-27788449D01*
X39554738Y-27554240D01*
X39375703Y-27374892D01*
X39141663Y-27277710D01*
X38888249Y-27277489D01*
X38654040Y-27374262D01*
X38474692Y-27553297D01*
X38377510Y-27787337D01*
X38377289Y-28040751D01*
X37847913Y-28040751D01*
X37848111Y-27813849D01*
X37751338Y-27579640D01*
X37572303Y-27400292D01*
X37338263Y-27303110D01*
X37084849Y-27302889D01*
X36850640Y-27399662D01*
X36671292Y-27578697D01*
X36574110Y-27812737D01*
X36573889Y-28066151D01*
X32385000Y-28066151D01*
X32385000Y-26415151D01*
X33170289Y-26415151D01*
X33267062Y-26649360D01*
X33446097Y-26828708D01*
X33680137Y-26925890D01*
X33933551Y-26926111D01*
X34167760Y-26829338D01*
X34347108Y-26650303D01*
X34444290Y-26416263D01*
X34444511Y-26162849D01*
X34401660Y-26059141D01*
X34668889Y-26059141D01*
X34765662Y-26293350D01*
X34944697Y-26472698D01*
X35178737Y-26569880D01*
X35432151Y-26570101D01*
X35666360Y-26473328D01*
X35673749Y-26465951D01*
X42288889Y-26465951D01*
X42385662Y-26700160D01*
X42564697Y-26879508D01*
X42798737Y-26976690D01*
X43052151Y-26976911D01*
X43286360Y-26880138D01*
X43465708Y-26701103D01*
X43562890Y-26467063D01*
X43563111Y-26213649D01*
X43478450Y-26008751D01*
X43812889Y-26008751D01*
X43909662Y-26242960D01*
X44088697Y-26422308D01*
X44322737Y-26519490D01*
X44576151Y-26519711D01*
X44810360Y-26422938D01*
X44989708Y-26243903D01*
X45086890Y-26009863D01*
X45087111Y-25756449D01*
X44990338Y-25522240D01*
X44811303Y-25342892D01*
X44577263Y-25245710D01*
X44323849Y-25245489D01*
X44089640Y-25342262D01*
X43910292Y-25521297D01*
X43813110Y-25755337D01*
X43812889Y-26008751D01*
X43478450Y-26008751D01*
X43466338Y-25979440D01*
X43287303Y-25800092D01*
X43053263Y-25702910D01*
X42799849Y-25702689D01*
X42565640Y-25799462D01*
X42386292Y-25978497D01*
X42289110Y-26212537D01*
X42288889Y-26465951D01*
X35673749Y-26465951D01*
X35845708Y-26294293D01*
X35942890Y-26060253D01*
X35943111Y-25806839D01*
X35846338Y-25572630D01*
X35667303Y-25393282D01*
X35433263Y-25296100D01*
X35179849Y-25295879D01*
X34945640Y-25392652D01*
X34766292Y-25571687D01*
X34669110Y-25805727D01*
X34668889Y-26059141D01*
X34401660Y-26059141D01*
X34347738Y-25928640D01*
X34168703Y-25749292D01*
X33934663Y-25652110D01*
X33681249Y-25651889D01*
X33447040Y-25748662D01*
X33267692Y-25927697D01*
X33170510Y-26161737D01*
X33170289Y-26415151D01*
X32385000Y-26415151D01*
X32385000Y-24586351D01*
X36599289Y-24586351D01*
X36696062Y-24820560D01*
X36875097Y-24999908D01*
X37109137Y-25097090D01*
X37362551Y-25097311D01*
X37596760Y-25000538D01*
X37776108Y-24821503D01*
X37873290Y-24587463D01*
X37873511Y-24334049D01*
X37776738Y-24099840D01*
X37597703Y-23920492D01*
X37363663Y-23823310D01*
X37110249Y-23823089D01*
X36876040Y-23919862D01*
X36696692Y-24098897D01*
X36599510Y-24332937D01*
X36599289Y-24586351D01*
X32385000Y-24586351D01*
X32385000Y-23241000D01*
X50165000Y-23241000D01*
X50165000Y-62865000D01*
X50165000Y-62865000D01*
G37*
X50165000Y-62865000D02*
X32385000Y-62865000D01*
X32385000Y-60682675D01*
X34623400Y-60682675D01*
X34623400Y-60729325D01*
X34714029Y-61184948D01*
X34972119Y-61571206D01*
X35358377Y-61829296D01*
X35814000Y-61919925D01*
X36269623Y-61829296D01*
X36655881Y-61571206D01*
X36913971Y-61184948D01*
X37004600Y-60729325D01*
X37004600Y-60682675D01*
X36913971Y-60227052D01*
X36655881Y-59840794D01*
X36269623Y-59582704D01*
X35814000Y-59492075D01*
X35358377Y-59582704D01*
X34972119Y-59840794D01*
X34714029Y-60227052D01*
X34623400Y-60682675D01*
X32385000Y-60682675D01*
X32385000Y-58142675D01*
X34623400Y-58142675D01*
X34623400Y-58189325D01*
X34714029Y-58644948D01*
X34972119Y-59031206D01*
X35358377Y-59289296D01*
X35814000Y-59379925D01*
X36269623Y-59289296D01*
X36655881Y-59031206D01*
X36913971Y-58644948D01*
X36926266Y-58583136D01*
X37147179Y-59054490D01*
X37579053Y-59448688D01*
X37901240Y-59582134D01*
X37898377Y-59582704D01*
X37512119Y-59840794D01*
X37254029Y-60227052D01*
X37163400Y-60682675D01*
X37163400Y-60729325D01*
X37254029Y-61184948D01*
X37512119Y-61571206D01*
X37898377Y-61829296D01*
X38354000Y-61919925D01*
X38809623Y-61829296D01*
X39195881Y-61571206D01*
X39453971Y-61184948D01*
X39544600Y-60729325D01*
X39544600Y-60682675D01*
X39703400Y-60682675D01*
X39703400Y-60729325D01*
X39794029Y-61184948D01*
X40052119Y-61571206D01*
X40438377Y-61829296D01*
X40894000Y-61919925D01*
X41349623Y-61829296D01*
X41735881Y-61571206D01*
X41993971Y-61184948D01*
X42084600Y-60729325D01*
X42084600Y-60682675D01*
X42243400Y-60682675D01*
X42243400Y-60729325D01*
X42334029Y-61184948D01*
X42592119Y-61571206D01*
X42978377Y-61829296D01*
X43434000Y-61919925D01*
X43889623Y-61829296D01*
X44275881Y-61571206D01*
X44533971Y-61184948D01*
X44624600Y-60729325D01*
X44624600Y-60682675D01*
X44783400Y-60682675D01*
X44783400Y-60729325D01*
X44874029Y-61184948D01*
X45132119Y-61571206D01*
X45518377Y-61829296D01*
X45974000Y-61919925D01*
X46429623Y-61829296D01*
X46815881Y-61571206D01*
X47073971Y-61184948D01*
X47164600Y-60729325D01*
X47164600Y-60682675D01*
X47073971Y-60227052D01*
X46815881Y-59840794D01*
X46429623Y-59582704D01*
X45974000Y-59492075D01*
X45518377Y-59582704D01*
X45132119Y-59840794D01*
X44874029Y-60227052D01*
X44783400Y-60682675D01*
X44624600Y-60682675D01*
X44533971Y-60227052D01*
X44275881Y-59840794D01*
X43889623Y-59582704D01*
X43434000Y-59492075D01*
X42978377Y-59582704D01*
X42592119Y-59840794D01*
X42334029Y-60227052D01*
X42243400Y-60682675D01*
X42084600Y-60682675D01*
X41993971Y-60227052D01*
X41735881Y-59840794D01*
X41349623Y-59582704D01*
X40894000Y-59492075D01*
X40438377Y-59582704D01*
X40052119Y-59840794D01*
X39794029Y-60227052D01*
X39703400Y-60682675D01*
X39544600Y-60682675D01*
X39453971Y-60227052D01*
X39195881Y-59840794D01*
X38809623Y-59582704D01*
X38806760Y-59582134D01*
X39128947Y-59448688D01*
X39560821Y-59054490D01*
X39781734Y-58583136D01*
X39794029Y-58644948D01*
X40052119Y-59031206D01*
X40438377Y-59289296D01*
X40894000Y-59379925D01*
X41349623Y-59289296D01*
X41735881Y-59031206D01*
X41993971Y-58644948D01*
X42084600Y-58189325D01*
X42084600Y-58142675D01*
X41993971Y-57687052D01*
X41735881Y-57300794D01*
X41349623Y-57042704D01*
X40894000Y-56952075D01*
X40438377Y-57042704D01*
X40052119Y-57300794D01*
X39794029Y-57687052D01*
X39781734Y-57748864D01*
X39560821Y-57277510D01*
X39128947Y-56883312D01*
X38850908Y-56768151D01*
X42034889Y-56768151D01*
X42131662Y-57002360D01*
X42310697Y-57181708D01*
X42544737Y-57278890D01*
X42624796Y-57278960D01*
X42592119Y-57300794D01*
X42334029Y-57687052D01*
X42243400Y-58142675D01*
X42243400Y-58189325D01*
X42334029Y-58644948D01*
X42592119Y-59031206D01*
X42978377Y-59289296D01*
X43434000Y-59379925D01*
X43889623Y-59289296D01*
X44275881Y-59031206D01*
X44533971Y-58644948D01*
X44624600Y-58189325D01*
X44624600Y-58142675D01*
X44533971Y-57687052D01*
X44276955Y-57302400D01*
X44776994Y-57302400D01*
X44776994Y-59029600D01*
X44799795Y-59150779D01*
X44871412Y-59262074D01*
X44980686Y-59336738D01*
X45110400Y-59363006D01*
X46837600Y-59363006D01*
X46958779Y-59340205D01*
X47070074Y-59268588D01*
X47144738Y-59159314D01*
X47171006Y-59029600D01*
X47171006Y-57302400D01*
X47148205Y-57181221D01*
X47076588Y-57069926D01*
X46967314Y-56995262D01*
X46837600Y-56968994D01*
X45110400Y-56968994D01*
X44989221Y-56991795D01*
X44877926Y-57063412D01*
X44803262Y-57172686D01*
X44776994Y-57302400D01*
X44276955Y-57302400D01*
X44275881Y-57300794D01*
X43889623Y-57042704D01*
X43434000Y-56952075D01*
X43214882Y-56995660D01*
X43308890Y-56769263D01*
X43309111Y-56515849D01*
X43212338Y-56281640D01*
X43033303Y-56102292D01*
X42799263Y-56005110D01*
X42545849Y-56004889D01*
X42311640Y-56101662D01*
X42132292Y-56280697D01*
X42035110Y-56514737D01*
X42034889Y-56768151D01*
X38850908Y-56768151D01*
X38713026Y-56711042D01*
X38481000Y-56832183D01*
X38481000Y-58039000D01*
X38501000Y-58039000D01*
X38501000Y-58293000D01*
X38481000Y-58293000D01*
X38481000Y-58313000D01*
X38227000Y-58313000D01*
X38227000Y-58293000D01*
X38207000Y-58293000D01*
X38207000Y-58039000D01*
X38227000Y-58039000D01*
X38227000Y-56832183D01*
X37994974Y-56711042D01*
X37579053Y-56883312D01*
X37147179Y-57277510D01*
X36926266Y-57748864D01*
X36913971Y-57687052D01*
X36655881Y-57300794D01*
X36269623Y-57042704D01*
X35814000Y-56952075D01*
X35358377Y-57042704D01*
X34972119Y-57300794D01*
X34714029Y-57687052D01*
X34623400Y-58142675D01*
X32385000Y-58142675D01*
X32385000Y-55637977D01*
X32404697Y-55657708D01*
X32638737Y-55754890D01*
X32892151Y-55755111D01*
X33126360Y-55658338D01*
X33305708Y-55479303D01*
X33402890Y-55245263D01*
X33403111Y-54991849D01*
X33306338Y-54757640D01*
X33127303Y-54578292D01*
X32893263Y-54481110D01*
X32639849Y-54480889D01*
X32405640Y-54577662D01*
X32385000Y-54598266D01*
X32385000Y-53415351D01*
X40155289Y-53415351D01*
X40252062Y-53649560D01*
X40431097Y-53828908D01*
X40665137Y-53926090D01*
X40918551Y-53926311D01*
X41152760Y-53829538D01*
X41332108Y-53650503D01*
X41427759Y-53420150D01*
X43960490Y-53420150D01*
X44057263Y-53654359D01*
X44236298Y-53833707D01*
X44470338Y-53930889D01*
X44723752Y-53931110D01*
X44957961Y-53834337D01*
X45137309Y-53655302D01*
X45234491Y-53421262D01*
X45234712Y-53167848D01*
X45137939Y-52933639D01*
X44958904Y-52754291D01*
X44724864Y-52657109D01*
X44471450Y-52656888D01*
X44237241Y-52753661D01*
X44057893Y-52932696D01*
X43960711Y-53166736D01*
X43960490Y-53420150D01*
X41427759Y-53420150D01*
X41429290Y-53416463D01*
X41429511Y-53163049D01*
X41332738Y-52928840D01*
X41153703Y-52749492D01*
X40919663Y-52652310D01*
X40666249Y-52652089D01*
X40432040Y-52748862D01*
X40252692Y-52927897D01*
X40155510Y-53161937D01*
X40155289Y-53415351D01*
X32385000Y-53415351D01*
X32385000Y-51789751D01*
X34414889Y-51789751D01*
X34511662Y-52023960D01*
X34690697Y-52203308D01*
X34924737Y-52300490D01*
X35178151Y-52300711D01*
X35412360Y-52203938D01*
X35591708Y-52024903D01*
X35688890Y-51790863D01*
X35689111Y-51537449D01*
X35625440Y-51383351D01*
X36726289Y-51383351D01*
X36823062Y-51617560D01*
X37002097Y-51796908D01*
X37236137Y-51894090D01*
X37489551Y-51894311D01*
X37723760Y-51797538D01*
X37903108Y-51618503D01*
X38000290Y-51384463D01*
X38000511Y-51131049D01*
X37947335Y-51002351D01*
X38224889Y-51002351D01*
X38321662Y-51236560D01*
X38500697Y-51415908D01*
X38734737Y-51513090D01*
X38988151Y-51513311D01*
X39222360Y-51416538D01*
X39255605Y-51383351D01*
X45616289Y-51383351D01*
X45713062Y-51617560D01*
X45892097Y-51796908D01*
X46126137Y-51894090D01*
X46379551Y-51894311D01*
X46613760Y-51797538D01*
X46793108Y-51618503D01*
X46890290Y-51384463D01*
X46890511Y-51131049D01*
X46868820Y-51078551D01*
X47114889Y-51078551D01*
X47211662Y-51312760D01*
X47390697Y-51492108D01*
X47624737Y-51589290D01*
X47878151Y-51589511D01*
X48112360Y-51492738D01*
X48291708Y-51313703D01*
X48388890Y-51079663D01*
X48389111Y-50826249D01*
X48292338Y-50592040D01*
X48113303Y-50412692D01*
X47879263Y-50315510D01*
X47625849Y-50315289D01*
X47391640Y-50412062D01*
X47212292Y-50591097D01*
X47115110Y-50825137D01*
X47114889Y-51078551D01*
X46868820Y-51078551D01*
X46793738Y-50896840D01*
X46614703Y-50717492D01*
X46380663Y-50620310D01*
X46127249Y-50620089D01*
X45893040Y-50716862D01*
X45713692Y-50895897D01*
X45616510Y-51129937D01*
X45616289Y-51383351D01*
X39255605Y-51383351D01*
X39401708Y-51237503D01*
X39498890Y-51003463D01*
X39499111Y-50750049D01*
X39402338Y-50515840D01*
X39223303Y-50336492D01*
X38989263Y-50239310D01*
X38735849Y-50239089D01*
X38501640Y-50335862D01*
X38322292Y-50514897D01*
X38225110Y-50748937D01*
X38224889Y-51002351D01*
X37947335Y-51002351D01*
X37903738Y-50896840D01*
X37724703Y-50717492D01*
X37490663Y-50620310D01*
X37237249Y-50620089D01*
X37003040Y-50716862D01*
X36823692Y-50895897D01*
X36726510Y-51129937D01*
X36726289Y-51383351D01*
X35625440Y-51383351D01*
X35592338Y-51303240D01*
X35413303Y-51123892D01*
X35179263Y-51026710D01*
X34925849Y-51026489D01*
X34691640Y-51123262D01*
X34512292Y-51302297D01*
X34415110Y-51536337D01*
X34414889Y-51789751D01*
X32385000Y-51789751D01*
X32385000Y-49402151D01*
X33144889Y-49402151D01*
X33241662Y-49636360D01*
X33420697Y-49815708D01*
X33654737Y-49912890D01*
X33908151Y-49913111D01*
X34142360Y-49816338D01*
X34321708Y-49637303D01*
X34418890Y-49403263D01*
X34418957Y-49326021D01*
X34967267Y-49326021D01*
X35064040Y-49560230D01*
X35243075Y-49739578D01*
X35477115Y-49836760D01*
X35730529Y-49836981D01*
X35964738Y-49740208D01*
X36144086Y-49561173D01*
X36241268Y-49327133D01*
X36241269Y-49325951D01*
X43863689Y-49325951D01*
X43960462Y-49560160D01*
X44139497Y-49739508D01*
X44373537Y-49836690D01*
X44626951Y-49836911D01*
X44861160Y-49740138D01*
X45040508Y-49561103D01*
X45137690Y-49327063D01*
X45137911Y-49073649D01*
X45041138Y-48839440D01*
X44862103Y-48660092D01*
X44628063Y-48562910D01*
X44374649Y-48562689D01*
X44140440Y-48659462D01*
X43961092Y-48838497D01*
X43863910Y-49072537D01*
X43863689Y-49325951D01*
X36241269Y-49325951D01*
X36241489Y-49073719D01*
X36144716Y-48839510D01*
X35965681Y-48660162D01*
X35731641Y-48562980D01*
X35478227Y-48562759D01*
X35244018Y-48659532D01*
X35064670Y-48838567D01*
X34967488Y-49072607D01*
X34967267Y-49326021D01*
X34418957Y-49326021D01*
X34419111Y-49149849D01*
X34322338Y-48915640D01*
X34143303Y-48736292D01*
X33909263Y-48639110D01*
X33655849Y-48638889D01*
X33421640Y-48735662D01*
X33242292Y-48914697D01*
X33145110Y-49148737D01*
X33144889Y-49402151D01*
X32385000Y-49402151D01*
X32385000Y-48513151D01*
X46378289Y-48513151D01*
X46475062Y-48747360D01*
X46654097Y-48926708D01*
X46888137Y-49023890D01*
X47141551Y-49024111D01*
X47375760Y-48927338D01*
X47555108Y-48748303D01*
X47652290Y-48514263D01*
X47652511Y-48260849D01*
X47555738Y-48026640D01*
X47376703Y-47847292D01*
X47142663Y-47750110D01*
X46889249Y-47749889D01*
X46655040Y-47846662D01*
X46475692Y-48025697D01*
X46378510Y-48259737D01*
X46378289Y-48513151D01*
X32385000Y-48513151D01*
X32385000Y-46989151D01*
X46327489Y-46989151D01*
X46424262Y-47223360D01*
X46603297Y-47402708D01*
X46837337Y-47499890D01*
X47090751Y-47500111D01*
X47324960Y-47403338D01*
X47504308Y-47224303D01*
X47601490Y-46990263D01*
X47601711Y-46736849D01*
X47504938Y-46502640D01*
X47325903Y-46323292D01*
X47091863Y-46226110D01*
X46838449Y-46225889D01*
X46604240Y-46322662D01*
X46424892Y-46501697D01*
X46327710Y-46735737D01*
X46327489Y-46989151D01*
X32385000Y-46989151D01*
X32385000Y-46049351D01*
X33144889Y-46049351D01*
X33241662Y-46283560D01*
X33420697Y-46462908D01*
X33654737Y-46560090D01*
X33908151Y-46560311D01*
X34142360Y-46463538D01*
X34321708Y-46284503D01*
X34377163Y-46150951D01*
X42034889Y-46150951D01*
X42131662Y-46385160D01*
X42310697Y-46564508D01*
X42544737Y-46661690D01*
X42798151Y-46661911D01*
X43032360Y-46565138D01*
X43211708Y-46386103D01*
X43308890Y-46152063D01*
X43309111Y-45898649D01*
X43212338Y-45664440D01*
X43089464Y-45541351D01*
X45260689Y-45541351D01*
X45357462Y-45775560D01*
X45536497Y-45954908D01*
X45770537Y-46052090D01*
X46023951Y-46052311D01*
X46258160Y-45955538D01*
X46437508Y-45776503D01*
X46534690Y-45542463D01*
X46534911Y-45289049D01*
X46438138Y-45054840D01*
X46259103Y-44875492D01*
X46025063Y-44778310D01*
X45771649Y-44778089D01*
X45537440Y-44874862D01*
X45358092Y-45053897D01*
X45260910Y-45287937D01*
X45260689Y-45541351D01*
X43089464Y-45541351D01*
X43033303Y-45485092D01*
X42799263Y-45387910D01*
X42545849Y-45387689D01*
X42311640Y-45484462D01*
X42132292Y-45663497D01*
X42035110Y-45897537D01*
X42034889Y-46150951D01*
X34377163Y-46150951D01*
X34418890Y-46050463D01*
X34419111Y-45797049D01*
X34322338Y-45562840D01*
X34143303Y-45383492D01*
X33909263Y-45286310D01*
X33655849Y-45286089D01*
X33421640Y-45382862D01*
X33242292Y-45561897D01*
X33145110Y-45795937D01*
X33144889Y-46049351D01*
X32385000Y-46049351D01*
X32385000Y-42798151D01*
X45260689Y-42798151D01*
X45357462Y-43032360D01*
X45536497Y-43211708D01*
X45770537Y-43308890D01*
X46023951Y-43309111D01*
X46258160Y-43212338D01*
X46437508Y-43033303D01*
X46534690Y-42799263D01*
X46534911Y-42545849D01*
X46438138Y-42311640D01*
X46259103Y-42132292D01*
X46025063Y-42035110D01*
X45771649Y-42034889D01*
X45537440Y-42131662D01*
X45358092Y-42310697D01*
X45260910Y-42544737D01*
X45260689Y-42798151D01*
X32385000Y-42798151D01*
X32385000Y-39038951D01*
X39698089Y-39038951D01*
X39794862Y-39273160D01*
X39973897Y-39452508D01*
X40207937Y-39549690D01*
X40461351Y-39549911D01*
X40695560Y-39453138D01*
X40874908Y-39274103D01*
X40972090Y-39040063D01*
X40972311Y-38786649D01*
X40875538Y-38552440D01*
X40696503Y-38373092D01*
X40462463Y-38275910D01*
X40209049Y-38275689D01*
X39974840Y-38372462D01*
X39795492Y-38551497D01*
X39698310Y-38785537D01*
X39698089Y-39038951D01*
X32385000Y-39038951D01*
X32385000Y-35889351D01*
X37630089Y-35889351D01*
X37726862Y-36123560D01*
X37905897Y-36302908D01*
X38139937Y-36400090D01*
X38393351Y-36400311D01*
X38627560Y-36303538D01*
X38806908Y-36124503D01*
X38883457Y-35940151D01*
X42288889Y-35940151D01*
X42385662Y-36174360D01*
X42564697Y-36353708D01*
X42798737Y-36450890D01*
X43052151Y-36451111D01*
X43286360Y-36354338D01*
X43465708Y-36175303D01*
X43489522Y-36117951D01*
X45641689Y-36117951D01*
X45738462Y-36352160D01*
X45917497Y-36531508D01*
X46151537Y-36628690D01*
X46404951Y-36628911D01*
X46639160Y-36532138D01*
X46818508Y-36353103D01*
X46915690Y-36119063D01*
X46915911Y-35865649D01*
X46819138Y-35631440D01*
X46640103Y-35452092D01*
X46406063Y-35354910D01*
X46152649Y-35354689D01*
X45918440Y-35451462D01*
X45739092Y-35630497D01*
X45641910Y-35864537D01*
X45641689Y-36117951D01*
X43489522Y-36117951D01*
X43562890Y-35941263D01*
X43563111Y-35687849D01*
X43466338Y-35453640D01*
X43287303Y-35274292D01*
X43053263Y-35177110D01*
X42799849Y-35176889D01*
X42565640Y-35273662D01*
X42386292Y-35452697D01*
X42289110Y-35686737D01*
X42288889Y-35940151D01*
X38883457Y-35940151D01*
X38904090Y-35890463D01*
X38904311Y-35637049D01*
X38807538Y-35402840D01*
X38628503Y-35223492D01*
X38394463Y-35126310D01*
X38141049Y-35126089D01*
X37906840Y-35222862D01*
X37727492Y-35401897D01*
X37630310Y-35635937D01*
X37630089Y-35889351D01*
X32385000Y-35889351D01*
X32385000Y-31495151D01*
X38351889Y-31495151D01*
X38448662Y-31729360D01*
X38627697Y-31908708D01*
X38861737Y-32005890D01*
X39115151Y-32006111D01*
X39349360Y-31909338D01*
X39528708Y-31730303D01*
X39625890Y-31496263D01*
X39625935Y-31444351D01*
X47495889Y-31444351D01*
X47592662Y-31678560D01*
X47771697Y-31857908D01*
X48005737Y-31955090D01*
X48259151Y-31955311D01*
X48493360Y-31858538D01*
X48672708Y-31679503D01*
X48769890Y-31445463D01*
X48770111Y-31192049D01*
X48673338Y-30957840D01*
X48494303Y-30778492D01*
X48260263Y-30681310D01*
X48006849Y-30681089D01*
X47772640Y-30777862D01*
X47593292Y-30956897D01*
X47496110Y-31190937D01*
X47495889Y-31444351D01*
X39625935Y-31444351D01*
X39626111Y-31242849D01*
X39529338Y-31008640D01*
X39350303Y-30829292D01*
X39116263Y-30732110D01*
X38862849Y-30731889D01*
X38628640Y-30828662D01*
X38449292Y-31007697D01*
X38352110Y-31241737D01*
X38351889Y-31495151D01*
X32385000Y-31495151D01*
X32385000Y-30504551D01*
X43127089Y-30504551D01*
X43223862Y-30738760D01*
X43402897Y-30918108D01*
X43636937Y-31015290D01*
X43890351Y-31015511D01*
X44124560Y-30918738D01*
X44303908Y-30739703D01*
X44401090Y-30505663D01*
X44401311Y-30252249D01*
X44304538Y-30018040D01*
X44125503Y-29838692D01*
X43891463Y-29741510D01*
X43638049Y-29741289D01*
X43403840Y-29838062D01*
X43224492Y-30017097D01*
X43127310Y-30251137D01*
X43127089Y-30504551D01*
X32385000Y-30504551D01*
X32385000Y-28904351D01*
X43076289Y-28904351D01*
X43173062Y-29138560D01*
X43352097Y-29317908D01*
X43586137Y-29415090D01*
X43839551Y-29415311D01*
X44073760Y-29318538D01*
X44253108Y-29139503D01*
X44350290Y-28905463D01*
X44350511Y-28652049D01*
X44253738Y-28417840D01*
X44074703Y-28238492D01*
X43840663Y-28141310D01*
X43587249Y-28141089D01*
X43353040Y-28237862D01*
X43173692Y-28416897D01*
X43076510Y-28650937D01*
X43076289Y-28904351D01*
X32385000Y-28904351D01*
X32385000Y-28066151D01*
X36573889Y-28066151D01*
X36670662Y-28300360D01*
X36849697Y-28479708D01*
X37083737Y-28576890D01*
X37337151Y-28577111D01*
X37571360Y-28480338D01*
X37750708Y-28301303D01*
X37847890Y-28067263D01*
X37847913Y-28040751D01*
X38377289Y-28040751D01*
X38474062Y-28274960D01*
X38653097Y-28454308D01*
X38887137Y-28551490D01*
X39140551Y-28551711D01*
X39374760Y-28454938D01*
X39554108Y-28275903D01*
X39641204Y-28066151D01*
X45717889Y-28066151D01*
X45814662Y-28300360D01*
X45993697Y-28479708D01*
X46227737Y-28576890D01*
X46481151Y-28577111D01*
X46715360Y-28480338D01*
X46894708Y-28301303D01*
X46991890Y-28067263D01*
X46992111Y-27813849D01*
X46895338Y-27579640D01*
X46716303Y-27400292D01*
X46482263Y-27303110D01*
X46228849Y-27302889D01*
X45994640Y-27399662D01*
X45815292Y-27578697D01*
X45718110Y-27812737D01*
X45717889Y-28066151D01*
X39641204Y-28066151D01*
X39651290Y-28041863D01*
X39651511Y-27788449D01*
X39554738Y-27554240D01*
X39375703Y-27374892D01*
X39141663Y-27277710D01*
X38888249Y-27277489D01*
X38654040Y-27374262D01*
X38474692Y-27553297D01*
X38377510Y-27787337D01*
X38377289Y-28040751D01*
X37847913Y-28040751D01*
X37848111Y-27813849D01*
X37751338Y-27579640D01*
X37572303Y-27400292D01*
X37338263Y-27303110D01*
X37084849Y-27302889D01*
X36850640Y-27399662D01*
X36671292Y-27578697D01*
X36574110Y-27812737D01*
X36573889Y-28066151D01*
X32385000Y-28066151D01*
X32385000Y-26415151D01*
X33170289Y-26415151D01*
X33267062Y-26649360D01*
X33446097Y-26828708D01*
X33680137Y-26925890D01*
X33933551Y-26926111D01*
X34167760Y-26829338D01*
X34347108Y-26650303D01*
X34444290Y-26416263D01*
X34444511Y-26162849D01*
X34401660Y-26059141D01*
X34668889Y-26059141D01*
X34765662Y-26293350D01*
X34944697Y-26472698D01*
X35178737Y-26569880D01*
X35432151Y-26570101D01*
X35666360Y-26473328D01*
X35673749Y-26465951D01*
X42288889Y-26465951D01*
X42385662Y-26700160D01*
X42564697Y-26879508D01*
X42798737Y-26976690D01*
X43052151Y-26976911D01*
X43286360Y-26880138D01*
X43465708Y-26701103D01*
X43562890Y-26467063D01*
X43563111Y-26213649D01*
X43478450Y-26008751D01*
X43812889Y-26008751D01*
X43909662Y-26242960D01*
X44088697Y-26422308D01*
X44322737Y-26519490D01*
X44576151Y-26519711D01*
X44810360Y-26422938D01*
X44989708Y-26243903D01*
X45086890Y-26009863D01*
X45087111Y-25756449D01*
X44990338Y-25522240D01*
X44811303Y-25342892D01*
X44577263Y-25245710D01*
X44323849Y-25245489D01*
X44089640Y-25342262D01*
X43910292Y-25521297D01*
X43813110Y-25755337D01*
X43812889Y-26008751D01*
X43478450Y-26008751D01*
X43466338Y-25979440D01*
X43287303Y-25800092D01*
X43053263Y-25702910D01*
X42799849Y-25702689D01*
X42565640Y-25799462D01*
X42386292Y-25978497D01*
X42289110Y-26212537D01*
X42288889Y-26465951D01*
X35673749Y-26465951D01*
X35845708Y-26294293D01*
X35942890Y-26060253D01*
X35943111Y-25806839D01*
X35846338Y-25572630D01*
X35667303Y-25393282D01*
X35433263Y-25296100D01*
X35179849Y-25295879D01*
X34945640Y-25392652D01*
X34766292Y-25571687D01*
X34669110Y-25805727D01*
X34668889Y-26059141D01*
X34401660Y-26059141D01*
X34347738Y-25928640D01*
X34168703Y-25749292D01*
X33934663Y-25652110D01*
X33681249Y-25651889D01*
X33447040Y-25748662D01*
X33267692Y-25927697D01*
X33170510Y-26161737D01*
X33170289Y-26415151D01*
X32385000Y-26415151D01*
X32385000Y-24586351D01*
X36599289Y-24586351D01*
X36696062Y-24820560D01*
X36875097Y-24999908D01*
X37109137Y-25097090D01*
X37362551Y-25097311D01*
X37596760Y-25000538D01*
X37776108Y-24821503D01*
X37873290Y-24587463D01*
X37873511Y-24334049D01*
X37776738Y-24099840D01*
X37597703Y-23920492D01*
X37363663Y-23823310D01*
X37110249Y-23823089D01*
X36876040Y-23919862D01*
X36696692Y-24098897D01*
X36599510Y-24332937D01*
X36599289Y-24586351D01*
X32385000Y-24586351D01*
X32385000Y-23241000D01*
X50165000Y-23241000D01*
X50165000Y-62865000D01*
M02*
