G04 #@! TF.FileFunction,Copper,L1,Top,Signal*
%FSLAX46Y46*%
G04 Gerber Fmt 4.6, Leading zero omitted, Abs format (unit mm)*
G04 Created by KiCad (PCBNEW 4.0.4-stable) date 10/28/16 22:46:39*
%MOMM*%
%LPD*%
G01*
G04 APERTURE LIST*
%ADD10C,0.100000*%
%ADD11R,1.000000X1.600000*%
%ADD12R,1.727200X1.727200*%
%ADD13O,1.727200X1.727200*%
%ADD14R,0.600000X0.600000*%
%ADD15R,0.600000X0.400000*%
%ADD16R,0.400000X0.600000*%
%ADD17R,0.600000X1.500000*%
%ADD18C,0.620000*%
%ADD19C,0.200000*%
%ADD20C,0.300000*%
G04 APERTURE END LIST*
D10*
D11*
X40894000Y-34290000D03*
X37894000Y-34290000D03*
X42926000Y-34290000D03*
X45926000Y-34290000D03*
X39394000Y-55118000D03*
X42394000Y-55118000D03*
X36830000Y-55118000D03*
X33830000Y-55118000D03*
D12*
X45974000Y-58166000D03*
D13*
X45974000Y-60706000D03*
X43434000Y-58166000D03*
X43434000Y-60706000D03*
X40894000Y-58166000D03*
X40894000Y-60706000D03*
X38354000Y-58166000D03*
X38354000Y-60706000D03*
X35814000Y-58166000D03*
X35814000Y-60706000D03*
D14*
X37214400Y-46861600D03*
D15*
X37214400Y-47611600D03*
D14*
X37214400Y-48361600D03*
X39014400Y-48361600D03*
D15*
X39014400Y-47611600D03*
D14*
X39014400Y-46861600D03*
X47904400Y-48361600D03*
D15*
X47904400Y-47611600D03*
D14*
X47904400Y-46861600D03*
X46104400Y-46861600D03*
D15*
X46104400Y-47611600D03*
D14*
X46104400Y-48361600D03*
X37364400Y-51813600D03*
D16*
X38114400Y-51813600D03*
D14*
X38864400Y-51813600D03*
X38864400Y-50013600D03*
D16*
X38114400Y-50013600D03*
D14*
X37364400Y-50013600D03*
X47754400Y-50013600D03*
D16*
X47004400Y-50013600D03*
D14*
X46254400Y-50013600D03*
X46254400Y-51813600D03*
D16*
X47004400Y-51813600D03*
D14*
X47754400Y-51813600D03*
X33796400Y-50151600D03*
D15*
X33796400Y-50901600D03*
D14*
X33796400Y-51651600D03*
X35596400Y-51651600D03*
D15*
X35596400Y-50901600D03*
D14*
X35596400Y-50151600D03*
X44486400Y-51651600D03*
D15*
X44486400Y-50901600D03*
D14*
X44486400Y-50151600D03*
X42686400Y-50151600D03*
D15*
X42686400Y-50901600D03*
D14*
X42686400Y-51651600D03*
X33796400Y-46849600D03*
D15*
X33796400Y-47599600D03*
D14*
X33796400Y-48349600D03*
X35596400Y-48349600D03*
D15*
X35596400Y-47599600D03*
D14*
X35596400Y-46849600D03*
X44486400Y-48361600D03*
D15*
X44486400Y-47611600D03*
D14*
X44486400Y-46861600D03*
X42686400Y-46861600D03*
D15*
X42686400Y-47611600D03*
D14*
X42686400Y-48361600D03*
D17*
X36093400Y-42679600D03*
X37363400Y-42679600D03*
X38633400Y-42679600D03*
X39903400Y-42679600D03*
X41173400Y-42679600D03*
X42443400Y-42679600D03*
X43713400Y-42679600D03*
X44983400Y-42679600D03*
X44983400Y-37279600D03*
X43713400Y-37279600D03*
X42443400Y-37279600D03*
X41173400Y-37279600D03*
X39903400Y-37279600D03*
X38633400Y-37279600D03*
X37363400Y-37279600D03*
X36093400Y-37279600D03*
D14*
X35458400Y-30327600D03*
D15*
X35458400Y-29577600D03*
D14*
X35458400Y-28827600D03*
X33658400Y-28827600D03*
D15*
X33658400Y-29577600D03*
D14*
X33658400Y-30327600D03*
X42802400Y-28827600D03*
D15*
X42802400Y-29577600D03*
D14*
X42802400Y-30327600D03*
X44602400Y-30327600D03*
D15*
X44602400Y-29577600D03*
D14*
X44602400Y-28827600D03*
X35308400Y-25375600D03*
D16*
X34558400Y-25375600D03*
D14*
X33808400Y-25375600D03*
X33808400Y-27175600D03*
D16*
X34558400Y-27175600D03*
D14*
X35308400Y-27175600D03*
X42952400Y-27175600D03*
D16*
X43702400Y-27175600D03*
D14*
X44452400Y-27175600D03*
X44452400Y-25375600D03*
D16*
X43702400Y-25375600D03*
D14*
X42952400Y-25375600D03*
X39014400Y-27025600D03*
D15*
X39014400Y-26275600D03*
D14*
X39014400Y-25525600D03*
X37214400Y-25525600D03*
D15*
X37214400Y-26275600D03*
D14*
X37214400Y-27025600D03*
X46358400Y-25525600D03*
D15*
X46358400Y-26275600D03*
D14*
X46358400Y-27025600D03*
X48158400Y-27025600D03*
D15*
X48158400Y-26275600D03*
D14*
X48158400Y-25525600D03*
X39014400Y-30327600D03*
D15*
X39014400Y-29577600D03*
D14*
X39014400Y-28827600D03*
X37214400Y-28827600D03*
D15*
X37214400Y-29577600D03*
D14*
X37214400Y-30327600D03*
X46358400Y-28827600D03*
D15*
X46358400Y-29577600D03*
D14*
X46358400Y-30327600D03*
X48158400Y-30327600D03*
D15*
X48158400Y-29577600D03*
D14*
X48158400Y-28827600D03*
D18*
X38125400Y-46871609D03*
X42676391Y-49276000D03*
X48133000Y-27889200D03*
X40894000Y-35814000D03*
X46355000Y-24511000D03*
X34544000Y-28803600D03*
X34569400Y-30380564D03*
X43986403Y-51764283D03*
X38125400Y-48393207D03*
X35604378Y-49199870D03*
X35306000Y-25932990D03*
X42672000Y-56642000D03*
X32766000Y-55118000D03*
X46278800Y-35991800D03*
X38267200Y-35763200D03*
X40335200Y-38912800D03*
X38989000Y-31369000D03*
X48133000Y-31318200D03*
X46355000Y-27940000D03*
X42926000Y-26339800D03*
X44450000Y-25882600D03*
X37211000Y-27940000D03*
X33807400Y-26289000D03*
X42672000Y-46024800D03*
X44500800Y-49199800D03*
X46253400Y-51257200D03*
X47752000Y-50952400D03*
X33782000Y-45923200D03*
X37363400Y-51257200D03*
X38862000Y-50876200D03*
X43713400Y-28778200D03*
X42926000Y-35814000D03*
X43764200Y-30378400D03*
X37236400Y-24460200D03*
X39014400Y-27914600D03*
X46964600Y-46863000D03*
X47015400Y-48387000D03*
X35052000Y-51663600D03*
X33782000Y-49276000D03*
X45897800Y-45415200D03*
X45897800Y-42672000D03*
X40792400Y-53289200D03*
X44597601Y-53293999D03*
D19*
X37214400Y-46861600D02*
X38115391Y-46861600D01*
X38115391Y-46861600D02*
X38125400Y-46871609D01*
X39014400Y-48361600D02*
X38157007Y-48361600D01*
X38157007Y-48361600D02*
X38125400Y-48393207D01*
X42686400Y-49286009D02*
X42676391Y-49276000D01*
X42686400Y-50151600D02*
X42686400Y-49286009D01*
X33658400Y-28827600D02*
X34520000Y-28827600D01*
X34520000Y-28827600D02*
X34544000Y-28803600D01*
X35458400Y-30327600D02*
X34622364Y-30327600D01*
X34622364Y-30327600D02*
X34569400Y-30380564D01*
X48158400Y-27025600D02*
X48158400Y-27863800D01*
X48158400Y-27863800D02*
X48133000Y-27889200D01*
X46358400Y-25525600D02*
X46358400Y-24514400D01*
X46358400Y-24514400D02*
X46355000Y-24511000D01*
D20*
X39394000Y-55118000D02*
X39394000Y-57126000D01*
X39394000Y-57126000D02*
X38354000Y-58166000D01*
X40894000Y-35814000D02*
X40894000Y-37000200D01*
X40894000Y-34290000D02*
X40894000Y-35814000D01*
X40894000Y-37000200D02*
X41173400Y-37279600D01*
D19*
X44424809Y-51764283D02*
X43986403Y-51764283D01*
X44486400Y-51702692D02*
X44424809Y-51764283D01*
X44486400Y-51651600D02*
X44486400Y-51702692D01*
X35596400Y-49191892D02*
X35604378Y-49199870D01*
X35596400Y-48349600D02*
X35596400Y-49191892D01*
X33796400Y-46849600D02*
X33796400Y-45937600D01*
X33796400Y-45937600D02*
X33782000Y-45923200D01*
X38864400Y-50013600D02*
X38864400Y-50873800D01*
X38864400Y-50873800D02*
X38862000Y-50876200D01*
X42686400Y-46861600D02*
X42686400Y-46039200D01*
X42686400Y-46039200D02*
X42672000Y-46024800D01*
X47754400Y-50013600D02*
X47754400Y-50950000D01*
X47754400Y-50950000D02*
X47752000Y-50952400D01*
X44486400Y-48361600D02*
X44486400Y-49185400D01*
X44486400Y-49185400D02*
X44500800Y-49199800D01*
X37214400Y-28827600D02*
X37214400Y-27943400D01*
X37214400Y-27943400D02*
X37211000Y-27940000D01*
X33807400Y-26289000D02*
X33807400Y-27174600D01*
X33807400Y-27174600D02*
X33808400Y-27175600D01*
X39014400Y-30327600D02*
X39014400Y-31343600D01*
X39014400Y-31343600D02*
X38989000Y-31369000D01*
X48158400Y-30327600D02*
X48158400Y-31292800D01*
X48158400Y-31292800D02*
X48133000Y-31318200D01*
X46358400Y-28827600D02*
X46358400Y-27943400D01*
X46358400Y-27943400D02*
X46355000Y-27940000D01*
X42926000Y-26339800D02*
X42926000Y-27149200D01*
X42926000Y-27149200D02*
X42952400Y-27175600D01*
X35308400Y-25930590D02*
X35306000Y-25932990D01*
X35308400Y-25375600D02*
X35308400Y-25930590D01*
D20*
X42394000Y-55118000D02*
X42394000Y-56364000D01*
X42394000Y-56364000D02*
X42672000Y-56642000D01*
X33830000Y-55118000D02*
X32766000Y-55118000D01*
X45926000Y-34290000D02*
X45926000Y-35639000D01*
X45926000Y-35639000D02*
X46278800Y-35991800D01*
X38267200Y-35763200D02*
X38633400Y-36129400D01*
X37894000Y-35390000D02*
X38267200Y-35763200D01*
X37894000Y-34290000D02*
X37894000Y-35390000D01*
X38633400Y-36129400D02*
X38633400Y-37279600D01*
X39903400Y-37279600D02*
X39903400Y-38481000D01*
X39903400Y-38481000D02*
X40335200Y-38912800D01*
D19*
X39014400Y-30327600D02*
X39014400Y-30378692D01*
X39014400Y-30378692D02*
X39036351Y-30400643D01*
X44452400Y-25375600D02*
X44452400Y-25880200D01*
X44452400Y-25880200D02*
X44450000Y-25882600D01*
X46254400Y-51813600D02*
X46254400Y-51258200D01*
X46254400Y-51258200D02*
X46253400Y-51257200D01*
X37364400Y-51813600D02*
X37364400Y-51258200D01*
X37364400Y-51258200D02*
X37363400Y-51257200D01*
X33796400Y-50151600D02*
X33796400Y-49290400D01*
X33796400Y-49290400D02*
X33782000Y-49276000D01*
X46104400Y-46861600D02*
X46963200Y-46861600D01*
X46963200Y-46861600D02*
X46964600Y-46863000D01*
X47904400Y-48361600D02*
X47040800Y-48361600D01*
X47040800Y-48361600D02*
X47015400Y-48387000D01*
X37214400Y-25525600D02*
X37214400Y-24482200D01*
X37214400Y-24482200D02*
X37236400Y-24460200D01*
X39014400Y-27025600D02*
X39014400Y-27914600D01*
X42802400Y-28827600D02*
X43664000Y-28827600D01*
X43664000Y-28827600D02*
X43713400Y-28778200D01*
X44602400Y-30327600D02*
X43815000Y-30327600D01*
X43815000Y-30327600D02*
X43764200Y-30378400D01*
X42802400Y-28776508D02*
X42824946Y-28753962D01*
X42802400Y-28827600D02*
X42802400Y-28776508D01*
D20*
X36830000Y-55118000D02*
X36830000Y-56218000D01*
X36830000Y-56218000D02*
X37027601Y-56415601D01*
X37027601Y-56415601D02*
X37027601Y-59492399D01*
X37027601Y-59492399D02*
X35814000Y-60706000D01*
X42926000Y-35814000D02*
X42926000Y-36797000D01*
X42926000Y-34290000D02*
X42926000Y-35814000D01*
X42926000Y-36797000D02*
X42443400Y-37279600D01*
D19*
X37214400Y-25524509D02*
X37251316Y-25487593D01*
X37214400Y-25525600D02*
X37214400Y-25524509D01*
X35596400Y-51651600D02*
X35064000Y-51651600D01*
X35064000Y-51651600D02*
X35052000Y-51663600D01*
X43434000Y-58166000D02*
X43434000Y-53554798D01*
X43434000Y-53554798D02*
X44304800Y-52683998D01*
X45419096Y-52683998D02*
X45592498Y-52857400D01*
X48597100Y-45415200D02*
X45897800Y-45415200D01*
X44304800Y-52683998D02*
X45419096Y-52683998D01*
X45592498Y-52857400D02*
X48717200Y-52857400D01*
X48717200Y-52857400D02*
X49091811Y-52482789D01*
X49091811Y-52482789D02*
X49091811Y-51541889D01*
X49091811Y-51541889D02*
X49371211Y-51262489D01*
X49371211Y-51262489D02*
X49371211Y-46189311D01*
X49371211Y-46189311D02*
X48597100Y-45415200D01*
X44983400Y-42679600D02*
X45890200Y-42679600D01*
X45890200Y-42679600D02*
X45897800Y-42672000D01*
X44983400Y-42679600D02*
X44983400Y-41729600D01*
X44983400Y-41729600D02*
X44348400Y-41094600D01*
X44348400Y-41094600D02*
X44348400Y-33872398D01*
X44348400Y-33872398D02*
X42382601Y-31906599D01*
X41843399Y-31906599D02*
X39514400Y-29577600D01*
X42382601Y-31906599D02*
X41843399Y-31906599D01*
X39514400Y-29577600D02*
X39014400Y-29577600D01*
X39514400Y-29577600D02*
X39614401Y-29477599D01*
X39614401Y-26375601D02*
X39514400Y-26275600D01*
X39614401Y-29477599D02*
X39614401Y-26375601D01*
X39514400Y-26275600D02*
X39014400Y-26275600D01*
X35128200Y-36144200D02*
X36678000Y-36144200D01*
X36678000Y-36144200D02*
X37363400Y-36829600D01*
X37363400Y-36829600D02*
X37363400Y-37279600D01*
X35128200Y-42046976D02*
X35128200Y-36144200D01*
X32796388Y-44378788D02*
X35128200Y-42046976D01*
X34409199Y-54017999D02*
X32796388Y-52405188D01*
X32796388Y-52405188D02*
X32796388Y-44378788D01*
X35102800Y-62331600D02*
X34650399Y-61879199D01*
X34650399Y-54098397D02*
X34570001Y-54017999D01*
X34650399Y-61879199D02*
X34650399Y-54098397D01*
X34570001Y-54017999D02*
X34409199Y-54017999D01*
X44348400Y-62331600D02*
X35102800Y-62331600D01*
X45974000Y-60706000D02*
X44348400Y-62331600D01*
X40792400Y-53289200D02*
X34293998Y-53289200D01*
X34293998Y-53289200D02*
X33196399Y-52191601D01*
X33196399Y-52191601D02*
X33196399Y-51001601D01*
X33196399Y-51001601D02*
X33296400Y-50901600D01*
X33296400Y-50901600D02*
X33796400Y-50901600D01*
X43434000Y-60706000D02*
X44597601Y-59542399D01*
X44597601Y-59542399D02*
X44597601Y-53293999D01*
X33426400Y-45288200D02*
X33196399Y-45518201D01*
X33196399Y-45518201D02*
X33196399Y-47499599D01*
X33196399Y-47499599D02*
X33296400Y-47599600D01*
X33296400Y-47599600D02*
X33796400Y-47599600D01*
X34434800Y-45288200D02*
X33426400Y-45288200D01*
X36093400Y-42679600D02*
X36093400Y-43629600D01*
X36093400Y-43629600D02*
X34434800Y-45288200D01*
X33196399Y-47699601D02*
X33296400Y-47599600D01*
X33296400Y-50901600D02*
X33196399Y-50801599D01*
X33196399Y-50801599D02*
X33196399Y-47699601D01*
X42066389Y-47731611D02*
X42186400Y-47611600D01*
X42186400Y-50901600D02*
X42066389Y-50781589D01*
X42066389Y-50781589D02*
X42066389Y-47731611D01*
X41593999Y-51494001D02*
X42186400Y-50901600D01*
X41593999Y-56200410D02*
X41593999Y-51494001D01*
X42057601Y-56664012D02*
X41593999Y-56200410D01*
X42057601Y-59542399D02*
X42057601Y-56664012D01*
X40894000Y-60706000D02*
X42057601Y-59542399D01*
X42186400Y-50901600D02*
X42686400Y-50901600D01*
X38633400Y-42679600D02*
X38633400Y-43629600D01*
X38633400Y-43629600D02*
X42086399Y-47082599D01*
X42086399Y-47082599D02*
X42086399Y-47511599D01*
X42086399Y-47511599D02*
X42186400Y-47611600D01*
X42186400Y-47611600D02*
X42686400Y-47611600D01*
X40014412Y-51163588D02*
X40014412Y-46721610D01*
X40014412Y-46721610D02*
X39554401Y-46261599D01*
X38864400Y-51813600D02*
X39364400Y-51813600D01*
X39364400Y-51813600D02*
X40014412Y-51163588D01*
X39554401Y-46261599D02*
X36701701Y-46261599D01*
X36701701Y-46261599D02*
X36614399Y-46348901D01*
X38847200Y-41173400D02*
X39903400Y-42229600D01*
X39903400Y-42229600D02*
X39903400Y-42679600D01*
X37998400Y-41673798D02*
X38498798Y-41173400D01*
X38023800Y-44939500D02*
X38023800Y-41699198D01*
X36614399Y-46348901D02*
X38023800Y-44939500D01*
X36614399Y-47511599D02*
X36614399Y-46348901D01*
X38498798Y-41173400D02*
X38847200Y-41173400D01*
X36714400Y-47611600D02*
X36614399Y-47511599D01*
X37214400Y-47611600D02*
X36714400Y-47611600D01*
X38023800Y-41699198D02*
X37998400Y-41673798D01*
X37214400Y-47611600D02*
X37214400Y-48361600D01*
X37364400Y-48511600D02*
X37214400Y-48361600D01*
X39014400Y-47611600D02*
X39514400Y-47611600D01*
X39514400Y-47611600D02*
X39614401Y-47711601D01*
X39614401Y-47711601D02*
X39614401Y-48901601D01*
X39614401Y-48901601D02*
X39102403Y-49413599D01*
X39102403Y-49413599D02*
X37464401Y-49413599D01*
X37464401Y-49413599D02*
X37364400Y-49513600D01*
X37364400Y-49513600D02*
X37364400Y-50013600D01*
X39014400Y-46861600D02*
X39014400Y-47611600D01*
X48206202Y-49199800D02*
X46568200Y-49199800D01*
X46568200Y-49199800D02*
X46254400Y-49513600D01*
X46254400Y-49513600D02*
X46254400Y-50013600D01*
X48514000Y-47721200D02*
X48514000Y-48892002D01*
X48514000Y-48892002D02*
X48206202Y-49199800D01*
X47904400Y-47611600D02*
X48404400Y-47611600D01*
X48404400Y-47611600D02*
X48514000Y-47721200D01*
X47904400Y-46861600D02*
X47904400Y-47611600D01*
X46104400Y-49863600D02*
X46254400Y-50013600D01*
X41986200Y-45389800D02*
X40538400Y-43942000D01*
X45504399Y-46173897D02*
X44720302Y-45389800D01*
X44720302Y-45389800D02*
X41986200Y-45389800D01*
X45504399Y-47401601D02*
X45504399Y-46173897D01*
X46104400Y-47611600D02*
X45714398Y-47611600D01*
X45714398Y-47611600D02*
X45504399Y-47401601D01*
X48971200Y-46355000D02*
X48790097Y-46173897D01*
X48790097Y-46173897D02*
X45504399Y-46173897D01*
X48971200Y-51096800D02*
X48971200Y-46355000D01*
X48254400Y-51813600D02*
X48971200Y-51096800D01*
X47754400Y-51813600D02*
X48254400Y-51813600D01*
X46104400Y-47611600D02*
X46104400Y-48361600D01*
X36093400Y-37729600D02*
X36093400Y-37279600D01*
X38775200Y-40411400D02*
X36093400Y-37729600D01*
X40538400Y-43942000D02*
X40538400Y-41660300D01*
X39289500Y-40411400D02*
X38775200Y-40411400D01*
X40538400Y-41660300D02*
X39289500Y-40411400D01*
X34994376Y-48907068D02*
X34994376Y-49899576D01*
X34994376Y-49899576D02*
X35596400Y-50501600D01*
X34996399Y-48905045D02*
X34994376Y-48907068D01*
X34996399Y-47699601D02*
X34996399Y-48905045D01*
X35596400Y-50501600D02*
X35596400Y-50901600D01*
X35096400Y-47599600D02*
X34996399Y-47699601D01*
X35596400Y-47599600D02*
X35096400Y-47599600D01*
X35596400Y-50901600D02*
X35596400Y-50151600D01*
X35596400Y-46849600D02*
X35596400Y-47599600D01*
X38114400Y-51813600D02*
X38114400Y-52313600D01*
X38114400Y-52313600D02*
X38014399Y-52413601D01*
X36824399Y-52413601D02*
X36196401Y-51785603D01*
X36196401Y-51785603D02*
X36196401Y-51001601D01*
X36196401Y-51001601D02*
X36096400Y-50901600D01*
X38014399Y-52413601D02*
X36824399Y-52413601D01*
X36096400Y-50901600D02*
X35596400Y-50901600D01*
X36214388Y-49981188D02*
X36846801Y-50613601D01*
X36846801Y-50613601D02*
X38014399Y-50613601D01*
X38014399Y-50613601D02*
X38114400Y-50513600D01*
X38114400Y-50513600D02*
X38114400Y-50013600D01*
X36144200Y-45999400D02*
X36214388Y-46069588D01*
X36214388Y-46069588D02*
X36214388Y-49981188D01*
X35204400Y-45999400D02*
X36144200Y-45999400D01*
X34596388Y-46607412D02*
X35204400Y-45999400D01*
X34296400Y-48349600D02*
X34596388Y-48049612D01*
X34596388Y-48049612D02*
X34596388Y-46607412D01*
X33796400Y-48349600D02*
X34296400Y-48349600D01*
X34296400Y-48349600D02*
X34396401Y-48449601D01*
X34396401Y-48449601D02*
X34396401Y-51551599D01*
X34396401Y-51551599D02*
X34296400Y-51651600D01*
X34296400Y-51651600D02*
X33796400Y-51651600D01*
X43286401Y-48461601D02*
X43186400Y-48361600D01*
X43186400Y-48361600D02*
X42686400Y-48361600D01*
X42686400Y-51651600D02*
X43186400Y-51651600D01*
X43186400Y-51651600D02*
X43286401Y-51551599D01*
X43286401Y-51551599D02*
X43286401Y-48461601D01*
X47004400Y-50013600D02*
X47004400Y-50513600D01*
X47004400Y-50513600D02*
X46895800Y-50622200D01*
X44094400Y-46050200D02*
X43286401Y-46858199D01*
X43286401Y-48261599D02*
X43186400Y-48361600D01*
X46895800Y-50622200D02*
X45722998Y-50622200D01*
X45722998Y-50622200D02*
X45288200Y-50187402D01*
X45288200Y-50187402D02*
X45288200Y-47751102D01*
X45104388Y-46339586D02*
X44815002Y-46050200D01*
X45288200Y-47751102D02*
X45104388Y-47567290D01*
X45104388Y-47567290D02*
X45104388Y-46339586D01*
X44815002Y-46050200D02*
X44094400Y-46050200D01*
X43286401Y-46858199D02*
X43286401Y-48261599D01*
X44486400Y-50151600D02*
X44486400Y-50901600D01*
X43886399Y-47821599D02*
X43886399Y-50801599D01*
X44336401Y-47761599D02*
X43946399Y-47761599D01*
X43946399Y-47761599D02*
X43886399Y-47821599D01*
X43886399Y-50801599D02*
X43986400Y-50901600D01*
X44486400Y-47611600D02*
X44336401Y-47761599D01*
X44486400Y-46861600D02*
X44486400Y-47611600D01*
X44486400Y-50901600D02*
X43986400Y-50901600D01*
X44486400Y-50901600D02*
X44986400Y-50901600D01*
X45654399Y-51569599D02*
X45654399Y-52353601D01*
X44986400Y-50901600D02*
X45654399Y-51569599D01*
X45654399Y-52353601D02*
X45714399Y-52413601D01*
X45714399Y-52413601D02*
X46904399Y-52413601D01*
X46904399Y-52413601D02*
X47004400Y-52313600D01*
X47004400Y-52313600D02*
X47004400Y-51813600D01*
X32613600Y-30632400D02*
X33324800Y-31343600D01*
X33324800Y-31343600D02*
X36524698Y-31343600D01*
X36524698Y-31343600D02*
X36696109Y-31515011D01*
X32613600Y-26070400D02*
X32613600Y-30632400D01*
X33808400Y-25375600D02*
X33308400Y-25375600D01*
X33308400Y-25375600D02*
X32613600Y-26070400D01*
X35458400Y-28827600D02*
X35458400Y-29577600D01*
X37122689Y-31515011D02*
X36696109Y-31515011D01*
X39293800Y-33686122D02*
X37122689Y-31515011D01*
X35958400Y-29577600D02*
X35458400Y-29577600D01*
X39293800Y-39850000D02*
X39293800Y-33686122D01*
X36058401Y-29677601D02*
X35958400Y-29577600D01*
X41173400Y-42679600D02*
X41173400Y-41729600D01*
X36696109Y-31515011D02*
X36058401Y-30877303D01*
X41173400Y-41729600D02*
X39293800Y-39850000D01*
X36058401Y-30877303D02*
X36058401Y-29677601D01*
X42576798Y-31242000D02*
X45237400Y-31242000D01*
X41611589Y-30276791D02*
X42576798Y-31242000D01*
X41611589Y-26216411D02*
X41611589Y-30276791D01*
X42952400Y-25375600D02*
X42452400Y-25375600D01*
X42452400Y-25375600D02*
X41611589Y-26216411D01*
X45237400Y-29822598D02*
X45237400Y-31242000D01*
X45237400Y-31242000D02*
X45237400Y-33138598D01*
X45237400Y-33138598D02*
X44983400Y-33392598D01*
X44983400Y-33392598D02*
X44983400Y-37279600D01*
X44602400Y-29577600D02*
X44752399Y-29727599D01*
X44752399Y-29727599D02*
X45142401Y-29727599D01*
X45142401Y-29727599D02*
X45237400Y-29822598D01*
X44602400Y-28827600D02*
X44602400Y-29577600D01*
X44452400Y-28677600D02*
X44602400Y-28827600D01*
X33355198Y-27990800D02*
X34993200Y-27990800D01*
X34993200Y-27990800D02*
X35308400Y-27675600D01*
X35308400Y-27675600D02*
X35308400Y-27175600D01*
X33020000Y-29439200D02*
X33020000Y-28325998D01*
X33020000Y-28325998D02*
X33355198Y-27990800D01*
X33658400Y-29577600D02*
X33158400Y-29577600D01*
X33158400Y-29577600D02*
X33020000Y-29439200D01*
X33658400Y-30327600D02*
X33658400Y-29577600D01*
X35458400Y-27325600D02*
X35308400Y-27175600D01*
X42011600Y-28478398D02*
X42011600Y-29286800D01*
X42011600Y-29286800D02*
X42302400Y-29577600D01*
X42302400Y-29577600D02*
X42802400Y-29577600D01*
X44137200Y-27990800D02*
X42499198Y-27990800D01*
X42499198Y-27990800D02*
X42011600Y-28478398D01*
X44452400Y-27175600D02*
X44452400Y-27675600D01*
X44452400Y-27675600D02*
X44137200Y-27990800D01*
X42802400Y-29577600D02*
X42802400Y-30327600D01*
X37214400Y-26275600D02*
X37214400Y-27025600D01*
X36614399Y-25541597D02*
X36614399Y-26175599D01*
X37714400Y-29577600D02*
X37214400Y-29577600D01*
X37821002Y-26382202D02*
X37821002Y-29470998D01*
X37714400Y-26275600D02*
X37821002Y-26382202D01*
X37821002Y-29470998D02*
X37714400Y-29577600D01*
X37214400Y-26275600D02*
X37714400Y-26275600D01*
X37214400Y-30327600D02*
X37214400Y-29577600D01*
X34558400Y-25375600D02*
X34558400Y-24875600D01*
X34558400Y-24875600D02*
X34658401Y-24775599D01*
X35848401Y-24775599D02*
X36614399Y-25541597D01*
X34658401Y-24775599D02*
X35848401Y-24775599D01*
X36614399Y-26175599D02*
X36714400Y-26275600D01*
X36714400Y-26275600D02*
X37214400Y-26275600D01*
X37820600Y-31115000D02*
X38277800Y-30657800D01*
X38277800Y-30657800D02*
X38277800Y-28829000D01*
X36861798Y-31115000D02*
X37820600Y-31115000D01*
X36474400Y-30727602D02*
X36861798Y-31115000D01*
X36474400Y-27000200D02*
X36474400Y-30727602D01*
X36017200Y-26543000D02*
X36474400Y-27000200D01*
X34691000Y-26543000D02*
X36017200Y-26543000D01*
X34558400Y-27175600D02*
X34558400Y-26675600D01*
X34558400Y-26675600D02*
X34691000Y-26543000D01*
X38277800Y-28829000D02*
X38279200Y-28827600D01*
X38279200Y-28827600D02*
X39014400Y-28827600D01*
X38277800Y-25762200D02*
X38277800Y-28829000D01*
X39014400Y-25525600D02*
X38514400Y-25525600D01*
X38514400Y-25525600D02*
X38277800Y-25762200D01*
X47472600Y-30353402D02*
X47472600Y-28641800D01*
X46898401Y-30927601D02*
X47472600Y-30353402D01*
X45713609Y-30822811D02*
X45818399Y-30927601D01*
X45491400Y-29510898D02*
X45713609Y-29733107D01*
X45491400Y-27074598D02*
X45491400Y-29510898D01*
X43860400Y-26517600D02*
X44934402Y-26517600D01*
X44934402Y-26517600D02*
X45491400Y-27074598D01*
X43702400Y-26675600D02*
X43860400Y-26517600D01*
X43702400Y-27175600D02*
X43702400Y-26675600D01*
X45713609Y-29733107D02*
X45713609Y-30822811D01*
X45818399Y-30927601D02*
X46898401Y-30927601D01*
X47472600Y-25711400D02*
X47472600Y-28641800D01*
X47472600Y-28641800D02*
X47658400Y-28827600D01*
X47658400Y-28827600D02*
X48158400Y-28827600D01*
X48158400Y-25525600D02*
X47658400Y-25525600D01*
X47658400Y-25525600D02*
X47472600Y-25711400D01*
X47040800Y-27208000D02*
X47040800Y-29395200D01*
X47040800Y-29395200D02*
X46858400Y-29577600D01*
X46858400Y-29577600D02*
X46358400Y-29577600D01*
X46358400Y-27025600D02*
X46858400Y-27025600D01*
X46858400Y-27025600D02*
X47040800Y-27208000D01*
X46358400Y-26275600D02*
X46358400Y-27025600D01*
X43702400Y-25375600D02*
X43702400Y-24875600D01*
X43702400Y-24875600D02*
X43802401Y-24775599D01*
X43802401Y-24775599D02*
X44992401Y-24775599D01*
X44992401Y-24775599D02*
X45758399Y-25541597D01*
X45758399Y-25541597D02*
X45758399Y-26175599D01*
X45758399Y-26175599D02*
X45858400Y-26275600D01*
X45858400Y-26275600D02*
X46358400Y-26275600D01*
X46358400Y-29577600D02*
X46358400Y-30327600D01*
X41843399Y-44103999D02*
X42468800Y-44729400D01*
X49771222Y-46023622D02*
X49771222Y-51428178D01*
X45974000Y-56743600D02*
X45974000Y-58166000D01*
X49771222Y-51428178D02*
X49498211Y-51701189D01*
X49498211Y-53219389D02*
X45974000Y-56743600D01*
X43713400Y-38229600D02*
X41843399Y-40099601D01*
X43713400Y-37279600D02*
X43713400Y-38229600D01*
X49498211Y-51701189D02*
X49498211Y-53219389D01*
X41843399Y-40099601D02*
X41843399Y-44103999D01*
X48477000Y-44729400D02*
X49771222Y-46023622D01*
X42468800Y-44729400D02*
X48477000Y-44729400D01*
X50171233Y-51593867D02*
X50171233Y-45857933D01*
X49911000Y-51854100D02*
X50171233Y-51593867D01*
X49911000Y-59105800D02*
X49911000Y-51854100D01*
X49687199Y-59329601D02*
X49911000Y-59105800D01*
X45628269Y-59329601D02*
X49687199Y-59329601D01*
X44810399Y-60999101D02*
X44810399Y-60147471D01*
X44810399Y-60147471D02*
X45628269Y-59329601D01*
X43939899Y-61869601D02*
X44810399Y-60999101D01*
X39730399Y-61264529D02*
X40335471Y-61869601D01*
X40894000Y-58166000D02*
X39730399Y-59329601D01*
X48179100Y-43865800D02*
X46024800Y-43865800D01*
X50171233Y-45857933D02*
X48179100Y-43865800D01*
X40335471Y-61869601D02*
X43939899Y-61869601D01*
X39730399Y-59329601D02*
X39730399Y-61264529D01*
X48758401Y-41132199D02*
X48758401Y-29677601D01*
X48758401Y-29677601D02*
X48658400Y-29577600D01*
X42443400Y-42679600D02*
X42443400Y-43629600D01*
X42443400Y-43629600D02*
X42679600Y-43865800D01*
X42679600Y-43865800D02*
X46024800Y-43865800D01*
X46024800Y-43865800D02*
X48758401Y-41132199D01*
X48158400Y-26275600D02*
X48658400Y-26275600D01*
X48658400Y-26275600D02*
X48758401Y-26375601D01*
X48758401Y-26375601D02*
X48758401Y-29477599D01*
X48758401Y-29477599D02*
X48658400Y-29577600D01*
X48658400Y-29577600D02*
X48158400Y-29577600D01*
M02*
